<svg xmlns="http://www.w3.org/2000/svg" xmlns:xlink="http://www.w3.org/1999/xlink" id="Layer_1" width="792" height="1224" data-name="Layer 1" viewBox="0 0 792 1224"><defs><clipPath id="clip-path"><path fill="none" d="M397,225.4c-164.3,0-297.4,133.1-297.4,297.3S232.7,820.1,397,820.1,694.3,687,694.3,522.7,561.2,225.4,397,225.4Zm0,309.1a11.8,11.8,0,0,1,0-23.6,11.8,11.8,0,0,1,0,23.6Z"/></clipPath><clipPath id="clip-path-2"><rect width="604.7" height="604.72" x="94.6" y="220.4" fill="none"/></clipPath><style>#record{animation:spin 6s infinite linear;transform-origin:50% 42.7%}</style></defs><title>Revolution_Simpler_Corben</title><g id="backgroundColor"><image width="3601" height="5400" transform="translate(-35 -36) scale(0.24)" xlink:href="Revolution_Simpler_Corben1.png"/></g><text fill="#231f20" font-family="Corben-Bold, Corben" font-size="47.48" font-weight="700" transform="translate(83.2 525.7) rotate(-86.9)">T</text><text fill="#231f20" font-family="Corben-Bold, Corben" font-size="47.48" font-weight="700" transform="matrix(0.19, -0.98, 0.98, 0.19, 85.34, 484.39)">h</text><text fill="#231f20" font-family="Corben-Bold, Corben" font-size="47.48" font-weight="700" transform="translate(94.7 439.3) rotate(-71.7)">e</text><text fill="#231f20" font-family="Corben-Bold, Corben" font-size="47.48" font-weight="700" transform="matrix(0.47, -0.88, 0.88, 0.47, 109.53, 396.05)">R</text><text fill="#231f20" font-family="Corben-Bold, Corben" font-size="47.48" font-weight="700" transform="translate(133 353.5) rotate(-54.4)">e</text><text fill="#231f20" font-family="Corben-Bold, Corben" font-size="47.48" font-weight="700" transform="translate(151.8 327) rotate(-48)">v</text><text fill="#231f20" font-family="Corben-Bold, Corben" font-size="47.48" font-weight="700" transform="translate(177.2 299) rotate(-41.2)">o</text><text fill="#231f20" font-family="Corben-Bold, Corben" font-size="47.48" font-weight="700" transform="matrix(0.81, -0.58, 0.58, 0.81, 205.84, 274.39)">l</text><text fill="#231f20" font-family="Corben-Bold, Corben" font-size="47.48" font-weight="700" transform="matrix(0.87, -0.48, 0.48, 0.87, 225.87, 259.47)">u</text><text fill="#231f20" font-family="Corben-Bold, Corben" font-size="47.48" font-weight="700" transform="translate(266.6 237.7) rotate(-22.2)">t</text><text fill="#231f20" font-family="Corben-Bold, Corben" font-size="47.48" font-weight="700" transform="translate(292 227.4) rotate(-17.4)">i</text><text fill="#231f20" font-family="Corben-Bold, Corben" font-size="47.48" font-weight="700" transform="translate(315.9 219.6) rotate(-11.6)">o</text><text fill="#231f20" font-family="Corben-Bold, Corben" font-size="47.48" font-weight="700" transform="matrix(1, -0.07, 0.07, 1, 352.61, 211.89)">n</text><text fill="#231f20" font-family="Corben-Bold, Corben" font-size="47.48" font-weight="700" transform="translate(412.7 209.8) rotate(5)">i</text><text fill="#231f20" font-family="Corben-Bold, Corben" font-size="47.48" font-weight="700" transform="matrix(0.98, 0.18, -0.18, 0.98, 437.77, 211.88)">s</text><text fill="#231f20" font-family="Corben-Bold, Corben" font-size="47.48" font-weight="700" transform="translate(481.5 220.9) rotate(17.8)">i</text><text fill="#231f20" font-family="Corben-Bold, Corben" font-size="47.48" font-weight="700" transform="translate(505.4 228) rotate(24.4)">n</text><text fill="#231f20" font-family="Corben-Bold, Corben" font-size="47.48" font-weight="700" transform="matrix(0.82, 0.57, -0.57, 0.82, 559.34, 254.26)">y</text><text fill="#231f20" font-family="Corben-Bold, Corben" font-size="47.48" font-weight="700" transform="translate(591.7 276.8) rotate(41.7)">o</text><text fill="#231f20" font-family="Corben-Bold, Corben" font-size="47.48" font-weight="700" transform="matrix(0.65, 0.76, -0.76, 0.65, 619.85, 301.66)">u</text><text fill="#231f20" font-family="Corben-Bold, Corben" font-size="47.48" font-weight="700" transform="matrix(0.55, 0.83, -0.83, 0.55, 649.53, 336.95)">r</text><text fill="#231f20" font-family="Corben-Bold, Corben" font-size="47.48" font-weight="700" transform="translate(674.5 375.3) rotate(66.7)">M</text><text fill="#231f20" font-family="Corben-Bold, Corben" font-size="47.48" font-weight="700" transform="translate(694.4 423.9) rotate(73.8)">i</text><text fill="#231f20" font-family="Corben-Bold, Corben" font-size="47.48" font-weight="700" transform="translate(701.9 447.7) rotate(80.4)">n</text><text fill="#231f20" font-family="Corben-Bold, Corben" font-size="47.48" font-weight="700" transform="matrix(0.03, 1, -1, 0.03, 709.45, 493.77)">d</text><path fill="#231f20" d="M37.5,1145.4l-1.1-.6a3.7,3.7,0,0,1-1.7-1.8,6.1,6.1,0,0,1-.6-2.8,5.7,5.7,0,0,1,.6-2.7,3.7,3.7,0,0,1,1.7-1.8,5.4,5.4,0,0,1,2.7-.6,5.4,5.4,0,0,1,2.7.6,3.3,3.3,0,0,1,1.7,1.8,5.7,5.7,0,0,1,.6,2.7,6.1,6.1,0,0,1-.6,2.8,3.3,3.3,0,0,1-1.7,1.8,5.4,5.4,0,0,1-2.7.6Zm2.8-1.4.8-.4a3.7,3.7,0,0,0,1.2-1.3,4.6,4.6,0,0,0,.5-2.1,3.9,3.9,0,0,0-.5-2,2.8,2.8,0,0,0-1.2-1.4,4.2,4.2,0,0,0-2-.4,4.2,4.2,0,0,0-2,.4,3.3,3.3,0,0,0-1.2,1.4,4,4,0,0,0-.4,2,4.6,4.6,0,0,0,.4,2.1,3.7,3.7,0,0,0,1.2,1.3,4.2,4.2,0,0,0,2,.4Zm-2.2-1.1-.7-.6a3,3,0,0,1-.6-2v-.3a2.9,2.9,0,0,1,.6-1.9,2.9,2.9,0,0,1,1.9-.6,2,2,0,0,1,1.1.2,1.6,1.6,0,0,1,.8.6l-.7,1-.6-.4h-.6a1,1,0,0,0-.8.3,1.6,1.6,0,0,0-.3.9v.3a1.5,1.5,0,0,0,.3,1,1,1,0,0,0,.8.3h.6l.6-.5.8,1a1.6,1.6,0,0,1-.9.7,2,2,0,0,1-1.1.2Z"/><path fill="#231f20" d="M50.3,1137.5h1.8v10.7H50.3Zm1,9h1.6l.5-.2a.8.8,0,0,0,.2-.5v-1.4a.7.7,0,0,0-.1-.5c0-.1-.1-.2-.2-.3h-2v-1.7h1.5c.2,0,.4,0,.5-.2a.8.8,0,0,0,.2-.6v-1.1a.8.8,0,0,0-.2-.5l-.5-.2H51.3v-1.7H53a2.1,2.1,0,0,1,1.2.3c.4.2.7.4.8.7a2.7,2.7,0,0,1,.3,1.2v1.2a1.9,1.9,0,0,1-.2.8,1,1,0,0,1-.5.6,1.2,1.2,0,0,1-.9.3l1,.4a1,1,0,0,1,.5.6,1.5,1.5,0,0,1,.2.9v1.5a5,5,0,0,1-.2,1.2,2.7,2.7,0,0,1-.8.7,2.1,2.1,0,0,1-1.2.3H51.3Z"/><path fill="#231f20" d="M57.6,1148c-.4-.2-.7-.4-.8-.8a2.4,2.4,0,0,1-.3-1.2v-3.1a4.4,4.4,0,0,1,.2-1.3,2.4,2.4,0,0,1,.8-.9,3,3,0,0,1,2.6,0,2,2,0,0,1,.8.8,2.9,2.9,0,0,1,.3,1.4v2.1H57.9v-1.3h1.5v-.9a.7.7,0,0,0-.1-.5c-.1-.2-.3-.2-.5-.2s-.3,0-.4.2a.8.8,0,0,0-.2.5v3.2a.8.8,0,0,0,.2.5l.5.2a.7.7,0,0,0,.6-.6v-.2h1.7v.2a2.1,2.1,0,0,1-.6,1.6,2.4,2.4,0,0,1-1.7.6A2.5,2.5,0,0,1,57.6,1148Z"/><path fill="#231f20" d="M61.9,1140.6h3.5v1.6H61.9Zm1.2,7.1a1.7,1.7,0,0,1-.5-1.5v-7.8h1.8v7.5c0,.2,0,.3.1.4h.9v1.8h-.8A2.1,2.1,0,0,1,63.1,1147.7Z"/><path fill="#231f20" d="M66.4,1137.5h1.9v10.7H66.4Zm3,5.4c0-.3,0-.5-.1-.6l-.5-.2-.4.2a.7.7,0,0,0-.1.5l-.2-.9a3,3,0,0,1,.7-1.1,1.8,1.8,0,0,1,1-.4,1.6,1.6,0,0,1,1.1.5,3.1,3.1,0,0,1,.3,1.5v5.8H69.4Z"/><path fill="#231f20" d="M72.6,1137.5h1.8v10.7H72.6Zm1.5,5.8,2-5.8h2.1l-4.1,9Zm.6-.9,1.3-1.1,2.5,6.9h-2Z"/><path fill="#231f20" d="M82,1137.5h1.9v10.7H82Zm1.3,8.9h1.3c.3,0,.4,0,.6-.2a.8.8,0,0,0,.2-.6v-5.5a1.1,1.1,0,0,0-.2-.6c-.2-.2-.3-.2-.6-.2H83.3v-1.8h1.5a2.8,2.8,0,0,1,1.3.3,2,2,0,0,1,.8.8,2.8,2.8,0,0,1,.3,1.3v5.9a2.8,2.8,0,0,1-.3,1.3,2,2,0,0,1-.8.8,2.8,2.8,0,0,1-1.3.3H83.3Z"/><path fill="#231f20" d="M89.5,1148a2,2,0,0,1-.8-.8,2.4,2.4,0,0,1-.3-1.2v-3.1a2.5,2.5,0,0,1,.3-1.3,2.4,2.4,0,0,1,.8-.9,3,3,0,0,1,2.6,0l.8.8a2.9,2.9,0,0,1,.3,1.4v2.1H89.9v-1.3h1.5v-.9a.8.8,0,0,0-.2-.5c-.1-.2-.2-.2-.4-.2s-.4,0-.5.2a.7.7,0,0,0-.1.5v3.2a.8.8,0,0,0,.2.5.5.5,0,0,0,.4.2l.5-.2c.1-.1.1-.2.1-.4v-.2h1.8v.2a2.1,2.1,0,0,1-.6,1.6,2.4,2.4,0,0,1-1.8.6A2.8,2.8,0,0,1,89.5,1148Z"/><path fill="#231f20" d="M95.2,1148l-.8-.8a2.7,2.7,0,0,1-.3-1.2v-.2h1.7c0,.3,0,.4.2.6l.5.2.5-.2a.9.9,0,0,0,.1-.5c0-.2,0-.3-.1-.4l-.3-.3-.6-.2h-.3l-.8-.4a1.3,1.3,0,0,1-.6-.7,3.6,3.6,0,0,1-.2-1.1,2.7,2.7,0,0,1,.3-1.2,1.8,1.8,0,0,1,.7-.8,2.6,2.6,0,0,1,2.4,0l.8.8a3.7,3.7,0,0,1,.2,1.2H96.9a.7.7,0,0,0-.1-.5H96a1.3,1.3,0,0,0,0,1l.4.2.6.3h.1l.9.4.6.7a2.2,2.2,0,0,1,.2,1.2,2.7,2.7,0,0,1-.3,1.2,1.5,1.5,0,0,1-.8.8,2.7,2.7,0,0,1-1.2.3A2.8,2.8,0,0,1,95.2,1148Z"/><path fill="#231f20" d="M99.7,1137.5h1.8v1.8H99.7Zm0,3.1h1.8v7.6H99.7Z"/><path fill="#231f20" d="M103.4,1148.1a1.2,1.2,0,0,1-.5-.7,2.3,2.3,0,0,1-.2-1.2v-3.7a2,2,0,0,1,.2-1.1,1.2,1.2,0,0,1,.5-.7,1.1,1.1,0,0,1,.8-.2,1.6,1.6,0,0,1,.9.3,3.6,3.6,0,0,1,.7,1l-.2,1c0-.2,0-.3-.1-.4a.3.3,0,0,0-.1-.2H105l-.4.2a.7.7,0,0,0-.1.5v3.2a.7.7,0,0,0,.1.5h.8c0-.1.1-.2.1-.3a.4.4,0,0,0,.1-.3v1a2.1,2.1,0,0,1-.6,1,1.4,1.4,0,0,1-.9.3Zm-.1,2.6a2.1,2.1,0,0,1-.6-1.6v-.4h1.8v.4c0,.1.1.3.2.3l.4.2h.4a.6.6,0,0,0,.1-.4v-8.5h1.8v8.5a2.7,2.7,0,0,1-.3,1.2c-.1.3-.4.5-.8.7a2.5,2.5,0,0,1-1.3.3A2.4,2.4,0,0,1,103.3,1150.7Z"/><path fill="#231f20" d="M108.9,1140.6h1.8v7.6h-1.8Zm3,2.2a.8.8,0,0,0-.2-.5c-.1-.2-.2-.2-.4-.2s-.4,0-.4.2a.8.8,0,0,0-.2.5v-.9a2,2,0,0,1,.6-1.1,1.8,1.8,0,0,1,1-.4,1.4,1.4,0,0,1,1.1.5,2.4,2.4,0,0,1,.4,1.5v5.8h-1.8Z"/><path fill="#231f20" d="M115.9,1148a2,2,0,0,1-.8-.8,2.7,2.7,0,0,1-.3-1.2v-.2h1.6a1.1,1.1,0,0,0,.2.6l.5.2.5-.2a.6.6,0,0,0,.2-.5c0-.2,0-.3-.1-.4l-.4-.3-.5-.2h-.4l-.8-.4a1.8,1.8,0,0,1-.5-.7,2,2,0,0,1-.3-1.1,2.7,2.7,0,0,1,.3-1.2l.8-.8a2.1,2.1,0,0,1,1.2-.3,2,2,0,0,1,1.1.3,2,2,0,0,1,.8.8,2.1,2.1,0,0,1,.3,1.2h-1.7a.7.7,0,0,0-.1-.5h-.8c-.1.2-.2.3-.2.5s.1.3.2.5l.4.2.6.3h.1l.9.4.6.7a3.7,3.7,0,0,1,.2,1.2,2.7,2.7,0,0,1-.3,1.2l-.8.8a2.8,2.8,0,0,1-1.3.3A2.7,2.7,0,0,1,115.9,1148Z"/><path fill="#231f20" d="M120.2,1146.4H122v1.8h-1.8Z"/><path fill="#231f20" d="M128,1137.5h1.3l2.6,10.7h-1.8l-1.4-7-1.4,7h-1.8Zm-.8,7.3h2.9v1.7h-2.9Z"/><path fill="#231f20" d="M134.5,1145.9a.8.8,0,0,0,.2.4h.6v1.8h-.7a1.7,1.7,0,0,1-1.4-.6,2,2,0,0,1-.5-1.4v-8.7h1.8Z"/><path fill="#231f20" d="M138,1145.9v.4h.6v1.8h-.6a1.7,1.7,0,0,1-1.4-.6,2,2,0,0,1-.5-1.4v-8.7H138Z"/><path fill="#231f20" d="M142.6,1137.5h1.8v10.7h-1.8Zm.8,4.4h2.3c.2,0,.2-.1.3-.2s.1-.2.1-.4V1140a.6.6,0,0,0-.1-.4c-.1-.1-.1-.2-.3-.2h-2.3v-1.8h1.8a3.3,3.3,0,0,1,1.5.3,2.4,2.4,0,0,1,.9.8,2.8,2.8,0,0,1,.4,1.3v1.3a2.5,2.5,0,0,1-.4,1.3,2,2,0,0,1-.9.9,3.3,3.3,0,0,1-1.5.3h-1.8Zm1.5,1.4,1.7-.3,1.7,5.2h-2Z"/><path fill="#231f20" d="M149.2,1137.5H151v1.8h-1.8Zm0,3.1H151v7.6h-1.8Z"/><path fill="#231f20" d="M152.8,1148.1a1.8,1.8,0,0,1-.5-.7,4.3,4.3,0,0,1-.2-1.2v-3.7a3.6,3.6,0,0,1,.2-1.1,1.8,1.8,0,0,1,.5-.7,1.1,1.1,0,0,1,.8-.2,1.4,1.4,0,0,1,.9.3,3.6,3.6,0,0,1,.7,1l-.2,1v-.4c-.1-.1-.1-.2-.2-.2h-.3l-.5.2a.7.7,0,0,0-.1.5v3.2a.7.7,0,0,0,.1.5h.8l.2-.3v.7a3.1,3.1,0,0,1-.5,1,1.7,1.7,0,0,1-1,.3Zm0,2.6a2.1,2.1,0,0,1-.6-1.6v-.4H154v.4c0,.1,0,.3.1.3l.4.2h.4a.6.6,0,0,0,.1-.4v-8.5h1.9v8.5a2.7,2.7,0,0,1-.3,1.2,2.7,2.7,0,0,1-.8.7,2.8,2.8,0,0,1-1.3.3A2.2,2.2,0,0,1,152.8,1150.7Z"/><path fill="#231f20" d="M158.3,1137.5h1.8v10.7h-1.8Zm3,5.4c0-.3,0-.5-.1-.6l-.5-.2-.4.2a.8.8,0,0,0-.2.5v-.9a2.1,2.1,0,0,1,.7-1.1,1.5,1.5,0,0,1,.9-.4,1.3,1.3,0,0,1,1.1.5,2.2,2.2,0,0,1,.4,1.5v5.8h-1.8Z"/><path fill="#231f20" d="M164,1140.6h3.4v1.6H164Zm1.1,7.1a2.1,2.1,0,0,1-.5-1.5v-7.8h1.8v7.5a.5.5,0,0,0,.2.4c0,.1.2.1.3.1h.5v1.8h-.8A2.1,2.1,0,0,1,165.1,1147.7Z"/><path fill="#231f20" d="M169.3,1148a2.4,2.4,0,0,1-.9-.8,2.7,2.7,0,0,1-.3-1.2v-.2h1.7a1.1,1.1,0,0,0,.2.6l.5.2.5-.2c.1-.2.2-.3.2-.5s-.1-.3-.1-.4l-.4-.3-.6-.2h-.3l-.8-.4-.6-.7a3.6,3.6,0,0,1-.2-1.1,2.7,2.7,0,0,1,.3-1.2,2,2,0,0,1,.8-.8,2,2,0,0,1,1.1-.3,2.1,2.1,0,0,1,1.2.3l.8.8a2.1,2.1,0,0,1,.3,1.2H171a.8.8,0,0,0-.2-.5h-.7c-.1.2-.2.3-.2.5s.1.3.2.5l.3.2.6.3h.2l.8.4a1.3,1.3,0,0,1,.6.7,2.1,2.1,0,0,1,.3,1.2,2.7,2.7,0,0,1-.3,1.2l-.8.8a2.8,2.8,0,0,1-1.3.3A2.1,2.1,0,0,1,169.3,1148Z"/><path fill="#231f20" d="M176.9,1137.5h1.7v10.7h-1.7Zm.8,4.4H180l.3-.2v-2l-.3-.2h-2.3v-1.8h1.8a3.7,3.7,0,0,1,1.5.3,2.4,2.4,0,0,1,.9.8,2.8,2.8,0,0,1,.3,1.3v1.3a2.5,2.5,0,0,1-.3,1.3,2,2,0,0,1-.9.9l-1.5.3h-1.8Zm1.4,1.4,1.7-.3,1.7,5.2h-1.9Z"/><path fill="#231f20" d="M184.4,1148a1.8,1.8,0,0,1-.9-.8,2.3,2.3,0,0,1-.2-1.2v-3.1a2.5,2.5,0,0,1,.2-1.3,2.4,2.4,0,0,1,.8-.9,3,3,0,0,1,2.6,0l.8.8a2.9,2.9,0,0,1,.3,1.4v2.1h-3.3v-1.3h1.5v-.9a.7.7,0,0,0-.1-.5.6.6,0,0,0-.5-.2c-.2,0-.3,0-.4.2a.8.8,0,0,0-.2.5v3.2a.8.8,0,0,0,.2.5.6.6,0,0,0,.5.2l.4-.2c.1-.1.1-.2.1-.4v-.2H188v.2a2.1,2.1,0,0,1-.6,1.6,2.4,2.4,0,0,1-1.7.6A2.3,2.3,0,0,1,184.4,1148Z"/><path fill="#231f20" d="M190,1148l-.8-.8a2.7,2.7,0,0,1-.3-1.2v-.2h1.7a1.1,1.1,0,0,0,.2.6l.5.2.5-.2c.1-.2.2-.3.2-.5a.5.5,0,0,0-.2-.4l-.3-.3-.6-.2h-.3l-.8-.4-.6-.7a3.6,3.6,0,0,1-.2-1.1,2.7,2.7,0,0,1,.3-1.2,2,2,0,0,1,.8-.8,2,2,0,0,1,1.1-.3,2.1,2.1,0,0,1,1.2.3l.8.8a2.1,2.1,0,0,1,.3,1.2h-1.7a.8.8,0,0,0-.2-.5h-.8a1.3,1.3,0,0,0,0,1l.4.2.6.3h.1l.9.4a1.3,1.3,0,0,1,.6.7,2.1,2.1,0,0,1,.3,1.2,2.7,2.7,0,0,1-.3,1.2,2.4,2.4,0,0,1-.9.8,2.1,2.1,0,0,1-1.2.3A2.8,2.8,0,0,1,190,1148Z"/><path fill="#231f20" d="M195.6,1148a2,2,0,0,1-.8-.8,2.4,2.4,0,0,1-.3-1.2v-3.1a2.5,2.5,0,0,1,.3-1.3,2.4,2.4,0,0,1,.8-.9,3,3,0,0,1,2.6,0l.8.8a2.9,2.9,0,0,1,.3,1.4v2.1H196v-1.3h1.5v-.9a.8.8,0,0,0-.2-.5c-.1-.2-.2-.2-.4-.2s-.4,0-.5.2a.7.7,0,0,0-.1.5v3.2c0,.2,0,.4.2.5a.5.5,0,0,0,.4.2l.5-.2c.1-.1.1-.2.1-.4v-.2h1.8v.2a2.1,2.1,0,0,1-.6,1.6,2.4,2.4,0,0,1-1.8.6A2.8,2.8,0,0,1,195.6,1148Z"/><path fill="#231f20" d="M200.6,1140.6h1.8v7.6h-1.8Zm3.5,1.8h-.4a1.7,1.7,0,0,0-1,.3,2,2,0,0,0-.3,1.1l-.2-1.9a2.4,2.4,0,0,1,.9-1.1,2.1,2.1,0,0,1,1.1-.4v2Z"/><path fill="#231f20" d="M208.4,1140.6h1.7l-2,7.6h-1.4l-2-7.6h1.8l.9,5Z"/><path fill="#231f20" d="M211.9,1148a1.8,1.8,0,0,1-.9-.8,4.3,4.3,0,0,1-.2-1.2v-3.1a4.4,4.4,0,0,1,.2-1.3,2.4,2.4,0,0,1,.8-.9,3,3,0,0,1,2.6,0l.8.8a2.9,2.9,0,0,1,.3,1.4v2.1h-3.3v-1.3h1.5v-.9a.7.7,0,0,0-.1-.5c-.1-.2-.3-.2-.5-.2s-.3,0-.4.2a.8.8,0,0,0-.2.5v3.2a.8.8,0,0,0,.2.5l.5.2a.7.7,0,0,0,.6-.6v-.2h1.7v.2a2.1,2.1,0,0,1-.6,1.6,2.4,2.4,0,0,1-1.7.6A2.5,2.5,0,0,1,211.9,1148Z"/><path fill="#231f20" d="M217.3,1148.1a1.8,1.8,0,0,1-.5-.7,4.3,4.3,0,0,1-.2-1.2v-3.7a3.6,3.6,0,0,1,.2-1.1,1.8,1.8,0,0,1,.5-.7,1.1,1.1,0,0,1,.8-.2,1.2,1.2,0,0,1,.9.3,2.3,2.3,0,0,1,.7,1v1c0-.2-.1-.3-.1-.4a.2.2,0,0,0-.2-.2H219l-.4.2a.8.8,0,0,0-.2.5v3.2a.8.8,0,0,0,.2.5h.7c.1-.1.2-.2.2-.3v.7l-.6,1a1.7,1.7,0,0,1-1,.3Zm2.3-10.6h1.8v10.7h-1.8Z"/><path fill="#231f20" d="M222.5,1146.4h1.8v1.8h-1.8Z"/><g id="record"><g clip-path="url(#clip-path)"><g clip-path="url(#clip-path-2)"><image width="1260" height="1260" transform="translate(94.6 220.3) scale(0.48)" xlink:href="Revolution_Simpler_Corben2.png"/></g></g><path fill="#ffeb74" d="M397,418.3A104.5,104.5,0,1,0,501.4,522.7,104.4,104.4,0,0,0,397,418.3Zm0,115.6a11.2,11.2,0,1,1,11.1-11.2A11.2,11.2,0,0,1,397,533.9Z"/><text fill="#231f20" font-family="GoodVibrations, Good Vibrations" font-size="12" transform="matrix(0.25, -0.97, 0.97, 0.25, 312.56, 503.78)">T</text><text fill="#231f20" font-family="Corben-Regular, Corben" font-size="12" transform="translate(313.8 498.7) rotate(-71.3)">h</text><text fill="#231f20" font-family="Corben-Regular, Corben" font-size="12" transform="translate(316.2 491.7) rotate(-67.1)">e</text><text fill="#231f20" font-family="Corben-Regular, Corben" font-size="12" transform="translate(319.1 484.8) rotate(-60.9)">R</text><text fill="#231f20" font-family="Corben-Regular, Corben" font-size="12" transform="matrix(0.56, -0.83, 0.83, 0.56, 323.54, 477)">e</text><text fill="#231f20" font-family="Corben-Regular, Corben" font-size="12" transform="translate(326.6 472.4) rotate(-52.1)">v</text><text fill="#231f20" font-family="Corben-Regular, Corben" font-size="12" transform="translate(330.8 467.1) rotate(-47.8)">o</text><text fill="#231f20" font-family="Corben-Regular, Corben" font-size="12" transform="matrix(0.71, -0.7, 0.7, 0.71, 335.04, 462.4)">l</text><text fill="#231f20" font-family="Corben-Regular, Corben" font-size="12" transform="translate(337.3 460) rotate(-41.1)">u</text><text fill="#231f20" font-family="Corben-Regular, Corben" font-size="12" transform="matrix(0.79, -0.61, 0.61, 0.79, 342.75, 455.37)">t</text><text fill="#231f20" font-family="Corben-Regular, Corben" font-size="12" transform="translate(346 452.9) rotate(-34.9)">i</text><text fill="#231f20" font-family="Corben-Regular, Corben" font-size="12" transform="matrix(0.85, -0.52, 0.52, 0.85, 349.01, 450.73)">o</text><text fill="#231f20" font-family="Corben-Regular, Corben" font-size="12" transform="translate(354.4 447.4) rotate(-27)">n</text><text fill="#231f20" font-family="Corben-Regular, Corben" font-size="12" transform="translate(362.9 443.3) rotate(-21.9)">i</text><text fill="#231f20" font-family="Corben-Regular, Corben" font-size="12" transform="matrix(0.95, -0.32, 0.32, 0.95, 366.29, 441.84)">s</text><text fill="#231f20" font-family="Corben-Regular, Corben" font-size="12" transform="translate(373.7 439.4) rotate(-14.3)">i</text><text fill="#231f20" font-family="Corben-Regular, Corben" font-size="12" transform="translate(377.2 438.5) rotate(-10.6)">n</text><text fill="#231f20" font-family="Corben-Regular, Corben" font-size="12" transform="translate(386.5 436.9) rotate(-4.7)">y</text><text fill="#231f20" font-family="Corben-Regular, Corben" font-size="12" transform="matrix(1, -0.02, 0.02, 1, 392.88, 436.35)">o</text><text fill="#231f20" font-family="Corben-Regular, Corben" font-size="12" transform="translate(399.2 436.2) rotate(3.9)">u</text><text fill="#231f20" font-family="Corben-Regular, Corben" font-size="12" transform="translate(406.3 436.8) rotate(7.8)">r</text><text fill="#231f20" font-family="Corben-Regular, Corben" font-size="12" transform="matrix(0.97, 0.25, -0.25, 0.97, 413.13, 437.6)">M</text><text fill="#231f20" font-family="Corben-Regular, Corben" font-size="12" transform="translate(424.3 440.7) rotate(19.8)">i</text><text fill="#231f20" font-family="Corben-Regular, Corben" font-size="12" transform="translate(427.8 441.9) rotate(23.5)">n</text><text fill="#231f20" font-family="Corben-Regular, Corben" font-size="12" transform="matrix(0.88, 0.47, -0.47, 0.88, 434.62, 444.83)">d</text><text fill="#231f20" font-family="Corben-Regular, Corben" font-size="12" transform="translate(451.8 455.8) rotate(41.7)">T</text><text fill="#231f20" font-family="Corben-Regular, Corben" font-size="12" transform="matrix(0.69, 0.72, -0.72, 0.69, 456.91, 460.35)">h</text><text fill="#231f20" font-family="Corben-Regular, Corben" font-size="12" transform="translate(462 465.7) rotate(50.6)">e</text><text fill="#231f20" font-family="Corben-Regular, Corben" font-size="12" transform="translate(466.7 471.5) rotate(56.7)">R</text><text fill="#231f20" font-family="Corben-Regular, Corben" font-size="12" transform="matrix(0.48, 0.88, -0.88, 0.48, 471.59, 479)">e</text><text fill="#231f20" font-family="Corben-Regular, Corben" font-size="12" transform="translate(474.3 483.9) rotate(65.6)">v</text><text fill="#231f20" font-family="Corben-Regular, Corben" font-size="12" transform="translate(477 490) rotate(69.9)">o</text><text fill="#231f20" font-family="Corben-Regular, Corben" font-size="12" transform="matrix(0.29, 0.96, -0.96, 0.29, 479.19, 495.97)">l</text><text fill="#231f20" font-family="Corben-Regular, Corben" font-size="12" transform="translate(480.2 499.1) rotate(76.6)">u</text><text fill="#231f20" font-family="Corben-Regular, Corben" font-size="12" transform="translate(481.8 506.1) rotate(80.4)">t</text><text fill="#231f20" font-family="Corben-Regular, Corben" font-size="12" transform="translate(482.5 510.1) rotate(83)">i</text><text fill="#231f20" font-family="Corben-Regular, Corben" font-size="12" transform="matrix(0.06, 1, -1, 0.06, 483, 513.77)">o</text><text fill="#231f20" font-family="Corben-Regular, Corben" font-size="12" transform="translate(483.5 520.1) rotate(90.9)">n</text><text fill="#231f20" font-family="Corben-Regular, Corben" font-size="12" transform="translate(483.2 529.5) rotate(95.7)">i</text><text fill="#231f20" font-family="Corben-Regular, Corben" font-size="12" transform="matrix(-0.15, 0.99, -0.99, -0.15, 482.83, 533.19)">s</text><text fill="#231f20" font-family="Corben-Regular, Corben" font-size="12" transform="translate(481.5 540.9) rotate(103.4)">i</text><text fill="#231f20" font-family="Corben-Regular, Corben" font-size="12" transform="matrix(-0.29, 0.96, -0.96, -0.29, 480.73, 544.48)">n</text><text fill="#231f20" font-family="Corben-Regular, Corben" font-size="12" transform="translate(477.8 553.5) rotate(113)">y</text><text fill="#231f20" font-family="Corben-Regular, Corben" font-size="12" transform="matrix(-0.46, 0.89, -0.89, -0.46, 475.38, 559.28)">o</text><text fill="#231f20" font-family="Corben-Regular, Corben" font-size="12" transform="translate(472.5 564.9) rotate(121.7)">u</text><text fill="#231f20" font-family="Corben-Regular, Corben" font-size="12" transform="translate(468.7 571) rotate(125.7)">r</text><text fill="#231f20" font-family="Corben-Regular, Corben" font-size="12" transform="matrix(-0.67, 0.74, -0.74, -0.67, 464.78, 576.65)">M</text><text fill="#231f20" font-family="Corben-Regular, Corben" font-size="12" transform="matrix(-0.74, 0.68, -0.68, -0.74, 456.84, 585.1)">i</text><text fill="#231f20" font-family="Corben-Regular, Corben" font-size="12" transform="translate(454.2 587.6) rotate(141.1)">n</text><text fill="#231f20" font-family="Corben-Regular, Corben" font-size="12" transform="matrix(-0.83, 0.56, -0.56, -0.83, 448.4, 592.3)">d</text><text fill="#231f20" font-family="Corben-Regular, Corben" font-size="12" transform="translate(428.2 603.4) rotate(161.2)">T</text><text fill="#231f20" font-family="Corben-Regular, Corben" font-size="12" transform="translate(421.7 605.7) rotate(165.9)">h</text><text fill="#231f20" font-family="Corben-Regular, Corben" font-size="12" transform="matrix(-0.99, 0.17, -0.17, -0.99, 414.6, 607.42)">e</text><text fill="#231f20" font-family="Corben-Regular, Corben" font-size="12" transform="translate(407.2 608.7) rotate(176.3)">R</text><text fill="#231f20" font-family="Corben-Regular, Corben" font-size="12" transform="matrix(-1, -0.02, 0.02, -1, 398.24, 609.21)">e</text><text fill="#231f20" font-family="Corben-Regular, Corben" font-size="12" transform="translate(392.7 609.1) rotate(-174.9)">v</text><text fill="#231f20" font-family="Corben-Regular, Corben" font-size="12" transform="matrix(-0.99, -0.16, 0.16, -0.99, 386, 608.54)">o</text><text fill="#231f20" font-family="Corben-Regular, Corben" font-size="12" transform="translate(379.8 607.5) rotate(-167.4)">l</text><text fill="#231f20" font-family="Corben-Regular, Corben" font-size="12" transform="translate(376.5 606.8) rotate(-163.9)">u</text><text fill="#231f20" font-family="Corben-Regular, Corben" font-size="12" transform="matrix(-0.94, -0.34, 0.34, -0.94, 369.68, 604.81)">t</text><text fill="#231f20" font-family="Corben-Regular, Corben" font-size="12" transform="matrix(-0.92, -0.38, 0.38, -0.92, 365.8, 603.41)">i</text><text fill="#231f20" font-family="Corben-Regular, Corben" font-size="12" transform="translate(362.4 602) rotate(-154.2)">o</text><text fill="#231f20" font-family="Corben-Regular, Corben" font-size="12" transform="translate(356.7 599.3) rotate(-149.7)">n</text><text fill="#231f20" font-family="Corben-Regular, Corben" font-size="12" transform="translate(348.6 594.4) rotate(-144.6)">i</text><text fill="#231f20" font-family="Corben-Regular, Corben" font-size="12" transform="matrix(-0.78, -0.62, 0.62, -0.78, 345.57, 592.31)">s</text><text fill="#231f20" font-family="Corben-Regular, Corben" font-size="12" transform="translate(339.5 587.4) rotate(-137.1)">i</text><text fill="#231f20" font-family="Corben-Regular, Corben" font-size="12" transform="translate(336.8 584.9) rotate(-133.4)">n</text><text fill="#231f20" font-family="Corben-Regular, Corben" font-size="12" transform="matrix(-0.61, -0.79, 0.79, -0.61, 330.39, 577.97)">y</text><text fill="#231f20" font-family="Corben-Regular, Corben" font-size="12" transform="translate(326.5 573) rotate(-123.4)">o</text><text fill="#231f20" font-family="Corben-Regular, Corben" font-size="12" transform="translate(323 567.7) rotate(-118.9)">u</text><text fill="#231f20" font-family="Corben-Regular, Corben" font-size="12" transform="translate(319.6 561.4) rotate(-114.9)">r</text><text fill="#231f20" font-family="Corben-Regular, Corben" font-size="12" transform="translate(316.6 555.2) rotate(-108.1)">M</text><text fill="#231f20" font-family="Corben-Regular, Corben" font-size="12" transform="matrix(-0.22, -0.97, 0.97, -0.22, 313.17, 544.13)">i</text><text fill="#231f20" font-family="Corben-Regular, Corben" font-size="12" transform="matrix(-0.16, -0.99, 0.99, -0.16, 312.28, 540.57)">n</text><text fill="#231f20" font-family="Corben-Regular, Corben" font-size="12" transform="translate(311.1 533.2) rotate(-94.6)">d</text><g id="recordLines"><circle cx="397" cy="522.7" r="230.8" fill="none" stroke="#25a9e0" stroke-miterlimit="10" stroke-width=".82"/><circle cx="397" cy="522.7" r="170.2" fill="none" stroke="#25a9e0" stroke-miterlimit="10" stroke-width=".82"/><circle cx="397" cy="522.7" r="160.2" fill="none" stroke="#25a9e0" stroke-miterlimit="10" stroke-width=".47"/><circle cx="397" cy="522.7" r="155.4" fill="none" stroke="#25a9e0" stroke-miterlimit="10" stroke-width=".47"/><circle cx="397" cy="522.7" r="150.7" fill="none" stroke="#25a9e0" stroke-miterlimit="10" stroke-width=".47"/><circle cx="397" cy="522.7" r="146.2" fill="none" stroke="#25a9e0" stroke-miterlimit="10" stroke-width=".82"/><circle cx="397" cy="522.7" r="285.7" fill="none" stroke="#25a9e0" stroke-miterlimit="10" stroke-width=".59"/><circle cx="397" cy="522.7" r="277.1" fill="none" stroke="#25a9e0" stroke-miterlimit="10" stroke-width=".59"/><circle cx="397" cy="522.7" r="268.8" fill="none" stroke="#25a9e0" stroke-miterlimit="10" stroke-width=".47"/><circle cx="397" cy="522.7" r="260.7" fill="none" stroke="#25a9e0" stroke-miterlimit="10" stroke-width=".82"/><circle cx="397" cy="522.7" r="252.9" fill="none" stroke="#25a9e0" stroke-miterlimit="10" stroke-width=".47"/><circle cx="397" cy="522.7" r="245.3" fill="none" stroke="#25a9e0" stroke-miterlimit="10" stroke-width=".47"/><circle cx="397" cy="522.7" r="238" fill="none" stroke="#25a9e0" stroke-miterlimit="10" stroke-width=".47"/><circle cx="397" cy="522.7" r="223.9" fill="none" stroke="#25a9e0" stroke-miterlimit="10" stroke-width=".47"/><circle cx="397" cy="522.7" r="217.2" fill="none" stroke="#25a9e0" stroke-miterlimit="10" stroke-width=".47"/><circle cx="397" cy="522.7" r="210.7" fill="none" stroke="#25a9e0" stroke-miterlimit="10" stroke-width=".47"/><circle cx="397" cy="522.7" r="204.4" fill="none" stroke="#25a9e0" stroke-miterlimit="10" stroke-width=".82"/><circle cx="397" cy="522.7" r="198.2" fill="none" stroke="#25a9e0" stroke-miterlimit="10" stroke-width=".47"/><circle cx="397" cy="522.7" r="192.3" fill="none" stroke="#25a9e0" stroke-miterlimit="10" stroke-width=".47"/><circle cx="397" cy="522.7" r="186.5" fill="none" stroke="#25a9e0" stroke-miterlimit="10" stroke-width=".82"/><circle cx="397" cy="522.7" r="180.9" fill="none" stroke="#25a9e0" stroke-miterlimit="10" stroke-width=".47"/><circle cx="397" cy="522.7" r="175.5" fill="none" stroke="#25a9e0" stroke-miterlimit="10" stroke-width=".47"/><circle cx="397" cy="522.7" r="165.1" fill="none" stroke="#25a9e0" stroke-miterlimit="10" stroke-width=".47"/><circle cx="397" cy="522.7" r="141.8" fill="none" stroke="#25a9e0" stroke-miterlimit="10" stroke-width=".47"/><circle cx="397" cy="522.7" r="137.5" fill="none" stroke="#25a9e0" stroke-miterlimit="10" stroke-width=".47"/><circle cx="397" cy="522.7" r="133.4" fill="none" stroke="#25a9e0" stroke-miterlimit="10" stroke-width=".47"/><circle cx="397" cy="522.7" r="129.4" fill="none" stroke="#25a9e0" stroke-miterlimit="10" stroke-width=".47"/><circle cx="397" cy="522.7" r="125.5" fill="none" stroke="#25a9e0" stroke-miterlimit="10" stroke-width=".47"/><circle cx="397" cy="522.7" r="121.8" fill="none" stroke="#25a9e0" stroke-miterlimit="10" stroke-width=".47"/><circle cx="397" cy="522.7" r="118.1" fill="none" stroke="#25a9e0" stroke-miterlimit="10" stroke-width=".47"/></g><circle cx="397" cy="522.7" r="104.6" fill="none" stroke="#00adee" stroke-miterlimit="10" stroke-width=".25"/></g></svg>