<svg xmlns="http://www.w3.org/2000/svg" xmlns:xlink="http://www.w3.org/1999/xlink" width="10in" height="7in" viewBox="0 0 720 504">
	<defs>
		<style>
			#upperLine {
			stroke-dasharray: 5;
			animation: dash 1000000000s linear;
			}
			
			#lowerLine {
			stroke-dasharray: 5;
			animation: dash 1000000000s linear;
			}
			
			@keyframes dash {
			to {
			stroke-dashoffset: 15000000000;
			}
			}
		</style>
	</defs>
	<g style="isolation:isolate">
		<g id="penguinsDistancing">
			<g id="yellowBackground">
				<rect width="720" height="504" fill="#ffea03" />
			</g>
			<path id="lowerLine" d="M69,443c55.36.39,92-14.05,115-27,35.84-20.18,41.33-38.29,87-69,19.6-13.18,51.75-34.43,97-47,20.45-5.68,93.16-24.84,169,5,36.58,14.39,54,32,78,44,48.69,24.35,72.4,27.79,105,28" fill="none" stroke="#000" stroke-miterlimit="10" stroke-width="2" />
			<path id="upperLine" d="M429,0c5,11,13,24,25,39,20.42,25.53,39.44,46.15,69,64,14.51,8.76,64.31,36.35,126,28,22.67-3.07,46.55-6,56-29,7-17,6-54-29-58-28.43-3.25-45.66,13.8-53,36-11.66,35.28,18.21,71.59,24,77,36.61,34.19,60,26,73,26" fill="none" stroke="#000" stroke-miterlimit="10" stroke-width="2" />
			<g id="lowerMask">
				<rect x="249" y="322" width="125" height="21" fill="#ffea03" />
			</g>
			<rect id="upperMask" x="605" y="145" width="62" height="18" fill="#ffea03" />
			<image id="penguinsAndText" width="2000" height="1400" transform="scale(0.36)" xlink:href="penguinsAndText.png" />
			<g id="grain" opacity="0.32" style="mix-blend-mode:multiply">
				<image width="792" height="576" transform="translate(-36 -36)" xlink:href="grainy.png" />
			</g>
		</g>
	</g>
</svg>
