<svg id="Layer_1" data-name="Layer 1" xmlns="http://www.w3.org/2000/svg" xmlns:xlink="http://www.w3.org/1999/xlink" width="7in" height="10in" viewBox="0 0 504 720"><rect x="-1.22" y="-0.78" width="504.89" height="720.89" fill="#29b8ef"/><g id="Lines"><path id="upper_line" data-name="upper line" d="M44.45,88.29c11.63-2.91,9.69-14.14.48-18.9-7.5-3.88-15.18-.59-16.48,0-14.22,6.66-14,22.21-4.84,32C44,121,76.63,102.73,76,80.05c-.7-19-24.23-26.54-26.17-27.14C25.4,45.72-.89,61.79.34,93.62c.71,56.23,64.63,64.82,98.88,64,37.92.35,44.79-5.9,96.94-18.42,86.58-18.9,146.12,2,168.18,82.88,21.82,80,117,169.93,193.88,120.21,33-21.33,26.23-66.55,13.57-96.94-16.42-39.42-61.56-51.48-99.36-35.38-55.74,23.75-19.06,69.91,2.91,72.7,26.66,3.39,38.25-11.77,38.77-27.14.28-8.25,2.43-18.9-14.54-21.33-25.43-3.63-19,24-7.27,25.69" fill="none" stroke="#f5fafb" stroke-miterlimit="10" stroke-width="2"/><path id="lower_line" data-name="lower line" d="M-23.89,210.92c20.59,2.19,42.11,6.35,66.88,26.17,29.09,23.27,34.23,48.67,54.29,86.28,15.51,29.08,28.63,52.42,55.25,75.61,45.08,39.26,109,16.79,151.23,1,7.75-2.91,39.51-15.51,87.24-7.76,59.45,9.7,111.68,47.5,132.81,68.83" fill="none" stroke="#f5fafb" stroke-miterlimit="10" stroke-width="2"/></g><rect id="upperMask" x="30.78" y="121" width="69.33" height="52.44" fill="#29b8ef"/><rect id="lowerMask" x="321.44" y="273.89" width="117.33" height="30.22" fill="#29b8ef"/><image id="bearsAndText" width="1400" height="2000" transform="translate(-2.11 -0.28) scale(0.36 0.36)" xlink:href="../SVG%20render-%20polar%20bear/polarBearsAndTextPNG2.png"/></svg>