<svg xmlns="http://www.w3.org/2000/svg" xmlns:xlink="http://www.w3.org/1999/xlink" id="wearMasks" width="7in" height="960" viewBox="0 0 504 720"><defs><style>#lowerLine,#upperLine{stroke-dasharray:5;animation:dash 100s linear}</style></defs><rect id="blueBackground" width="527" height="742" x="-12" y="-4" fill="#00adf5"/><path id="upperLine" fill="none" stroke="#000" stroke-miterlimit="10" stroke-width="2" d="M32,74c12-3,10-14.59.5-19.5-7.74-4-15.66-.61-17,0C.83,61.37,1,77.41,10.5,87.5c21.05,20.28,54.7,1.4,54-22-.72-19.61-25-27.38-27-28-25.15-7.41-52.27,9.16-51,42,.73,58,66.67,66.87,102,66,39.12.36,46.21-6.09,100-19C277.82,107,339.24,128.55,362,212c22.5,82.5,120.73,175.29,200,124,34-22,27.06-68.65,14-100-16.94-40.66-63.51-53.11-102.5-36.5-57.5,24.5-19.66,72.12,3,75,27.5,3.5,39.46-12.14,40-28,.29-8.51,2.5-19.5-15-22-26.24-3.75-19.64,24.79-7.5,26.5"/><path id="lowerLine" fill="none" stroke="#000" stroke-miterlimit="10" stroke-width="2" d="M-38.5,200.5c21.24,2.26,43.44,6.55,69,27,30,24,35.31,50.21,56,89,16,30,29.54,54.08,57,78,46.5,40.5,112.49,17.32,156,1,8-3,40.76-16,90-8,61.33,10,115.21,49,137,71"/><rect id="maskUpper" width="132" height="62" x="25" y="113" fill="#00b1fa"/><rect id="maskLower" width="71" height="34" x="370" y="272" fill="#00b1fa"/><image id="polarBearsAndText" width="1400" height="2000" transform="translate(1 1) scale(0.36)" xlink:href="polarBearsAndTextPNG2.png"/></svg>