<svg xmlns="http://www.w3.org/2000/svg" xmlns:xlink="http://www.w3.org/1999/xlink" id="Layer_1" x="0" y="0" class="campfire" enable-background="new 0 0 256 384" version="1.1" viewBox="0 0 256 384" xml:space="preserve"><defs><style>.campfire{height:256px}.flames{opacity:0}</style></defs><g><g class="flames"><path id="flameRed" fill="#F76600" d="M103.98,230.48c-6.8-3.07-31.25-15.02-43.62-41.33c-11.3-24.03-5.59-45.3-3.43-52.07 c1.29,3.92,5.84,15.77,19.62,24.26c9.43,5.81,18.89,7.4,23.83,7.92c-3.49-6.19-8.07-15.32-11.83-26.83 c-4.15-12.7-7.25-22.2-5.87-33.97c0.74-6.29,3.52-19.74,17.1-34.41c0.68,10.66,2.55,23.8,7,38.44 c4.33,14.24,9.99,26.18,15.31,35.59c-1.31-7.69-2.26-19.57,1.46-33.22c4.44-16.3,12.52-24.04,19.15-36.69 c6-11.44,12.06-29.27,9.39-55.35c7.41,15.32,15.02,34.48,20.42,57.02c5.87,24.52,7.54,46.37,7.49,63.99 c4.68-2.39,10.27-6.01,14.93-11.5c12.15-14.29,11.16-28.74,10.91-30.71c-0.35-2.68,12.44,24.73,5.21,54.17 c-6.74,27.49-25.03,44.9-21.03,47.49c2.82,1.84,13.44-5.89,18.6-10.67c6.06-5.62,9.13-11.39,10.68-15 c-0.44,6.26-2.37,18.81-12.47,30.74c-13.54,15.98-33.07,20.58-44.48,23.27C136.8,237.63,114.85,233.36,103.98,230.48z"/><path id="flameOrange" fill="#F79900" d="M108.56,228.41c-5.6-2.54-25.75-12.42-35.95-34.18c-9.31-19.87-13.59-35.59-11.81-41.19 c2.33,3.44,13.79,11.17,25.14,18.19c7.77,4.8,15.57,6.12,19.64,6.55c-2.87-5.12-6.65-12.67-9.75-22.19 c-3.42-10.5-5.98-18.36-4.84-28.09c0.61-5.2,0.81-13.45,5.92-29.23c0.56,8.82,10.27,20.46,13.94,32.56 c3.57,11.77,8.23,21.65,12.61,29.43c-1.08-6.36-1.86-16.18,1.2-27.47c3.66-13.48,10.31-19.88,15.78-30.34 c4.94-9.46,18.23-27.29,16.03-48.85c6.11,12.67,4.08,31.6,8.53,50.24c4.84,20.28,6.21,38.34,6.17,52.92c3.85-1.98,7.5-6,12.3-9.51 c12.7-9.27,20.84-17.04,21.55-18.51c1.11-2.3,0.27,13.26-5.68,37.61c-5.56,22.73-23.21,37.43-19.92,39.58 c2.33,1.52,9.56,1.54,14.81-0.93c5.93-2.79,14.45-7.62,15.73-10.61c-1.21,5.3-5.52,7.73-13.85,17.59 c-11.15,13.21-30.09,15.15-39.49,17.38C135.6,234.32,117.51,230.79,108.56,228.41z"/><path id="flameYellow" fill="#F7CC00" d="M114.2,236.46c-4.64-2.23-21.34-10.88-29.8-29.89c-7.73-17.37-12.77-31.08-12.56-36.3 c2.36,2.57,14.17,10.07,23.58,16.22c6.44,4.2,12.9,5.36,16.27,5.74c-2.38-4.47-5.52-11.07-8.09-19.4c-2.84-9.18-3.8-16-4.03-24.55 c-0.13-4.76-1.84-12.12-0.95-27c0.47,7.71,7.97,27.38,10.77,32.33c4.27,7.56,13.4,17.12,17.11,23.32c-0.9-5.56-1.56-14.14,0.97-24 c3.02-11.77,8.52-17.36,13.04-26.5c4.08-8.26,13.75-18.98,11.91-37.82c1.99,12.89,4.73,22.76,8.43,39.06 c4.03,17.72,5.18,33.51,5.16,46.25c3.19-1.73,10.42-5.96,14.69-9.34c4.62-3.67,13.82-14.37,14.22-15.67 c0.74-2.41-4.07,25-7.72,33.67c-7.89,18.79-17.04,32.42-14.32,34.3c1.93,1.33,7.58-0.6,12.03-2.72c4.71-2.25,13.24-6.65,14.3-9.26 c-1.91,4.85-5.01,8.95-13.33,16.59c-10.88,9.99-24.07,13.9-31.85,15.84C136.6,241.65,121.62,238.55,114.2,236.46z"/><path id="flameWhite" fill="#F7DDEC" d="M127.53,237.32c-2.04-0.98-11.71-4.29-15.51-12.62c-2.11-4.62-2.81-8.14-4.15-11.69 c0.39,1.25,9.27,3.55,12,4.3c2.41,0.66,5.07,0.38,6.55,0.55c-1.05-1.97-2.43-4.87-3.56-8.53c-1.25-4.04-2.19-7.06-1.77-10.8 c0.22-2,1.05-6.27,5.12-10.93c0.21,3.39,0.77,7.57,2.12,12.22c1.31,4.53,3.01,8.33,4.61,11.32c-0.39-2.45-0.69-6.22,0.43-10.56 c1.33-5.18,3.75-7.64,5.74-11.66c1.8-3.64,3.61-9.3,2.8-17.59c2.23,4.87,4.52,10.97,6.15,18.13c1.77,7.8,2.28,14.74,2.27,20.35 c1.4-0.76,3.08-1.91,4.48-3.65c3.64-4.54,3.22-10.35,3.26-9.76c0.38,5.22,3.74,7.87,1.58,17.22c-2.02,8.74-7.12,13.88-6.3,15.09 c0.71,1.05,4.47-0.56,5.41-0.99c1.36-0.62,3.07-1.41,4.78-2.15c-1.48,1.81-3.72,3.63-5.14,4.75c-2.38,1.88-9.92,6.53-13.35,7.38 C137.39,239.6,130.8,238.23,127.53,237.32z"/></g><g id="logBack"><path fill="#652305" stroke="#231F20" stroke-miterlimit="10" stroke-width="1.486" d="M220.87,264.34 c0.05,14.24-5.33,26.25-12.75,29.93c-1.81,0.62-3.73,0.99-5.72,1.12c-0.49,0.05-0.98,0.06-1.49,0.06l-156.48,0.55 c-5.71,0.02-10.36-4.6-10.38-10.31l-0.15-41.39c-0.02-5.72,4.6-10.37,10.31-10.39l156.48-0.55c0.51,0,1,0.01,1.49,0.05 c1.99,0.11,3.91,0.48,5.73,1.08C215.36,238.13,220.82,250.12,220.87,264.34z"/><line x1="215.64" x2="183.85" y1="244.85" y2="243.95" fill="none" stroke="#231F20" stroke-miterlimit="10" stroke-width="1.486"/><line x1="219.88" x2="201.03" y1="264.85" y2="264.72" fill="none" stroke="#231F20" stroke-miterlimit="10" stroke-width="1.486"/><line x1="184.7" x2="210.88" y1="288.48" y2="288.98" fill="none" stroke="#231F20" stroke-miterlimit="10" stroke-width="1.486"/><ellipse cx="42.1" cy="265.47" fill="#A97C50" stroke="#231F20" stroke-dasharray="4.458 .297" stroke-miterlimit="10" stroke-width="1.486" rx="22.92" ry="31.04" transform="matrix(1 -3.507036e-03 3.507036e-03 1 -0.9308 0.1493)"/><line x1="63.83" x2="109.13" y1="255.65" y2="256.14" fill="none" stroke="#231F20" stroke-miterlimit="10" stroke-width="1.486"/><line x1="82.11" x2="60.22" y1="247.16" y2="246.53" fill="none" stroke="#231F20" stroke-miterlimit="10" stroke-width="1.486"/><line x1="114.26" x2="142.11" y1="283.99" y2="284.37" fill="none" stroke="#231F20" stroke-miterlimit="10" stroke-width="1.486"/><line x1="91.44" x2="173.99" y1="270.6" y2="270.42" fill="none" stroke="#231F20" stroke-miterlimit="10" stroke-width="1.486"/><ellipse cx="42.1" cy="265.47" fill="none" stroke="#231F20" stroke-miterlimit="10" stroke-width=".623" rx="18.73" ry="26.68" transform="matrix(1 -3.507036e-03 3.507036e-03 1 -0.9308 0.1493)"/><ellipse cx="42.1" cy="265.47" fill="none" stroke="#231F20" stroke-miterlimit="10" stroke-width=".44" rx="13.07" ry="19.11" transform="matrix(1 -3.507036e-03 3.507036e-03 1 -0.9308 0.1493)"/><ellipse cx="42.1" cy="265.47" fill="none" stroke="#231F20" stroke-miterlimit="10" stroke-width=".289" rx="8.59" ry="12.56" transform="matrix(1 -3.507036e-03 3.507036e-03 1 -0.9308 0.1493)"/></g><g id="logTop"><path fill="#652305" stroke="#231F20" stroke-miterlimit="10" stroke-width="1.163" d="M220.37,236.01 c0.04,11.14-4.17,20.54-9.97,23.42c-1.42,0.48-2.92,0.78-4.47,0.88c-0.38,0.04-0.77,0.05-1.16,0.05l-122.42,0.43 c-4.46,0.02-8.1-3.6-8.12-8.06l-0.11-32.38c-0.02-4.48,3.6-8.12,8.06-8.13l122.42-0.43c0.4,0,0.78,0.01,1.16,0.04 c1.56,0.09,3.06,0.37,4.48,0.84C216.05,215.5,220.33,224.88,220.37,236.01z"/><line x1="216.28" x2="191.41" y1="220.76" y2="220.05" fill="none" stroke="#231F20" stroke-miterlimit="10" stroke-width="1.163"/><line x1="219.59" x2="204.84" y1="236.4" y2="236.3" fill="none" stroke="#231F20" stroke-miterlimit="10" stroke-width="1.163"/><line x1="192.07" x2="212.55" y1="254.9" y2="255.28" fill="none" stroke="#231F20" stroke-miterlimit="10" stroke-width="1.163"/><ellipse cx="80.5" cy="236.89" fill="#A97C50" stroke="#231F20" stroke-dasharray="3.488 .233" stroke-miterlimit="10" stroke-width="1.163" rx="17.93" ry="24.29" transform="matrix(1 -3.507036e-03 3.507036e-03 1 -0.8303 0.2838)"/><line x1="97.5" x2="132.95" y1="229.21" y2="229.59" fill="none" stroke="#231F20" stroke-miterlimit="10" stroke-width="1.163"/><line x1="111.81" x2="94.68" y1="222.56" y2="222.08" fill="none" stroke="#231F20" stroke-miterlimit="10" stroke-width="1.163"/><line x1="136.96" x2="158.75" y1="251.38" y2="251.68" fill="none" stroke="#231F20" stroke-miterlimit="10" stroke-width="1.163"/><line x1="119.11" x2="183.69" y1="240.91" y2="240.76" fill="none" stroke="#231F20" stroke-miterlimit="10" stroke-width="1.163"/><ellipse cx="80.5" cy="236.89" fill="none" stroke="#231F20" stroke-miterlimit="10" stroke-width=".487" rx="14.65" ry="20.88" transform="matrix(1 -3.507036e-03 3.507036e-03 1 -0.8303 0.2838)"/><ellipse cx="80.5" cy="236.89" fill="none" stroke="#231F20" stroke-miterlimit="10" stroke-width=".344" rx="10.23" ry="14.95" transform="matrix(1 -3.507036e-03 3.507036e-03 1 -0.8303 0.2838)"/><ellipse cx="80.5" cy="236.89" fill="none" stroke="#231F20" stroke-miterlimit="10" stroke-width=".226" rx="6.72" ry="9.83" transform="matrix(1 -3.507036e-03 3.507036e-03 1 -0.8303 0.2838)"/></g><g id="logBottom"><path fill="#652305" stroke="#231F20" stroke-miterlimit="10" stroke-width="1.313" d="M244.82,287.4 c0.04,12.58-4.71,23.19-11.26,26.44c-1.6,0.54-3.29,0.88-5.05,0.99c-0.43,0.04-0.87,0.06-1.31,0.06l-138.22,0.48 c-5.04,0.02-9.15-4.06-9.17-9.1l-0.13-36.56c-0.02-5.05,4.06-9.16,9.1-9.18L227,260.04c0.45,0,0.88,0.01,1.31,0.05 c1.76,0.1,3.45,0.42,5.06,0.95C239.95,264.25,244.78,274.84,244.82,287.4z"/><line x1="240.2" x2="212.12" y1="270.18" y2="269.39" fill="none" stroke="#231F20" stroke-miterlimit="10" stroke-width="1.313"/><line x1="243.94" x2="227.29" y1="287.85" y2="287.73" fill="none" stroke="#231F20" stroke-miterlimit="10" stroke-width="1.313"/><line x1="212.87" x2="236" y1="308.73" y2="309.17" fill="none" stroke="#231F20" stroke-miterlimit="10" stroke-width="1.313"/><ellipse cx="86.91" cy="288.4" fill="#A97C50" stroke="#231F20" stroke-dasharray="3.938 .263" stroke-miterlimit="10" stroke-width="1.313" rx="20.25" ry="27.42" transform="matrix(1 -3.507036e-03 3.507036e-03 1 -1.0109 0.3066)"/><line x1="106.1" x2="146.12" y1="279.73" y2="280.15" fill="none" stroke="#231F20" stroke-miterlimit="10" stroke-width="1.313"/><line x1="122.25" x2="102.92" y1="272.22" y2="271.67" fill="none" stroke="#231F20" stroke-miterlimit="10" stroke-width="1.313"/><line x1="150.64" x2="175.25" y1="304.76" y2="305.1" fill="none" stroke="#231F20" stroke-miterlimit="10" stroke-width="1.313"/><line x1="130.49" x2="203.41" y1="292.93" y2="292.77" fill="none" stroke="#231F20" stroke-miterlimit="10" stroke-width="1.313"/><ellipse cx="86.91" cy="288.4" fill="none" stroke="#231F20" stroke-miterlimit="10" stroke-width=".55" rx="16.55" ry="23.57" transform="matrix(1 -3.507036e-03 3.507036e-03 1 -1.0109 0.3066)"/><ellipse cx="86.91" cy="288.4" fill="none" stroke="#231F20" stroke-miterlimit="10" stroke-width=".389" rx="11.55" ry="16.88" transform="matrix(1 -3.507036e-03 3.507036e-03 1 -1.0109 0.3066)"/><ellipse cx="86.91" cy="288.4" fill="none" stroke="#231F20" stroke-miterlimit="10" stroke-width=".256" rx="7.59" ry="11.09" transform="matrix(1 -3.507036e-03 3.507036e-03 1 -1.0109 0.3066)"/></g><g class="flames"><path id="sparkleLeft" fill="#F79900" d="M65.99,142.73c-1.64-2.36-4.47-7.13-5.33-13.82c-0.69-5.4,0.19-9.81,0.93-12.42 c1.55,2.1,4.14,6.17,5.24,11.95C68.06,134.92,66.79,140.19,65.99,142.73z"/><path id="sparkleMid" fill="#F79900" d="M185.76,110.42c-0.3-2.86-0.48-8.4,1.99-14.68c1.99-5.06,4.89-8.51,6.8-10.44 c0.35,2.59,0.65,7.41-1.16,13C191.34,104.58,187.68,108.58,185.76,110.42z"/><path id="sparkleRight" fill="#F79900" d="M217.29,202.04c-0.01-1.28,0.19-3.71,1.88-6.19c1.36-2,3.13-3.2,4.27-3.85 c0.05,1.16-0.04,3.3-1.33,5.55C220.65,200.07,218.44,201.44,217.29,202.04z"/></g></g></svg>