<svg id="Layer_1" data-name="Layer 1" xmlns="http://www.w3.org/2000/svg" height="70px" width="50px"
    viewBox="0 0 72 108">
    <defs> </defs>
    <title>cardinal</title>
    <path id="back_wing"
        d="M52.47,86.69a11.51,11.51,0,0,1-5.92-7.11,11.6,11.6,0,0,0-1.93,2.67,11.84,11.84,0,0,0-1.33,5.48,19.6,19.6,0,0,1-1.48-11.26,5.2,5.2,0,0,0-2.67,1.63A5.13,5.13,0,0,0,38,80.77a8.87,8.87,0,0,1-1.33-4.45,8.65,8.65,0,0,1,.89-4,2.4,2.4,0,0,0-2.67.3,5.22,5.22,0,0,0-1.22,2,8,8,0,0,1-.26-4.11,6.27,6.27,0,0,1,1.19-2.82,23.73,23.73,0,0,0-3.87-.93.19.19,0,0,1-.16-.26c.17-.44.44-1.12.77-1.81a5.11,5.11,0,0,1,1.18-1.61.19.19,0,0,0-.13-.33c-.88.07-3.2-.22-3.4-.74-.32-.81.87-2.15.65-3-.16-.63-2.1-1.53-1.71-2.75a3.33,3.33,0,0,1,.92-1.42A8.85,8.85,0,0,1,32,53.21c4.53-1.55,8.8-.1,10.37.45,2.72,1,7.18,2.52,8.44,6.22.39,1.13.23,1.73-.13,3.56-.21,1-.48,2.39-.76,4.44a41.45,41.45,0,0,0-.59,9.18A23.45,23.45,0,0,0,52.47,86.69Z"
        fill="#983c18" stroke="#231f20" stroke-miterlimit="10" />
    <path id="beak"
        d="M61.11,57.41c.5,0,1,.67,1.26,1.08A4.23,4.23,0,0,1,63.08,60l-3.19-1.19,2.89,2.11a10.24,10.24,0,0,1-2.26,0A10,10,0,0,1,59,60.6C59.44,58.62,60.36,57.35,61.11,57.41Z"
        fill="#b64a22" stroke="#231f20" stroke-linejoin="round" />
    <path id="body"
        d="M58.79,54.8c-.56-.24-.77-.47-1-.37-.44.17-.52,1-.55,1.34-.11,1.14.41,1.35.33,2.27a3.58,3.58,0,0,1-1.28,2.23c-.7.6-1.07.46-1.55.94A2.5,2.5,0,0,0,54,62.82l-.15,0a12.58,12.58,0,0,1-3.18.45,18.59,18.59,0,0,1-3-.15A35.85,35.85,0,0,1,35.8,59.45a53.58,53.58,0,0,1-7-4.68,4,4,0,0,0-1.22-.54l-19.23.94a2.48,2.48,0,0,1-1.88-1c-.34-.51-.15-.86-.56-1.44-.53-.75-1.19-.67-1.28-1.17s.66-.7.78-1.5S4.75,48.73,5,48.29s1.16,0,1.67-.62,0-.94.39-1.27c.61-.59,2.21.54,2.77-.06.26-.27.07-.63.39-.89a1.28,1.28,0,0,1,1.11-.05,14.1,14.1,0,0,1,4.06,1.72c1.17.85,7.75,2.37,7.52,2.11a47.4,47.4,0,0,1,10.89-.67,39.25,39.25,0,0,1,10.66,1.89,37.16,37.16,0,0,1,6.09,2.64c-.1-.27-.19-.54-.28-.8a13.23,13.23,0,0,1,8.36,2.38Z"
        fill="#b64a22" stroke="#231f20" stroke-linejoin="round" />
    <path id="black"
        d="M61,57a10.21,10.21,0,0,1-2.85,3.78,10.54,10.54,0,0,1-4.15,2,2.5,2.5,0,0,1,.67-1.61c.48-.48.85-.34,1.55-.94A3.58,3.58,0,0,0,57.52,58c.08-.92-.44-1.13-.33-2.27,0-.35.11-1.17.55-1.34.28-.1.49.13,1,.37h0A11.88,11.88,0,0,1,61,57Z"
        fill="#231f20" stroke="#231f20" stroke-miterlimit="10" />
    <path id="front_wing"
        d="M54.71,59.64c.6,1.75-.1,2.25-.89,8a42.06,42.06,0,0,0-.59,9.18,23.45,23.45,0,0,0,3.11,9.63,11.51,11.51,0,0,1-5.92-7.11A11.6,11.6,0,0,0,48.49,82a11.84,11.84,0,0,0-1.33,5.48,19.6,19.6,0,0,1-1.48-11.26A5.2,5.2,0,0,0,43,77.86a5.13,5.13,0,0,0-1.19,2.67,8.87,8.87,0,0,1-1.33-4.45,8.65,8.65,0,0,1,.89-4,2.4,2.4,0,0,0-2.67.3,5.22,5.22,0,0,0-1.22,2,8.12,8.12,0,0,1-.26-4.11,6.27,6.27,0,0,1,1.19-2.82,23.73,23.73,0,0,0-3.87-.93.19.19,0,0,1-.16-.26c.17-.44.44-1.12.77-1.81a5.11,5.11,0,0,1,1.18-1.61.19.19,0,0,0-.13-.33c-.88.07-3.19-.22-3.4-.74-.32-.81.87-2.15.65-3-.16-.63-2.1-1.53-1.71-2.75.62-1.9,2.9-2.68,4.15-3.11,4.53-1.55,8.8-.1,10.37.45C49,54.37,53.45,55.94,54.71,59.64Z"
        fill="#983c18" stroke="#231f20" stroke-miterlimit="10" />
</svg>
