<svg id="Layer_1" data-name="Layer 1" xmlns="http://www.w3.org/2000/svg" width="70px" height="50px"
    viewBox="0 0 72 108">
    <title>cardinal_flap_down</title>
    <path id="upBackWing"
        d="M56.18,22.73a11.51,11.51,0,0,0-5.92,7.11,11.6,11.6,0,0,1-1.93-2.67A11.84,11.84,0,0,1,47,21.69,19.6,19.6,0,0,0,45.52,33a5.2,5.2,0,0,1-2.67-1.63,5.13,5.13,0,0,1-1.19-2.67,8.87,8.87,0,0,0-1.33,4.45,8.65,8.65,0,0,0,.89,4,2.4,2.4,0,0,1-2.67-.3,5.22,5.22,0,0,1-1.22-2,8,8,0,0,0-.26,4.11,6.27,6.27,0,0,0,1.19,2.82,23.73,23.73,0,0,1-3.87.93.19.19,0,0,0-.16.26c.17.44.44,1.12.77,1.81a5.11,5.11,0,0,0,1.18,1.61.19.19,0,0,1-.13.33c-.88-.07-3.2.22-3.4.74-.32.81.87,2.15.65,3-.16.63-2.1,1.53-1.71,2.75a3.33,3.33,0,0,0,.92,1.42,8.85,8.85,0,0,0,3.23,1.69c4.53,1.55,8.8.1,10.37-.45,2.72-1,7.18-2.52,8.44-6.22.39-1.13.23-1.73-.13-3.56-.21-1-.48-2.39-.76-4.44a41.45,41.45,0,0,1-.59-9.18A23.45,23.45,0,0,1,56.18,22.73Z"
        fill="#983c18" stroke="#231f20" stroke-miterlimit="10" />
    <path id="upBeak"
        d="M63.27,56.91c.5,0,1,.67,1.26,1.08a4.12,4.12,0,0,1,.71,1.51l-3.19-1.18,2.89,2.11a11.63,11.63,0,0,1-2.26,0,11.32,11.32,0,0,1-1.55-.29C61.6,58.12,62.52,56.85,63.27,56.91Z"
        fill="#b64a22" stroke="#231f20" stroke-linejoin="round" />
    <path id="upBody"
        d="M61,54.3c-.56-.24-.77-.47-1.05-.37-.44.17-.52,1-.55,1.34-.11,1.14.41,1.35.33,2.27a3.58,3.58,0,0,1-1.28,2.23c-.7.6-1.07.46-1.55.94a2.5,2.5,0,0,0-.67,1.61l-.15,0a12.58,12.58,0,0,1-3.18.45,18.59,18.59,0,0,1-3-.15A35.85,35.85,0,0,1,38,59a54.6,54.6,0,0,1-7-4.68,4,4,0,0,0-1.22-.54l-19.23.94a2.48,2.48,0,0,1-1.88-1c-.34-.51-.15-.86-.56-1.44-.53-.75-1.19-.67-1.28-1.17s.66-.7.78-1.5-.64-1.33-.39-1.77,1.16,0,1.67-.62,0-.94.39-1.27c.61-.59,2.21.54,2.77-.06.26-.27.07-.63.39-.89a1.28,1.28,0,0,1,1.11-.05,14.1,14.1,0,0,1,4.06,1.72c1.17.85,7.75,2.37,7.52,2.11A47.4,47.4,0,0,1,36,48.06,39.25,39.25,0,0,1,46.62,50a37.16,37.16,0,0,1,6.09,2.64c-.1-.27-.19-.54-.28-.8a13.23,13.23,0,0,1,8.36,2.38Z"
        fill="#b64a22" stroke="#231f20" stroke-linejoin="round" />
    <path id="upBlack"
        d="M63.18,56.51a10.21,10.21,0,0,1-2.85,3.78,10.54,10.54,0,0,1-4.15,2,2.5,2.5,0,0,1,.67-1.61c.48-.48.85-.34,1.55-.94a3.58,3.58,0,0,0,1.28-2.23c.08-.92-.44-1.13-.33-2.27,0-.35.11-1.17.55-1.34.28-.1.49.13,1.05.37h0A11.88,11.88,0,0,1,63.18,56.51Z"
        fill="#231f20" stroke="#231f20" stroke-miterlimit="10" />
    <path id="upFrontWing"
        d="M56.48,57.05c1.21-1.4.75-2.13,2.18-7.75a42.07,42.07,0,0,1,2.9-8.74,23.44,23.44,0,0,1,6.5-7.75,11.58,11.58,0,0,0-4.74,1.43,11.79,11.79,0,0,0-3.42,2.93A11.4,11.4,0,0,1,59.11,34a11.9,11.9,0,0,1,.83-5.58,19.49,19.49,0,0,0-5.6,9.88,5.1,5.1,0,0,1-2-5.43,8.72,8.72,0,0,0-2.9,3.62,8.6,8.6,0,0,0-.68,4,2.38,2.38,0,0,1-2.36-1.28,5.15,5.15,0,0,1-.37-2.34,8,8,0,0,0-1.78,3.71,6.08,6.08,0,0,0,0,3,22.33,22.33,0,0,1-3.94-.59.19.19,0,0,0-.24.19c0,.47,0,1.2,0,2a5.2,5.2,0,0,0,.49,1.94.19.19,0,0,1-.25.25c-.78-.39-3-1-3.42-.59-.6.64,0,2.32-.51,3-.4.52-2.53.63-2.62,1.9-.15,2,1.68,3.58,2.67,4.44a15.83,15.83,0,0,0,9.78,3.48C49.2,59.78,53.93,60,56.48,57.05Z"
        fill="#983c18" stroke="#231f20" stroke-miterlimit="10" />
</svg>