<svg xmlns="http://www.w3.org/2000/svg" xmlns:xlink="http://www.w3.org/1999/xlink" id="Layer_1" width="816" height="816" data-name="Layer 1" viewBox="0 0 612 612"><defs><pattern id="Sandy3_2" width="39" height="39" data-name="Sandy3 2" patternTransform="translate(40.2 -30.41)" patternUnits="userSpaceOnUse" viewBox="0 0 39 39"><rect width="39" height="39" fill="none"/><rect width="39" height="39" fill="#c99c3d"/><path fill="#676868" d="M23.33,10.07a.75.75,0,0,0,0-1.5.75.75,0,0,0,0,1.5Z"/><path fill="#cbcbca" d="M10.81,17.65a.44.44,0,0,0,0-.87.44.44,0,0,0,0,.87Z"/><path fill="#818181" d="M12.35,36a.65.65,0,0,0,0-1.3.65.65,0,0,0,0,1.3Z"/><path fill="#655021" d="M6.57,6.26a.22.22,0,0,0,0-.43.22.22,0,0,0,0,.43Z"/></pattern><radialGradient id="radial-gradient" cx="205.34" cy="256.89" r="23.6" gradientUnits="userSpaceOnUse"><stop offset="0" stop-color="#d8d8d8"/><stop offset=".2" stop-color="#d5d3d1"/><stop offset=".48" stop-color="#cec5bf"/><stop offset=".81" stop-color="#c3aea0"/><stop offset="1" stop-color="#bb9e8b"/></radialGradient><radialGradient id="radial-gradient-2" cx="210.53" cy="256.89" r="10.86" gradientUnits="userSpaceOnUse"><stop offset="0" stop-color="#385883"/><stop offset="1" stop-color="#2c476b"/></radialGradient><radialGradient id="radial-gradient-3" cx="250.64" cy="548.45" r="110.18" gradientUnits="userSpaceOnUse"><stop offset=".17" stop-color="#ddbda7"/><stop offset="1" stop-color="#a75e3e"/></radialGradient><radialGradient id="radial-gradient-4" cx="197.56" cy="555.89" r="201.55" fx="185.582" xlink:href="#radial-gradient-3"/><radialGradient id="radial-gradient-5" cx="185.4" cy="528.49" r="100.45" fy="458.443" gradientUnits="userSpaceOnUse"><stop offset=".34" stop-color="#ddbda7"/><stop offset="1" stop-color="#a75e3e"/></radialGradient><linearGradient id="linear-gradient" x1="266.08" x2="328.22" y1="301.54" y2="301.54" gradientUnits="userSpaceOnUse"><stop offset=".04" stop-color="#b79b89" stop-opacity=".4"/><stop offset=".07" stop-color="#bea799" stop-opacity=".52"/><stop offset=".1" stop-color="#c5b4aa" stop-opacity=".65"/><stop offset=".13" stop-color="#cbbfb8" stop-opacity=".76"/><stop offset=".16" stop-color="#d0c8c4" stop-opacity=".85"/><stop offset=".2" stop-color="#d3cfcd" stop-opacity=".92"/><stop offset=".25" stop-color="#d6d4d3" stop-opacity=".96"/><stop offset=".31" stop-color="#d8d7d7" stop-opacity=".99"/><stop offset=".44" stop-color="#d8d8d8"/></linearGradient><radialGradient id="radial-gradient-6" cx="304.93" cy="301.48" r="12.11" xlink:href="#radial-gradient-2"/></defs><title>Beth_circle_fingerpoint</title><path fill="url(#Sandy3_2)" stroke="#543c2d" stroke-miterlimit="10" stroke-width="13" d="M597.14,314.85A291.49,291.49,0,0,1,512,521.16c-.43.43-.85.85-1.28,1.26a291.74,291.74,0,0,1-127.33,74.16A287.83,287.83,0,0,1,353,603.31a294.47,294.47,0,0,1-48.29,4q-11.79,0-23.36-.92a293.58,293.58,0,0,1-31.64-4.24l-2.83-.56a292.65,292.65,0,0,1-30.38-7.81q-8.61-2.73-17-6-9.48-3.66-18.64-7.94-2.81-1.32-5.58-2.69-4.28-2.11-8.48-4.37-11.06-5.91-21.54-12.74-7.91-5.16-15.45-10.81A292,292,0,0,1,12.27,314.85c0-161.51,130.93-292.43,292.44-292.43S597.14,153.34,597.14,314.85Z"/><path fill="#8b6b44" d="M287.66,464.23c-.42,18.37-9.4,42-17.19,61.11-5,12.24-9.5,22.63-11,28.56-.92,3.74-2,7.84-3.38,12.26l-.6,1.92A228,228,0,0,1,246.88,591a309.84,309.84,0,0,1-30.38-7.31c1.74-13.87,3.55-29.72,2.87-37.16a14.79,14.79,0,0,0-.23-1.74c-.28-1.49-.74-2.38-1.4-2.53s-1.38.46-2.25,1.71a22.59,22.59,0,0,0-1.18,1.95c-3.06,5.57-7.56,17.09-14.79,32.2q-9.48-3.43-18.64-7.43c.44-3.42.75-6.53.83-9.16.15-4.67-.41-7.83-2.19-8.46-2.19-.77-5.85,2.37-10.06,7.58-.86,1.05-1.74,2.2-2.64,3.43q-11.06-5.54-21.54-11.92c1.75-2.43,3.41-4.62,4.9-6.58a149.23,149.23,0,0,1,10.32-12.22q2-2.18,3.95-4c10.49-10.27,18-14.71,25.73-29.49.9-1.72,1.72-3.42,2.48-5.12a94.54,94.54,0,0,0,7.4-26.6,110.84,110.84,0,0,0,.79-18.18c28.72-10.86,69.72-14.79,75.55-11.37C284.93,443.57,287.92,452.9,287.66,464.23Z"/><path fill="#ddbda7" d="M331.34,325.43c-4.62-20.14-2.19-21.67-4.73-58.59q-.18-2.7-.41-5.67c-.92-12.15-2.34-27.73-4.58-48.18-2.72-24.76-4.4-36.22-5.19-57.43-.59-15.9-.44-30.9-1.79-55.87-5.3.18-10.24.48-14.69.79l-7,.53c-13.58,1.06-23.45,3.48-32.26,8,0,0-5.13,3-7.68,4.69-.48.34-.94.69-1.41,1l-.05,0c-14.8,11.09-22.38,26.07-24.24,29.75-5.17,10.22-4.42,14-11.67,25.84-5.61,9.14-8.53,13.91-14.59,19-6.43,5.46-10.28,6.16-11.67,10.88-.05.17-.09.32-.13.48h0a13.8,13.8,0,0,0-.35,1.92,17.52,17.52,0,0,0-.14,2.06,27.6,27.6,0,0,0,.21,4.09,45.6,45.6,0,0,0,1.64,7.78,2.91,2.91,0,0,1,.15.92c0,.95,0,1.89,0,2.84a33.81,33.81,0,0,1,1,10.62h0l-.67,4.66,0,.22-.06.42-.34,1.06-1.11,3.42-.1.3-.3.52c-.3.51-.64,1.06-1,1.65a65.78,65.78,0,0,1-9,10.63c-13.5,13.37-9.11,10.66-15.93,21.2-6.06,9.38-5.72,18.93-5.83,24.48-.22,10.4,3.26,19.77,10.21,38.08,5.73,15.09,6.93,15.33,10.22,25.85,1.59,5.12,2.92,9.36,3.9,13.21a53.43,53.43,0,0,1,2,15.35c0,.45,0,.9-.05,1.36-.76,14.41-6.8,15.2-8.76,31.29-1,8.48-2.63,21.62,5.84,32.64,6,7.82,14.57,11.3,19.45,12.86,1,.32,1.8.56,2.43.74,5.59,1.6,9,1.5,36.47,0,14.38-.78,21.6-1.18,23.34-1.36a244.92,244.92,0,0,0,25.36-3.53,112.7,112.7,0,0,0,12.57-3.27c13.7-4.48,21.89-10.72,36.46-21.76l21.55-16.31L373,413.64C356.92,380.84,341.29,368.74,331.34,325.43Z"/><path fill="#765a37" d="M301.16,129.7c-6.16-5.33-13.9-16.51-20.64-18.14-12.1-2.94-21.56-.91-29.61,3.55-.85.46-1.68,1-2.51,1.47-1.57,1-3.08,2-4.51,3.12a66.84,66.84,0,0,1-11.34-25.35c-2-9.15-6.5-28.06,4.74-42.07,1.6-2,7.81-9.73,18.37-11.82,19.12-3.77,34.27,14.52,35,15.38a28.34,28.34,0,0,1,5.74,11.86c1.75,6.9,2.78,17.3,3.74,35.54C300.15,104.16,301.12,128.81,301.16,129.7Z"/><path fill="#815e3f" d="M272.4,244.5s-4.17,3.25-4.88,13.34c2.72.4,6.89.94,12,1.33,8.8.67,14,.38,17.77.44,19.54.32,32.46,10.27,33.78,8C332,266,326,260.39,320.4,257c-3.86-2.38-9.67-4.07-24.44-6.45-6.61-1.06-8.95-1-13.78-2A29.45,29.45,0,0,1,272.4,244.5Z"/><path fill="url(#radial-gradient)" d="M221.87,269.65c-.77.36-2.48-1.1-3.78-2.22-.24-.21-.43-.38-.59-.54a11.29,11.29,0,0,0-4.3-2.79,20.31,20.31,0,0,0-6.66-1.11,17,17,0,0,1-5.95-1.47,34.1,34.1,0,0,1-6.28-3.87c-2.59-1.89-5-3.69-5.77-6.88a9.55,9.55,0,0,1,0-4.45,11.34,11.34,0,0,1,2.28-1.37l.09,0a8.34,8.34,0,0,1,1-.38,10,10,0,0,1,4.11-.41h.15a22.92,22.92,0,0,1,5.52,1.3,37.8,37.8,0,0,1,3.61,1.46c.32.14.66.31,1,.49l.08,0c.8.42,1.67.9,2.57,1.45.51.33,1,.67,1.57,1,.81.57,1.64,1.21,2.47,1.91.57.5,1.14,1,1.71,1.58a33.33,33.33,0,0,1,6.74,9.53c.09.17.17.34.24.5C221.91,264.46,223,269.11,221.87,269.65Z"/><path fill="#815e3f" d="M217.44,224.5c-.39,2.57-.79,5.14-1.18,7.71a45.07,45.07,0,0,1-8.89-5,44.29,44.29,0,0,1-8.89-8.59c-3.32-4.29-2.92-5.2-5.41-7.19-3.16-2.52-5.88-3.62-9-3.07.59-1.78,4.24-4.45,6.73-3.37,2.77,1.19,4.34,2.45,7.71,5,6.4,4.91,3.24,1.05,10.59,6.74C211.16,218.34,214.07,221.82,217.44,224.5Z"/><path fill="url(#radial-gradient-2)" d="M217.65,256.77a33.24,33.24,0,0,0-3-3.37c-.57-.56-1.14-1.08-1.71-1.58l-.28-.23c-.64-.53-1.27-1-1.9-1.47l-.29-.21c-.53-.38-1.06-.72-1.57-1s-.74-.44-1.1-.64-1-.56-1.47-.81a1.91,1.91,0,0,1-.1-.27c0-.06,0-.11,0-.14a.59.59,0,0,0,0,.14c0,.08,0,.16,0,.24l-.39-.2h0l-.61-.29-.21.14c-.17.1-.34.22-.51.34a11.68,11.68,0,0,0-4.89,9.52,11.89,11.89,0,0,0,.94,4.63,17,17,0,0,0,5.95,1.47,20.31,20.31,0,0,1,6.66,1.11,11.29,11.29,0,0,1,4.3,2.79,11.58,11.58,0,0,0,3.91-4A33.38,33.38,0,0,0,217.65,256.77Z"/><path fill="#d4a48c" d="M240.25,336.67a24.91,24.91,0,0,1,6.16,12.11,24.1,24.1,0,0,1,.1,6.89,10.81,10.81,0,0,1-1,3.36,8.85,8.85,0,0,1-2.2,2.77,12.74,12.74,0,0,1-6.38,2.77,19.39,19.39,0,0,1-7-.19,14.87,14.87,0,0,1-3.34-1.1,21.64,21.64,0,0,1-3.1-1.6c-2-1.21-3.67-2.87-5.5-4a13.41,13.41,0,0,0-3-1.35,14.33,14.33,0,0,0-1.56-.4c-.53-.08-1.07-.11-1.63-.14-2.22-.05-4.5.08-6.77.18s-4.54.22-6.81.37-4.51.35-6.83.48a10.62,10.62,0,0,1-3.61-.33,16.06,16.06,0,0,1-3.31-1.38,19.35,19.35,0,0,1-5.44-4.53,26.18,26.18,0,0,1-5.78-12.7,21.56,21.56,0,0,1,0-7.08,13.79,13.79,0,0,1,2.94-6.58c1.51-1.81,3.15-3.38,4.67-5.05s3-3.37,4.44-5.1a30.66,30.66,0,0,0,2-2.67,24.17,24.17,0,0,0,1.59-2.91,44.19,44.19,0,0,1,3.67-5.91c2.71-3.75,5.71-7.19,8.65-10.67,1.47-1.73,3-3.48,4.51-5.17s3.17-3.34,4.8-4.93,3.26-3.16,4.78-4.8a49.12,49.12,0,0,0,4.18-5.23,55.18,55.18,0,0,0,3.59-5.67,21.51,21.51,0,0,0,2.36-6.13,18.4,18.4,0,0,0,.11-6.58,22.15,22.15,0,0,0-2.16-6.36l.15-.1a18.92,18.92,0,0,1,3.25,13.27,22.52,22.52,0,0,1-2.2,6.68,56.49,56.49,0,0,1-3.54,6,46.94,46.94,0,0,1-4.28,5.48c-1.55,1.73-3.23,3.31-4.85,4.89s-3.21,3.18-4.75,4.83-3,3.37-4.48,5.11c-3,3.46-6,6.89-8.59,10.51a43.93,43.93,0,0,0-3.55,5.66,25.45,25.45,0,0,1-1.69,3.08c-.66,1-1.37,1.91-2.1,2.81-1.47,1.78-3,3.49-4.54,5.18s-3.21,3.27-4.62,4.95a11.93,11.93,0,0,0-2.58,5.74,19.76,19.76,0,0,0,0,6.51,24.93,24.93,0,0,0,5.31,11.91,17.71,17.71,0,0,0,5,4.23,14.6,14.6,0,0,0,3,1.27,9.09,9.09,0,0,0,3.15.31c2.23-.09,4.52-.28,6.8-.4s4.56-.21,6.83-.3,4.56-.19,6.88-.1a15.52,15.52,0,0,1,1.78.17,15.26,15.26,0,0,1,1.74.46,14.57,14.57,0,0,1,3.22,1.52c2,1.31,3.56,2.93,5.46,4.09a22.35,22.35,0,0,0,2.94,1.57,14,14,0,0,0,3.11,1.09,18.43,18.43,0,0,0,6.62.31,12.07,12.07,0,0,0,6-2.47,8.48,8.48,0,0,0,2.07-2.51,10.26,10.26,0,0,0,1-3.14,23.64,23.64,0,0,0,0-6.72,24.84,24.84,0,0,0-5.8-12.07Z"/><path fill="#754d29" d="M214.31,251.61a29.24,29.24,0,0,0-8.84-7.08l-.31-.15-.45-.21a23,23,0,0,0-2.54-1,1.14,1.14,0,0,1-.11-.11,6.48,6.48,0,0,1-1.29-2,6,6,0,0,0,.57,1.85l-.2-.06h0a6.22,6.22,0,0,1-2.66-5.76,6.22,6.22,0,0,0-.23,2.89,5.83,5.83,0,0,0,.86,2.36c-.57-.12-1.14-.23-1.71-.32h0c-.23-.23-.45-.47-.67-.7a12.28,12.28,0,0,1-1.5-2.23A12.1,12.1,0,0,1,194,235.8a3.38,3.38,0,0,1-.09-.41c0,.12,0,.25,0,.41a7.6,7.6,0,0,0,.27,2.81,12.34,12.34,0,0,0,1.42,3c-.64,0-1.33-.07-2-.12a16.61,16.61,0,0,1-1.94-3.58,10.34,10.34,0,0,1-.6-2,1.55,1.55,0,0,1,0-.21,9.25,9.25,0,0,1-.14-1.14,8.47,8.47,0,0,0-.26,1.39,7.61,7.61,0,0,0,0,1.45,6.25,6.25,0,0,0,.07.72,16.09,16.09,0,0,0,1.13,3.29c-.64.08-.89,0-1.54.13-.21-.18-.47-.43-.77-.72a20.53,20.53,0,0,1-3.1-3.92,15.75,15.75,0,0,1-1-2.28,9,9,0,0,0,.73,3.22,11.77,11.77,0,0,0,3,3.8,23.52,23.52,0,0,1-4.21-2.76c-.38-.29-.75-.61-1.1-.93a18.48,18.48,0,0,1-2.72-3.11,12.53,12.53,0,0,0,3.22,4.95l.36.32a14.3,14.3,0,0,0,3.23,2.06,14.48,14.48,0,0,1-3.49-1c-.27-.11-.55-.24-.82-.37a14.52,14.52,0,0,1-3.39-2.45,20.9,20.9,0,0,1-4.72-6.72,15.51,15.51,0,0,0,6.11,8.94,16.26,16.26,0,0,0,2.54,1.48,16.08,16.08,0,0,0,3.41,1.14l.13-.09.25.25.16-.05.24-.07a.16.16,0,0,1,.09,0,17.69,17.69,0,0,1,2.79-.63,16.62,16.62,0,0,1,2.28-.16h.15a32,32,0,0,1,5,.55c.59.1,1.16.21,1.66.32.65.13,1.19.25,1.56.35h0a3.47,3.47,0,0,0,1.44,1.22,2.16,2.16,0,0,0,.89.19,2.12,2.12,0,0,0,.87-.2c.13,0,.25.12.38.18l.11.05a13.51,13.51,0,0,1,1.54.86l.3.18.2.13.17.1.17.11h0a5.32,5.32,0,0,1-1.1.56,5.62,5.62,0,0,1-.19-.61,3.29,3.29,0,0,0,.1.64l-.3.08-.11,0h0a1.45,1.45,0,0,1-.35,0h0a1.56,1.56,0,0,1-.82-.15l-.07,0a2.67,2.67,0,0,1-.7-.55,2.48,2.48,0,0,1-.49-.78,2.16,2.16,0,0,1-.14-.41c0,.13,0,.26.06.38a4.45,4.45,0,0,0,.19.65,3.55,3.55,0,0,0,.64,1.08,3,3,0,0,0,1.88,1.13,2.18,2.18,0,0,0,.72,0,5.63,5.63,0,0,0,1.59,2.1,4.57,4.57,0,0,0,3.05,1.11h.33l.57-.07a5.53,5.53,0,0,0,1.18-.37l-.16-.19Zm-3.91-1.53a4.18,4.18,0,0,1-2.15-.91,5.68,5.68,0,0,1-.76-.81l.33-.14.11-.05a7.55,7.55,0,0,0,1.25-.83h0l.09.06q.57.41,1.08.81l.38.29.12.09.44.35a4.15,4.15,0,0,1,.32.27c.32.25.62.51.89.75l0,0a.19.19,0,0,1,.07.06,7.94,7.94,0,0,1-1.82.07Z"/><path fill="none" stroke="#c3996b" stroke-miterlimit="10" stroke-width=".37" d="M189.73,236.06a24,24,0,0,1,10.52.74c1,.31,4.5,1.45,9.93,5.93a56.4,56.4,0,0,1,8.63,8.89c1.05,1.35,2.11,2.83,3.15,4.44"/><path fill="#754d29" d="M319.71,293.85a14.86,14.86,0,0,1-4.24.55,17,17,0,0,1-3.14-.42,12.08,12.08,0,0,1-1.45-.42,13,13,0,0,0,1.43,0,14,14,0,0,0,3-.41,12.44,12.44,0,0,0,5.24-2.85,18.09,18.09,0,0,1-3.93,1.46,28.16,28.16,0,0,1-4.3.68,20.77,20.77,0,0,1-2.29.05,12.59,12.59,0,0,0,2.27-.7,8.48,8.48,0,0,0,4.39-3.75,12.94,12.94,0,0,1-4.43,2.76,23.9,23.9,0,0,1-3.24,1c-.55-.38-.8-.47-1.35-.85a15.6,15.6,0,0,0,2.56-2.38,8.39,8.39,0,0,0,1.45-3.26,10.86,10.86,0,0,1-2.29,2.64,16.37,16.37,0,0,1-3.43,2.24c-.62-.27-1.26-.58-1.87-.84a12.15,12.15,0,0,0,2.7-2,7.31,7.31,0,0,0,1.7-2.75,12.6,12.6,0,0,1-2.87,2.64,12.82,12.82,0,0,1-2.41,1.26l-.93.3h0c-.57-.19-1.14-.37-1.72-.53a5.84,5.84,0,0,0,1.88-1.68,6.05,6.05,0,0,0,1.13-2.68,6.1,6.1,0,0,1-2.13,2.72,6.41,6.41,0,0,1-3,1.12,0,0,0,0,0,0,0l-.21-.05a5.73,5.73,0,0,0,1.38-1.36,6.23,6.23,0,0,1-2.11,1.15l-.15.05a24.57,24.57,0,0,0-3.31-.33l-.35,0a30.17,30.17,0,0,0-11.38,2c.22-.07.5-.14.83-.22l-.24.09a6.52,6.52,0,0,0,1.08,1,5,5,0,0,0,1.89.86,5.48,5.48,0,0,0,4.47-1.09,2.41,2.41,0,0,0,.64.38,3.42,3.42,0,0,0,3.21-.66,3.9,3.9,0,0,0,.82-.89,2.7,2.7,0,0,1-1.51.86h0a2.67,2.67,0,0,1-.5,0,1.58,1.58,0,0,1-.38,0h0a2.49,2.49,0,0,1-1.15-.7,5.56,5.56,0,0,0,.5-.67,6.08,6.08,0,0,1-.56.6,5.19,5.19,0,0,1-.75-1h0l.21,0h.2l.24,0,.36,0a12.36,12.36,0,0,1,1.81,0,.48.48,0,0,0,.12,0c.15,0,.29,0,.43,0a2.27,2.27,0,0,0,.71.59,2.44,2.44,0,0,0,1.15.27,3.71,3.71,0,0,0,1.64-.41h0c.38.09.93.25,1.59.44.51.14,1.08.32,1.67.51a24.8,24.8,0,0,1,6.95,3.19c.31.23.67.5,1.06.83l0,0a17,17,0,0,1,1.55,1.41c.09,0,.9.17,2,.34h.08a19.94,19.94,0,0,0,5,.21,16,16,0,0,0,7.3-2.82,15.12,15.12,0,0,0,2.43-2.18A20.91,20.91,0,0,1,319.71,293.85ZM290,289.66a5,5,0,0,1-1.07.35,4.07,4.07,0,0,1-2.18-.16h0a8.22,8.22,0,0,1-2.18-1.14l.09,0h0a11.84,11.84,0,0,1,1.16-.24l.42-.09.56-.1.16,0,.48-.08,1.36-.2h.13a6.67,6.67,0,0,0,1.05,1.69Z"/><circle cx="211.37" cy="256.89" r="4.59" fill="#454342"/><circle cx="207.7" cy="251.67" r="1.22" fill="#e6e7e7"/><circle cx="205.33" cy="252.67" r=".85" fill="#e6e7e7"/><path fill="none" stroke="#c3996b" stroke-miterlimit="10" stroke-width=".37" d="M271.52,281a38.08,38.08,0,0,1,10.22-4,38.88,38.88,0,0,1,15.11-.45c12,1.88,20.25,8.84,23.55,12"/><path fill="none" stroke="#c3996b" stroke-miterlimit="10" stroke-width=".37" d="M276.4,307.61a67.86,67.86,0,0,0,48,14.23"/><path fill="none" stroke="#c3996b" stroke-miterlimit="10" stroke-width=".37" d="M185.29,259.17a22.22,22.22,0,0,0,7.56,8A22.77,22.77,0,0,0,208,270.28"/><path fill="#bb806c" d="M183.68,367.61a.46.46,0,0,0-.89,0c-.37,1.82-.43,4.3-.87,6.75-1.42,7.88.75,13.62,1.29,16.28,1.36,6.56,6.36,9.6,8.64,11.53a35.82,35.82,0,0,0,16,7.77c3.33.66,6.66.51,13.32.23,5.81-.26,9.85-.46,14.9-2.06,3.4-1.08,3.75-1.68,7.22-2.74a42.47,42.47,0,0,1,12-1.83c-5.57-.33-12.64-3-21-5-5.48-1.35-9-3.59-13.16-4.65s-8.64-1.39-12.63-2.83c-5.5-2-8.8-4.77-11.56-6.74-4.71-3.36-7.28-5.28-8.24-6.57A31.87,31.87,0,0,1,183.68,367.61Z"/><path fill="#c98873" d="M175.58,354.17a28.9,28.9,0,0,1,4.59,3.21,30.28,30.28,0,0,1,3.85,4c4.12,5,3.45,6.36,6.23,9.25,2.26,2.35,4.61,3.47,7.77,5,3.66,1.73,4.84,1.58,8.67,3.15a50.58,50.58,0,0,1,8.67,4.74c5.77,3.63,5.1,2.3,21.55,10.61,0,0,7.9,4.1,14,6.88,1.05.48,4.39,1.39,4.39,1.39a17.82,17.82,0,0,0,7,.56c-.1.38-8.73,1.95-17.8-.71-5.32-1.56-5-1.85-12.67-4.29-7.29-2.33-8.75-2.44-16-4.73C209,391,205.54,390,203.36,388.92c-4.38-2.09-13.69-6.53-18.67-15.8-1.5-2.79-1.59-4.13-5.11-11.28C178,358.55,176.53,355.9,175.58,354.17Z"/><path fill="#be9274" d="M219.14,358.44c1.93,1.62,3.3,2.41,2.89,3.27-.26.54-3.2.66-3.9.56a17.94,17.94,0,0,1-5.41-1.93c-.55-.34-5.6-3.49-4.6-3.95C210.18,355.45,216.4,356.14,219.14,358.44Z" opacity=".6"/><path fill="#d1a98c" d="M263.52,269c-.39-.79-9.68,1.16-17.78,8-4.53,3.82-3.56,4.84-10.22,12-8,8.62-11.55,9.4-12,13.77-.55,5.21,3.87,9.65,6.22,12,3.48,3.5,10.23,8.16,12.89,6.23s-2.26-8.68-1.34-20.89a36.89,36.89,0,0,1,4.89-16.45C252.69,272.92,264,269.83,263.52,269Z" opacity=".6"/><path fill="url(#radial-gradient-3)" d="M209.45,509.6c1.41,1.71,3.93,1.93,8.13,3.37a22,22,0,0,0,8,1.56c7.27-.16,6.69.4,11.85,1a58.14,58.14,0,0,1,10.84,2.12c4.92,1.29,5.07,1.8,10.19,3.6,4.45,1.55,7,1.27,13.12,3.77,5,2,13.89,1.92,16.32,8.45.45,1.18,4,5.82,3.93,13.51-.14,10.22-.32,10.15,0,11.85.57,3.08,2,6.6,4.74,13.63,1.57,4,2.18,5.24,1.77,7.11-.95,4.36-6.25,6.48-7.11,6.82-6,2.39-13.39,0-18.37-3.85-8.24-6.44-11.28-10.92-17.18-21.42-3.2-5.7-6.84-5.93-11.22-8.08-5.63-2.77-11.9-3.07-22.22-4.54-8.09-1.16-9.62-.22-13.38-2.11-7.06-3.56-6.05-18-5.92-19.56A34,34,0,0,1,209.45,509.6Z"/><path fill="url(#radial-gradient-4)" d="M254.62,596.3a57.08,57.08,0,0,0,2.54-5.81c2-5,4.41-10.86,3.11-18.37,0-.11,0-.24-.07-.39a27.57,27.57,0,0,0-2-6.3h0a26.56,26.56,0,0,0-2.47-4.31l0,0a26.42,26.42,0,0,0-2.08-2.58,19.77,19.77,0,0,0-3.3-2.9h0l0,0c-3.95-2.75-9.73-4.58-21.83-7.59l-4.62-1.13-3.65-.87c-8.1-1.9-13.39-3-14.27-3.15l-.13,0-.45-.09c-25.58-5.08-29.44-4.38-33.77-9.1-.29-.32-.57-.64-.83-1s-.33-.42-.48-.63a17.39,17.39,0,0,1-1.11-1.68c-4-6.66-3.44-14-8-14.79-.67-.12-1.71-.14-4.42,1.73a47,47,0,0,0-3.88,3c-5.86,5-11.59,9.8-16.29,18.66a24.14,24.14,0,0,0-2.08,5q7.55,5.65,15.45,10.81,10.47,6.81,21.54,12.74,4.2,2.26,8.48,4.37,2.78,1.36,5.58,2.69,9.15,4.28,18.64,7.94,8.37,3.22,17,6a274.74,274.74,0,0,0,29.48,7.32Z"/><path fill="url(#radial-gradient-5)" d="M159.63,509.32a34,34,0,0,1,5.93-8.6,30.25,30.25,0,0,1,15.7-8.88c2.59-.53,8.47-1.74,14.82.88,3.27,1.36,6.13,4.36,11.85,10.38,4.85,5.09,6,7.27,6.22,9.77.08.82-6.8,7.17-8.89,5.34a33.11,33.11,0,0,1,2.67,11c.79,12.07-5.45,20.83-8,24.3-2.7,3.67-7,9.54-14.52,11.55-1.23.33-8.64,2.32-11.26-1.18a5.4,5.4,0,0,1-.89-3.56,11,11,0,0,1-5-2.67c-3.15-3-3.42-7-3.56-9.18a19.16,19.16,0,0,1,3-11.26,45.21,45.21,0,0,1-5-5.63c-3.22-4.27-5.63-7.46-5.93-11.85C156.42,516,157.81,513.08,159.63,509.32Z"/><path fill="#c59a7a" d="M171.56,528.49a17.35,17.35,0,0,0-3.81,3.61,19.81,19.81,0,0,0-1.78,2.73c-3,5.67-2.25,12.48-2.19,13,.28,2.23.72,5.7,3.16,8.27,1.25,1.31,3,2.37,3.41,1.93.51-.59-1.86-3.12-3.17-7.45a23.18,23.18,0,0,1-.73-9.1A25.47,25.47,0,0,1,171.56,528.49Z"/><path fill="#bc9780" d="M294.49,561.92c-1.95-3.81-4.32-5.59-7.55-5.78a7.51,7.51,0,0,0-5.63,2.37c-3.41,3.71-1.14,9.48-.89,10.08a11.33,11.33,0,0,0,2.07,3.26,25.78,25.78,0,0,1,18.08,10.07c.11-2.14-1.27-6.12-2.19-9.55A66,66,0,0,0,294.49,561.92Z"/><path fill="none" stroke="#c3996b" stroke-miterlimit="10" stroke-width=".5" d="M257.74,358.8A43.25,43.25,0,0,0,261.29,377a44.11,44.11,0,0,0,17.78,20"/><g opacity=".68"><image width="330" height="341" transform="translate(194.11 307.27) scale(0.24)" xlink:href="Beth_circle_fingerpoint1.png"/></g><path fill="url(#linear-gradient)" d="M328.19,308.57c-.39,2.49-5.07,3.65-7.11,4.15a28.85,28.85,0,0,1-12.38.2c-1-.17-2-.38-3-.64a55.27,55.27,0,0,1-10.91-3.86,51.91,51.91,0,0,1-8.05-4.73c-2.94-2.11-6.47-5.1-10.82-7.26a50.06,50.06,0,0,0-6.7-2.66c-.71-.33-2.44-.35-2.93-1.2a1.65,1.65,0,0,1,.3-1.92c.89-.77,3-.27,4.41.23,3.28,1.17,5.17.55,10.55-.38a69.86,69.86,0,0,1,12-.89,35.58,35.58,0,0,1,4.53.42,43.93,43.93,0,0,1,12.66,4,39,39,0,0,1,6.7,4.13c1.58,1.16,3.36,2.57,5.59,4.31C327.24,305.82,328.4,307.2,328.19,308.57Z"/><path fill="url(#radial-gradient-6)" d="M317.67,300.74a12.76,12.76,0,0,1-9,12.18c-1-.17-2-.38-3-.64a55.27,55.27,0,0,1-10.91-3.86A12.73,12.73,0,0,1,298.05,290a43.93,43.93,0,0,1,12.66,4,39,39,0,0,1,6.7,4.13A12.6,12.6,0,0,1,317.67,300.74Z"/><circle cx="304.93" cy="300.74" r="5.63" fill="#454342"/><circle cx="299.3" cy="295.11" r="1.68" fill="#e6e7e7"/><path fill="#8b6b44" d="M514.5,468.53c-1.29,15.91-2.52,31.12-4.06,46.39a302,302,0,0,1-162.17,81.86c15.68-24.21,27.19-45.34,29.09-76.08,1.31-21.05-3.39-38-12.8-72a305.35,305.35,0,0,0-10.9-32.67c-1.62-4-3.22-7.69-4.83-11.16-15.08-32.53-29.77-44.55-39.12-87.5-.43-1.94-.78-3.7-1.08-5.34-.62-3.23-1-6-1.3-8.63-.1-.95-.18-1.89-.27-2.83-.34-4.56-.4-9.19-.6-15.9v0c0-.3,0-.62,0-.93,0-.13,0-.26,0-.41,0-.36,0-.74,0-1.13,0-.21,0-.43,0-.66s0-.65,0-1c-.08-2.65-.2-5.59-.37-8.92-.26-5.71-.68-12.55-1.29-20.94-.2-2.6-.41-5.35-.65-8.27-.83-10.07-1.95-22.08-3.45-36.55-2.55-24.57-4.13-35.94-4.87-57-.35-9.93-.42-19.5-.75-31.4a.75.75,0,0,0,0-.15,2.72,2.72,0,0,0,0-.28c0-.21,0-.44,0-.66-.19-6.74-.46-14.23-.91-22.94,0-.76-.07-1.52-.12-2.3,0-.15,0-.29,0-.44-.05-1-.11-1.88-.16-2.79-.94-16.74-2-26.56-3.69-33.18a187,187,0,0,1,74.55,0c9.21,1.89,67.7,14.77,107.88,66.57,8.81,11.33,26,36.49,38.41,122.33C514.56,269.38,524.43,346.09,514.5,468.53Z"/></svg>