<svg xmlns="http://www.w3.org/2000/svg" xmlns:xlink="http://www.w3.org/1999/xlink" id="Layer_1" width="816" height="816" data-name="Layer 1" viewBox="0 0 612 612"><defs><pattern id="Sandy3_2" width="39" height="39" data-name="Sandy3 2" patternTransform="translate(40.199 -30.412)" patternUnits="userSpaceOnUse" viewBox="0 0 39 39"><rect width="39" height="39" fill="none"/><rect width="39" height="39" fill="#c99c3d"/><path fill="#676868" d="M23.328,10.067a.75.75,0,0,0,0-1.5.75.75,0,0,0,0,1.5Z"/><path fill="#cbcbca" d="M10.809,17.646a.433.433,0,0,0,0-.866.433.433,0,0,0,0,.866Z"/><path fill="#818181" d="M12.35,35.967a.65.65,0,0,0,0-1.3.65.65,0,0,0,0,1.3Z"/><path fill="#655021" d="M6.572,6.259a.217.217,0,0,0,0-.433.217.217,0,0,0,0,.433Z"/></pattern><radialGradient id="radial-gradient" cx="231.31" cy="260.96" r="9.886" gradientUnits="userSpaceOnUse"><stop offset="0" stop-color="#d8d8d8"/><stop offset=".198" stop-color="#d5d3d1"/><stop offset=".478" stop-color="#cec5bf"/><stop offset=".808" stop-color="#c2ada0"/><stop offset="1" stop-color="#b99d8b"/></radialGradient><linearGradient id="linear-gradient" x1="255.776" x2="274.854" y1="262.638" y2="267.132" gradientUnits="userSpaceOnUse"><stop offset=".157" stop-color="#d8d8d8"/><stop offset=".276" stop-color="#d7d6d6" stop-opacity=".983"/><stop offset=".41" stop-color="#d4d1cf" stop-opacity=".933"/><stop offset=".55" stop-color="#cfc8c4" stop-opacity=".85"/><stop offset=".695" stop-color="#c8bcb4" stop-opacity=".733"/><stop offset=".844" stop-color="#c0ada0" stop-opacity=".584"/><stop offset=".993" stop-color="#b59a88" stop-opacity=".403"/><stop offset=".996" stop-color="#b59a88" stop-opacity=".4"/></linearGradient><linearGradient id="linear-gradient-2" x1="341.737" x2="359.414" y1="260.943" y2="265.106" xlink:href="#linear-gradient"/></defs><title>Beth3_circle</title><path id="curve" fill="url(#Sandy3_2)" stroke="#543c2d" stroke-miterlimit="10" stroke-width="13" d="M601.824,305.642a292.142,292.142,0,0,1-292.43,292.43q-11.79,0-23.36-.92a290.541,290.541,0,0,1-106.05-29.2c-96.6-47.74-163.03-147.26-163.03-262.31,0-161.51,130.93-292.43,292.44-292.43S601.824,144.132,601.824,305.642Z"/><path fill="#dab9a3" d="M348,377.541c-.05.03-.11.07-.18.11-.1.06-.2.12-.3.19a7.578,7.578,0,0,0-.92.75,1.92,1.92,0,0,0-.15.14,6.352,6.352,0,0,0-.54.61,5.026,5.026,0,0,0-.74,1.33,17.276,17.276,0,0,0-3.61,2.3c-.21.18-.4.35-.6.53-.37.34-.7.68-1.01,1.02a14.687,14.687,0,0,0-1.12,1.33,7.658,7.658,0,0,0-2.91-1.19c-.08-.01-.21-.03-.37-.05a4.685,4.685,0,0,0-.59-.06,1.927,1.927,0,0,0-.24-.01,8.058,8.058,0,0,0-.96.03h-.01a5.828,5.828,0,0,0-.79.12,6.323,6.323,0,0,0-1.69.62q-.24.135-.48.3a6.589,6.589,0,0,0-.54.42,6.1,6.1,0,0,0-1.52,2.08c-.1.23-.18.44-.25.64l-.01.01a.762.762,0,0,0-.06.2c-.02.07-.04.13-.06.2-.01.04-.03.09-.04.13a1.766,1.766,0,0,0-.04.2.037.037,0,0,0-.01.03,1.8,1.8,0,0,0-.05.19,1.431,1.431,0,0,0-.11-.15,7.308,7.308,0,0,0-.53-.65,6.084,6.084,0,0,0-1.1-.92h-.02a3.72,3.72,0,0,0-1.64-.6,4.675,4.675,0,0,0-3.38,1.19q-.255.195-.51.42a2.622,2.622,0,0,0-.25.22c-.16.15-.32.29-.47.44-.08.08-.16.15-.24.23-.11.1-.22.21-.32.31a11.748,11.748,0,0,0-1.64,2.03c-.14.22-.26.43-.36.61a10.234,10.234,0,0,0-5.54-2.83c-.19-.03-.43-.07-.73-.1a3.028,3.028,0,0,0-.31-.02h-.07a1.148,1.148,0,0,0-.19-.01,9.224,9.224,0,0,0-1.46.04,8.016,8.016,0,0,0-3.35,1.13.442.442,0,0,0-.15.08.161.161,0,0,1-.07.04c-.03.02-.05.04-.07.05-.16.1-.31.21-.45.31a8.348,8.348,0,0,0-2.07,2.32,1.414,1.414,0,0,0-.18.37.689.689,0,0,1-.04.1v.01c-.01.03-.03.05-.03.07a.17.17,0,0,0-.01.07.235.235,0,0,0-.02.08,1.477,1.477,0,0,0-.21-.01c-.13,0-.27,0-.4.01h-.01a.333.333,0,0,0-.1,0,.014.014,0,0,0-.02,0,.615.615,0,0,0-.13-.01.86.86,0,0,0-.16.01h-.04a.448.448,0,0,0-.12.01c-.01-.01-.03,0-.05,0a.22.22,0,0,0-.08.01h-.08l-.25.04c.02-.22.03-.45.05-.68.01-.11.02-.21.03-.32s.01-.2.02-.3v-.03a1.446,1.446,0,0,0-.5-1.21,7.914,7.914,0,0,0-.82-.62v-.01c-.23-.15-.48-.32-.76-.49l-.01-.01a3.876,3.876,0,0,0-.31-.26c-.09-.07-.19-.14-.28-.2-.04-.03-.07-.06-.11-.09a1.768,1.768,0,0,0-.22-.16c-.04-.03-.09-.05-.13-.08s-.08-.05-.12-.07a.06.06,0,0,0-.04-.01c-.2-.12-.39-.23-.59-.33a8.551,8.551,0,0,0-1.16-.47c-.16-.05-.32-.1-.48-.14-.08-.02-.16-.04-.23-.05-.19-.04-.38-.07-.56-.1a7.019,7.019,0,0,0-.76-.08c-.1-.01-.2-.01-.3-.01a6.933,6.933,0,0,0-.92.01h-.07a4.685,4.685,0,0,0-.59.06c-.17.03-.33.05-.45.07a6.17,6.17,0,0,0-.77.16.471.471,0,0,0-.17.04c-.24.06-.47.13-.69.2-.09.03-.17.06-.25.09a7.561,7.561,0,0,0-.71.3c-.15.07-.29.14-.43.22a3.183,3.183,0,0,0-.4.23c-.08.04-.16.08-.24.13a1.213,1.213,0,0,1-.14.1c-.03.01-.05.03-.08.04-.01,0-.04,0-.05.02a.02.02,0,0,0-.02.02c-.16.08-.32.16-.47.25s-.28.16-.41.24-.25.16-.37.24l-.12.09a1.7,1.7,0,0,0-.22.15,1.48,1.48,0,0,1-.13.08c-.06-.12-.15-.25-.23-.39a11.177,11.177,0,0,0-1.08-1.43c-.15-.17-.31-.34-.48-.52q-.15-.165-.33-.33l-.06-.06c-1.15-1.09-2.48-2.34-4.12-2.51-.07,0-.12-.01-.19-.01h-.06a1.089,1.089,0,0,0-.19.01.22.22,0,0,0-.08.01,1.477,1.477,0,0,0-.21.01,3.832,3.832,0,0,0-1.65.59h-.02a5.269,5.269,0,0,0-.63.49h-.02s-.02,0-.02.01c-.02,0-.02.01-.03.02a1.726,1.726,0,0,0-.32.11,3.642,3.642,0,0,0-.39.23,2.313,2.313,0,0,0-.24.2,1.141,1.141,0,0,0-.11.11v.01h-.01a.593.593,0,0,0-.08.08,4.6,4.6,0,0,0-.16-.49,6.23,6.23,0,0,0-1.77-2.72,6.058,6.058,0,0,0-3.27-1.44,1.963,1.963,0,0,0-.41-.04,8.308,8.308,0,0,0-1.36.03,2.532,2.532,0,0,0-.32.04c-.05.01-.09.01-.13.02a.075.075,0,0,0-.05.01.277.277,0,0,0-.13.01,7.534,7.534,0,0,0-2.86,1.16v.02h-.03l-.02.01a12.185,12.185,0,0,0-1.12-1.33,3.008,3.008,0,0,0-.25-.26c-.23-.25-.48-.5-.76-.77-.19-.18-.39-.34-.59-.52a17.15,17.15,0,0,0-3.62-2.3,5.026,5.026,0,0,0-.74-1.33,5.492,5.492,0,0,0-.56-.63,5.968,5.968,0,0,0-.6-.54c1.18.14,2.62.32,4.26.57.09.01.2.03.3.04.24.04.47.07.71.11.54.1,1.1.18,1.69.3.68.12,1.34.25,1.97.39q.48.105.93.21c.3.06.6.14.89.21s.58.14.86.22c1.11.28,2.14.59,3.11.9.31.1.62.2.92.3.35.12.7.24,1.04.36,2.23.78,4.25,1.6,6.38,2.37.24.09.48.18.71.26,1.06.39,2.15.76,3.32,1.11.4.13.82.25,1.25.37.03.01.07.02.11.03,1.33.36,2.77.71,4.36,1.01.11.03.24.04.37.07a1.517,1.517,0,0,1,.21.03l.25.04c.31.04.67.08,1.04.14.13,0,.26.03.4.04.38.04.76.07,1.18.11a.564.564,0,0,0,.07.01c.21.02.43.05.65.06.33.03.69.06,1.05.08a2.466,2.466,0,0,0,.39.03c.22.03.44.04.68.06.35.02.71.05,1.07.08.23.01.47.03.7.05.47.05.93.07,1.36.1.22.02.43.03.64.04s.43.03.64.04.43.03.62.05c.14,0,.26.01.39.02.26.02.48.03.69.05.31.01.54.02.71.04s.26.01.26.01a62.042,62.042,0,0,0,6.78-.1c.54-.04,1.06-.08,1.57-.13q.42-.045.81-.09c.04,0,.1-.01.14-.01,1.77-.18,3.28-.43,4.56-.67,9.76-1.88,13.88-5.26,23.87-7.37h.01c.6-.14,1.19-.26,1.83-.37,1.81-.33,3.47-.59,4.9-.77C347.749,377.571,347.879,377.561,348,377.541Z"/><path fill="#dcbca7" d="M242.31,374.48c.1.06.2.11.29.16v-.01A2.7,2.7,0,0,1,242.31,374.48Zm21.55,20.89a.834.834,0,0,0-.12-.08c.13.1.26.2.4.3C264.05,395.51,263.95,395.44,263.86,395.37Zm97.08-18.55-.03.06c.01-.02.03-.04.04-.06Zm0,0-.03.06c.01-.02.03-.04.04-.06Zm-97.08,18.55a.834.834,0,0,0-.12-.08c.13.1.26.2.4.3C264.05,395.51,263.95,395.44,263.86,395.37Zm-21.55-20.89c.1.06.2.11.29.16v-.01A2.7,2.7,0,0,1,242.31,374.48Zm0,0c.1.06.2.11.29.16v-.01A2.7,2.7,0,0,1,242.31,374.48Zm21.55,20.89a.834.834,0,0,0-.12-.08c.13.1.26.2.4.3C264.05,395.51,263.95,395.44,263.86,395.37Zm97.08-18.55-.03.06c.01-.02.03-.04.04-.06Zm0,0-.03.06c.01-.02.03-.04.04-.06Zm-97.08,18.55a.834.834,0,0,0-.12-.08c.13.1.26.2.4.3C264.05,395.51,263.95,395.44,263.86,395.37Zm-21.55-20.89c.1.06.2.11.29.16v-.01A2.7,2.7,0,0,1,242.31,374.48Zm0,0c.1.06.2.11.29.16v-.01A2.7,2.7,0,0,1,242.31,374.48Zm21.55,20.89a.834.834,0,0,0-.12-.08c.13.1.26.2.4.3C264.05,395.51,263.95,395.44,263.86,395.37Zm97.08-18.55-.03.06c.01-.02.03-.04.04-.06Zm0,0-.03.06c.01-.02.03-.04.04-.06Zm-97.08,18.55a.834.834,0,0,0-.12-.08c.13.1.26.2.4.3C264.05,395.51,263.95,395.44,263.86,395.37Zm-21.55-20.89c.1.06.2.11.29.16v-.01A2.7,2.7,0,0,1,242.31,374.48Zm0,0c.1.06.2.11.29.16v-.01A2.7,2.7,0,0,1,242.31,374.48Zm21.55,20.89a.834.834,0,0,0-.12-.08c.13.1.26.2.4.3C264.05,395.51,263.95,395.44,263.86,395.37Zm97.08-18.55-.03.06c.01-.02.03-.04.04-.06Zm0,0-.03.06c.01-.02.03-.04.04-.06Zm-97.08,18.55a.834.834,0,0,0-.12-.08c.13.1.26.2.4.3C264.05,395.51,263.95,395.44,263.86,395.37Zm-21.55-20.89c.1.06.2.11.29.16v-.01A2.7,2.7,0,0,1,242.31,374.48Zm0,0c.1.06.2.11.29.16v-.01A2.7,2.7,0,0,1,242.31,374.48Zm21.55,20.89a.834.834,0,0,0-.12-.08c.13.1.26.2.4.3C264.05,395.51,263.95,395.44,263.86,395.37Zm97.08-18.55-.03.06c.01-.02.03-.04.04-.06Zm0,0-.03.06c.01-.02.03-.04.04-.06Zm-97.08,18.55a.834.834,0,0,0-.12-.08c.13.1.26.2.4.3C264.05,395.51,263.95,395.44,263.86,395.37Zm-21.55-20.89c.1.06.2.11.29.16v-.01A2.7,2.7,0,0,1,242.31,374.48Zm0,0c.1.06.2.11.29.16v-.01A2.7,2.7,0,0,1,242.31,374.48Zm21.55,20.89a.834.834,0,0,0-.12-.08c.13.1.26.2.4.3C264.05,395.51,263.95,395.44,263.86,395.37Zm97.08-18.55-.03.06c.01-.02.03-.04.04-.06Zm0,0-.03.06c.01-.02.03-.04.04-.06Zm-97.08,18.55a.834.834,0,0,0-.12-.08c.13.1.26.2.4.3C264.05,395.51,263.95,395.44,263.86,395.37Zm-21.55-20.89c.1.06.2.11.29.16v-.01A2.7,2.7,0,0,1,242.31,374.48Zm0,0c.1.06.2.11.29.16v-.01A2.7,2.7,0,0,1,242.31,374.48Zm21.55,20.89a.834.834,0,0,0-.12-.08c.13.1.26.2.4.3C264.05,395.51,263.95,395.44,263.86,395.37Zm97.08-18.55-.03.06c.01-.02.03-.04.04-.06Zm0,0-.03.06c.01-.02.03-.04.04-.06Zm-97.08,18.55a.834.834,0,0,0-.12-.08c.13.1.26.2.4.3C264.05,395.51,263.95,395.44,263.86,395.37Zm-21.55-20.89c.1.06.2.11.29.16v-.01A2.7,2.7,0,0,1,242.31,374.48Zm0,0c.1.06.2.11.29.16v-.01A2.7,2.7,0,0,1,242.31,374.48Zm21.55,20.89a.834.834,0,0,0-.12-.08c.13.1.26.2.4.3C264.05,395.51,263.95,395.44,263.86,395.37Zm97.08-18.55-.03.06c.01-.02.03-.04.04-.06Zm0,0-.03.06c.01-.02.03-.04.04-.06Zm-97.08,18.55a.834.834,0,0,0-.12-.08c.13.1.26.2.4.3C264.05,395.51,263.95,395.44,263.86,395.37Zm-21.55-20.89c.1.06.2.11.29.16v-.01A2.7,2.7,0,0,1,242.31,374.48Zm0,0c.1.06.2.11.29.16v-.01A2.7,2.7,0,0,1,242.31,374.48Zm21.55,20.89a.834.834,0,0,0-.12-.08c.13.1.26.2.4.3C264.05,395.51,263.95,395.44,263.86,395.37Zm97.08-18.55-.03.06c.01-.02.03-.04.04-.06Zm0,0-.03.06c.01-.02.03-.04.04-.06Zm-97.08,18.55a.834.834,0,0,0-.12-.08c.13.1.26.2.4.3C264.05,395.51,263.95,395.44,263.86,395.37Zm-21.55-20.89c.1.06.2.11.29.16v-.01A2.7,2.7,0,0,1,242.31,374.48Zm0,0c.1.06.2.11.29.16v-.01A2.7,2.7,0,0,1,242.31,374.48Zm21.55,20.89a.834.834,0,0,0-.12-.08c.13.1.26.2.4.3C264.05,395.51,263.95,395.44,263.86,395.37Zm97.08-18.55-.03.06c.01-.02.03-.04.04-.06Zm0,0-.03.06c.01-.02.03-.04.04-.06Zm-97.08,18.55a.834.834,0,0,0-.12-.08c.13.1.26.2.4.3C264.05,395.51,263.95,395.44,263.86,395.37Zm-21.55-20.89c.1.06.2.11.29.16v-.01A2.7,2.7,0,0,1,242.31,374.48Zm0,0c.1.06.2.11.29.16v-.01A2.7,2.7,0,0,1,242.31,374.48Zm21.55,20.89a.834.834,0,0,0-.12-.08c.13.1.26.2.4.3C264.05,395.51,263.95,395.44,263.86,395.37Zm97.08-18.55-.03.06c.01-.02.03-.04.04-.06Zm0,0-.03.06c.01-.02.03-.04.04-.06Zm-97.08,18.55a.834.834,0,0,0-.12-.08c.13.1.26.2.4.3C264.05,395.51,263.95,395.44,263.86,395.37Zm-21.55-20.89c.1.06.2.11.29.16v-.01A2.7,2.7,0,0,1,242.31,374.48Zm0,0c.1.06.2.11.29.16v-.01A2.7,2.7,0,0,1,242.31,374.48Zm21.55,20.89a.834.834,0,0,0-.12-.08c.13.1.26.2.4.3C264.05,395.51,263.95,395.44,263.86,395.37Zm97.08-18.55-.03.06c.01-.02.03-.04.04-.06Zm0,0-.03.06c.01-.02.03-.04.04-.06Zm-97.2,18.47c.13.1.26.2.4.3-.09-.08-.19-.15-.28-.22A.834.834,0,0,0,263.74,395.29ZM242.6,374.64v-.01a2.7,2.7,0,0,1-.29-.15C242.41,374.54,242.51,374.59,242.6,374.64Zm163.59,12.82c-.14-.39-.2-.59-.2-.59-5.2-14.01-8.22-18.8-12.7-31.62v-.01a1.169,1.169,0,0,1-.06-.2,243.582,243.582,0,0,1-8.23-30.5c-2.68-12.6-4.88-26.37-6.86-40.4q-.465-3.27-.9-6.55c-.46-3.31-.9-6.64-1.35-9.96-.09-.64-.16-1.28-.25-1.92v-.02q-.555-4.29-1.1-8.54c-.2-1.52-.4-3.04-.59-4.57-.04-.23-.07-.43-.1-.65-.03-.31-.06-.6-.11-.9-.29-2.26-.58-4.52-.87-6.76-.07-.52-.13-1.03-.21-1.54-.69-5.21-1.37-10.31-2.07-15.28q-.435-2.955-.86-5.82v-.01q-.435-2.865-.88-5.66-.5-3.06-.99-6c-.79-4.6-1.62-8.98-2.49-13.1v-.01q-.585-2.745-1.2-5.33a.055.055,0,0,0-.02-.05c-.02-.1-.05-.2-.07-.31a101.438,101.438,0,0,0-5.35-16.86c-.6-1.37-4.72-10.59-9.83-23.26-3.56-8.83-5.97-15.29-6.59-16.97-3.86-10.34-5.67-16.07-8.54-24.44-.55-1.6-1.15-3.31-1.76-5.07v-.01a.793.793,0,0,0-.04-.09v-.02a.488.488,0,0,1-.06-.13c-.02,0-.05-.02-.08-.02a.06.06,0,0,1-.04-.01c-.1-.03-.2-.05-.31-.08-.48-.11-.96-.21-1.48-.33l-.21-.04c-.69-.15-1.39-.3-2.1-.43-.05-.01-.1-.01-.16-.02a.632.632,0,0,0-.16-.03c-.1-.01-.26-.03-.47-.07-.12-.01-.25-.03-.39-.05s-.3-.04-.46-.07a2.645,2.645,0,0,1-.27-.02c-.46-.05-1.01-.13-1.6-.19-.05,0-.11-.02-.18-.02-.42-.06-.86-.1-1.34-.15-.4-.06-.83-.1-1.27-.14-.45-.06-.9-.1-1.38-.15-.83-.07-1.69-.15-2.6-.24a1.548,1.548,0,0,0-.21-.01c-4.68-.43-10.41-.78-15.94-.76h-.4c-.16,0-.31,0-.47.01-.38,0-.74,0-1.11.01-.82.02-1.65.05-2.45.08-.29.02-.58.03-.87.05h-.13c-1.17.07-2.33.16-3.41.29-.17.01-.34.04-.5.05-.28.03-.56.07-.83.11a208.042,208.042,0,0,1,70.74,86.28c.18.84.35,1.75.54,2.75l.01.01v.01c.01.01,0,.01,0,.03s0,.02,0,.03.01.03.02.03v.02c-.02.01.02.12.02.12a.977.977,0,0,0,.05.26c.03.02-.01.09.03.11a.838.838,0,0,0,.02.1,6.819,6.819,0,0,1,.17.74c1.04,5.08,2.01,10.06,2.87,15.18.14.82.27,1.63.4,2.46q-1.35.195-2.76.39a154.468,154.468,0,0,0-17.68,3.58,1.761,1.761,0,0,0-1.3,1.56c-.28,3.44-.54,6.88-.82,10.31a1.412,1.412,0,0,0,1.35,1.51,33.71,33.71,0,0,0,10.24-1.15c5.77-1.65,8.4-2.64,12.7-4.1.23,1.65.45,3.33.65,4.94.57,4.44,1.16,9.37,1.71,14.03.08.66.15,1.32.23,1.97.02.17.04.34.06.53.02.17.03.34.06.51.06.65.13,1.29.21,1.93a1.988,1.988,0,0,0,.02.22c.08.6.16,1.19.23,1.79.03.2.06.4.07.59a4.429,4.429,0,0,1,.06.51c.04.39.08.78.11,1.18a.417.417,0,0,0,.01.15,6.346,6.346,0,0,1,.06.65l-2.4.42a4.7,4.7,0,0,0,.21-2.86,3.065,3.065,0,0,0-.11-.36,4.778,4.778,0,0,0-1.74-2.32,9.919,9.919,0,0,1,.31,2.52v.16a9.729,9.729,0,0,1-.72,3.38c-.92.3-1.83.61-2.75.93-.2.05-.42.13-.63.2a5.045,5.045,0,0,0,.4-1.95,4.9,4.9,0,0,0-.15-1.19,5.716,5.716,0,0,0-1.49-2.61,10.39,10.39,0,0,1,.2,2.46c-.02.38-.06.76-.1,1.12a11.194,11.194,0,0,1-.72,2.58c-.84.47-1.7.92-2.56,1.39-.35.18-.68.38-1.03.56a5.76,5.76,0,0,0-.3-2.26,5.944,5.944,0,0,0-2.37-2.98,18.468,18.468,0,0,1,1.34,6.06c-.76.63-1.54,1.27-2.3,1.89a34.92,34.92,0,0,1,4.45-2.86v-.02a31.426,31.426,0,0,1,5.29-2.3,27.521,27.521,0,0,1,7.27-1.33c0,.06.02.13.03.22s.02.2.03.32c-.11-.01-.23-.01-.34-.01a24.178,24.178,0,0,0-2.53.08,27.288,27.288,0,0,0-10.17,4.02l-.01.01a32.24,32.24,0,0,0-3.03,2.08c-2.8,2.15-3.78,3.22-6.9,4.77-4.27,2.15-6.25,1.77-8.14,3.63-.92.89-.1,2.31,1.84,1.95a96.938,96.938,0,0,1,9.79-1.88,17.81,17.81,0,0,1,4.52.21c1.09.12,2.11.23,3.07.33h.01a59.314,59.314,0,0,0,13.24.22l.34-.03c.22,2.06.45,4.15.68,6.23.1.97.21,1.93.31,2.89.02.21.05.42.07.63.23,1.97.44,4.01.67,5.92,1.5,12.43,3.25,24.93,5.34,37.15.18,1.1.41,2.46.52,3.12,1.77,10.76,3.62,21.08,5.28,31.64a1.01,1.01,0,0,0,.05.22v.1c0,.08.05.26.07.38,1.4,8.8,4.01,30.45,5.54,43.44q-.09,11.955-.28,24.98c-.03,1.96-.05,3.93-.09,5.93.03-.05.06-.09.09-.14a205.26,205.26,0,0,0,12.18-23.92c.32-.73.68-1.57,1.03-2.47.14-.33.29-.68.44-1.03v-.02c.15-.36.29-.72.44-1.11.45-1.11.9-2.3,1.38-3.6.07-.24.17-.49.26-.73.09-.27.19-.53.29-.81a.176.176,0,0,1,.01-.06c.22-.61.43-1.24.66-1.89.03-.08.04-.15.07-.23a1.667,1.667,0,0,0,.08-.2c.06-.2.14-.41.2-.59h.01v-.02C407.3,390.58,406.54,388.43,406.19,387.46Zm-45.28-10.58c.01-.02.03-.04.04-.06h-.01Zm-38.25-26.64a18.352,18.352,0,0,1,4.24-1.88,3.38,3.38,0,0,1,.69-.1,2.315,2.315,0,0,0-.77.09A15.948,15.948,0,0,0,322.66,350.24Zm-11.45-68.8c-.5.02-.87,7.76-1.08,11.89-.29,6.1-.12,7.08-.3,15.99-.13,5.97.08,12.01-.16,17.94-.04,1-.08,2-.15,2.98-.11,1.66-.34,4.84.31,6.55.43,1.13,1.17,1.53,1.69.83.81-1.09.9-4.64.93-6.56.05-3.45.11-6.51.15-9.19.14-8.91.21-13.65.15-15C312.11,290.54,311.75,281.44,311.21,281.44Zm-29.28,68.74a11.9,11.9,0,0,0-4.01-1.75c-.49-.12-1.06-.11-1.31.36a4.332,4.332,0,0,0-.33,1.36c-.12.98-.07,2.01.33,1.7a.943.943,0,0,0,.1-.1c2.02-2.29,7.62.84,8.59,1.38C285.99,353.51,282.28,350.5,281.93,350.18Zm3.23,2.19a9.112,9.112,0,0,0-2.23-2.25A6.538,6.538,0,0,0,285.16,352.37ZM225.77,217.61c6.94-.37,12.11,1.22,17.44,2.87,10.14,3.13,11.85,4.14,20.33,6.57a34.321,34.321,0,0,0,10.24,1.15,1.4,1.4,0,0,0,1.34-1.51c-.26-3.44-.54-6.88-.82-10.31a1.76,1.76,0,0,0-1.3-1.57,152.175,152.175,0,0,0-17.68-3.57c-15.43-2.16-26.63-3.73-37.98,1.02a42.551,42.551,0,0,0-14.28,10.06c.11-.76.24-1.57.38-2.36.03-.16.06-.33.09-.49.06-.28.09-.5.17-.93.06-.42.2-1.13.31-1.69.27-1.42.58-3.02.88-4.44s.59-2.7.91-4.09c.05-.23.09-.43.15-.67.5-2.1,1.01-4.23,1.55-6.34.19-.71.37-1.43.56-2.14.36-1.37.73-2.71,1.1-4.07a.549.549,0,0,0,.05-.17c.16-.61.35-1.26.53-1.87.35-1.22.73-2.52,1.09-3.73-.08.25-.16.51-.24.77-.41,1.37-.82,2.76-1.24,4.19-.19.63-.37,1.25-.54,1.88a.406.406,0,0,0-.05.17c-.39,1.35-.76,2.72-1.14,4.08-.2.73-.39,1.47-.58,2.18q-.84,3.165-1.62,6.39c-.04.24-.1.44-.15.67-.32,1.37-.64,2.74-.93,4.12-.34,1.51-.64,3-.93,4.5-.12.58-.24,1.16-.34,1.73-.05.31-.1.62-.16.91-.12.65-.24,1.29-.34,1.93-.08.44-.14.89-.21,1.33-.12.72-.23,1.42-.32,2.12.17-.13.34-.25.52-.37a48.279,48.279,0,0,1,4.93-2.98A43.361,43.361,0,0,1,225.77,217.61Zm40.9,46.43c-3.12-1.55-4.1-2.62-6.9-4.77a35.995,35.995,0,0,0-3.03-2.09c.06.17.12.34.18.52-.06-.18-.13-.35-.19-.52a27.314,27.314,0,0,0-10.18-4.02,26.776,26.776,0,0,0-12.38,2.02l-.01.01c-1.67.66-3.2,1.39-4.65,2.09a45.255,45.255,0,0,0-9.64,6.15c2.02.43,5.1,1.09,8.82,2.05,1.97.51,3.55.91,4.82,1.25a45.879,45.879,0,0,0,8.43,1.73,58.766,58.766,0,0,0,13.64-.18,12.418,12.418,0,0,0,.83-1.52,11.666,11.666,0,0,1-.82,1.52c.95-.1,1.98-.21,3.07-.33a17.81,17.81,0,0,1,4.52-.21c4.35.45,6.97,1.37,9.79,1.88,1.94.36,2.76-1.07,1.85-1.95C272.92,265.81,270.94,266.19,266.67,264.04Zm-2.93,131.25c.13.1.26.2.4.3-.09-.08-.19-.15-.28-.22A.834.834,0,0,0,263.74,395.29Zm-28.45-141.7a26.642,26.642,0,0,1,6.23-1.04,26.992,26.992,0,0,1,9.49,1.33,31.19,31.19,0,0,1,5.3,2.3v.02a34.741,34.741,0,0,1,4.44,2.86c-.76-.62-1.53-1.26-2.3-1.89a19.787,19.787,0,0,1,.52-3.5,16.4,16.4,0,0,1,.83-2.56,5.767,5.767,0,0,0-2.68,5.24c-.34-.18-.68-.38-1.02-.56-.86-.47-1.72-.92-2.57-1.4a11.456,11.456,0,0,1-.72-2.57c-.04-.36-.08-.74-.09-1.12a11.01,11.01,0,0,1,.19-2.46,5.636,5.636,0,0,0-1.48,2.61,4.456,4.456,0,0,0-.15,1.19,4.867,4.867,0,0,0,.4,1.95c-.21-.07-.43-.15-.64-.2-.91-.32-1.83-.63-2.74-.93a9.557,9.557,0,0,1-.72-3.38v-.16a9.974,9.974,0,0,1,.3-2.52,4.78,4.78,0,0,0-1.73,2.32,3.065,3.065,0,0,0-.11.36,4.549,4.549,0,0,0,.21,2.86c-1.37-.23-2.75-.48-4.1-.72a3.462,3.462,0,0,1-1.45-1.83v-.01c-.44-1.47-1.13-3.25-1.23-3.56a5.9,5.9,0,0,0-.58,2.61,5.565,5.565,0,0,0,1.09,3.1c-1.19.18-2.39.34-3.58.5l-.02.01-1.52.21a7.165,7.165,0,0,1-1.96-2.56,7.427,7.427,0,0,1-.62-3.5,8.344,8.344,0,0,0-.71,3.91,8.107,8.107,0,0,0,.71,2.87c-1.12.17-2.26.35-3.38.51a9.553,9.553,0,0,1-3.59-2.56,9.386,9.386,0,0,1-1.23-1.79.754.754,0,0,1-.06-.13,10.318,10.318,0,0,1-1.08-3.83,9.823,9.823,0,0,0-.12,4.44,35.263,35.263,0,0,0-6.83,4.76,9.891,9.891,0,0,1-3-5.2,11.456,11.456,0,0,0,1.98,6.16,28.534,28.534,0,0,0-2.09,2.27,10.02,10.02,0,0,1-2.86-4.12,9.71,9.71,0,0,0,1.84,5.13c.04.05.07.1.11.15-.35.46-.68.94-1,1.44a7.023,7.023,0,0,1-2.08-2.81,9.943,9.943,0,0,0,1.57,3.62,9.473,9.473,0,0,0,.89,1.09,9.373,9.373,0,0,0,3.09,2.16,7.076,7.076,0,0,1-7.2-5.33,7,7,0,0,0,2.17,5.22,6.754,6.754,0,0,0,4.3,1.75c.52.04,1.03.07,1.54.11A41.737,41.737,0,0,1,229,256.04,40.842,40.842,0,0,1,235.29,253.59Zm19.4,205.27v-.01h-.02ZM242.6,374.64v-.01a2.7,2.7,0,0,1-.29-.15C242.41,374.54,242.51,374.59,242.6,374.64Zm-2.72-247.06v.03l-.01.02c.02-.01.03-.03.05-.04C239.91,127.59,239.89,127.58,239.88,127.58Zm-13.05,19.55c1.68-2.9,3.53-5.89,5.28-8.67A91.914,91.914,0,0,0,226.83,147.13Zm15.48,227.35c.1.06.2.11.29.16v-.01A2.7,2.7,0,0,1,242.31,374.48Zm21.55,20.89a.834.834,0,0,0-.12-.08c.13.1.26.2.4.3C264.05,395.51,263.95,395.44,263.86,395.37Zm97.08-18.55-.03.06c.01-.02.03-.04.04-.06Zm0,0-.03.06c.01-.02.03-.04.04-.06Zm-97.08,18.55a.834.834,0,0,0-.12-.08c.13.1.26.2.4.3C264.05,395.51,263.95,395.44,263.86,395.37Zm-21.55-20.89c.1.06.2.11.29.16v-.01A2.7,2.7,0,0,1,242.31,374.48Zm0,0c.1.06.2.11.29.16v-.01A2.7,2.7,0,0,1,242.31,374.48Zm21.55,20.89a.834.834,0,0,0-.12-.08c.13.1.26.2.4.3C264.05,395.51,263.95,395.44,263.86,395.37Zm97.08-18.55-.03.06c.01-.02.03-.04.04-.06Zm0,0-.03.06c.01-.02.03-.04.04-.06Zm-97.08,18.55a.834.834,0,0,0-.12-.08c.13.1.26.2.4.3C264.05,395.51,263.95,395.44,263.86,395.37Zm-21.55-20.89c.1.06.2.11.29.16v-.01A2.7,2.7,0,0,1,242.31,374.48Zm0,0c.1.06.2.11.29.16v-.01A2.7,2.7,0,0,1,242.31,374.48Zm21.55,20.89a.834.834,0,0,0-.12-.08c.13.1.26.2.4.3C264.05,395.51,263.95,395.44,263.86,395.37Zm97.08-18.55-.03.06c.01-.02.03-.04.04-.06Zm0,0-.03.06c.01-.02.03-.04.04-.06Zm-97.08,18.55a.834.834,0,0,0-.12-.08c.13.1.26.2.4.3C264.05,395.51,263.95,395.44,263.86,395.37Zm-21.55-20.89c.1.06.2.11.29.16v-.01A2.7,2.7,0,0,1,242.31,374.48Zm0,0c.1.06.2.11.29.16v-.01A2.7,2.7,0,0,1,242.31,374.48Zm21.55,20.89a.834.834,0,0,0-.12-.08c.13.1.26.2.4.3C264.05,395.51,263.95,395.44,263.86,395.37Zm97.08-18.55-.03.06c.01-.02.03-.04.04-.06Zm0,0-.03.06c.01-.02.03-.04.04-.06Zm-97.08,18.55a.834.834,0,0,0-.12-.08c.13.1.26.2.4.3C264.05,395.51,263.95,395.44,263.86,395.37Zm-21.55-20.89c.1.06.2.11.29.16v-.01A2.7,2.7,0,0,1,242.31,374.48Zm0,0c.1.06.2.11.29.16v-.01A2.7,2.7,0,0,1,242.31,374.48Zm21.55,20.89a.834.834,0,0,0-.12-.08c.13.1.26.2.4.3C264.05,395.51,263.95,395.44,263.86,395.37Zm97.08-18.55-.03.06c.01-.02.03-.04.04-.06Zm0,0-.03.06c.01-.02.03-.04.04-.06Zm-97.08,18.55a.834.834,0,0,0-.12-.08c.13.1.26.2.4.3C264.05,395.51,263.95,395.44,263.86,395.37Zm-21.55-20.89c.1.06.2.11.29.16v-.01A2.7,2.7,0,0,1,242.31,374.48Zm0,0c.1.06.2.11.29.16v-.01A2.7,2.7,0,0,1,242.31,374.48Zm21.55,20.89a.834.834,0,0,0-.12-.08c.13.1.26.2.4.3C264.05,395.51,263.95,395.44,263.86,395.37Zm97.08-18.55-.03.06c.01-.02.03-.04.04-.06Zm0,0-.03.06c.01-.02.03-.04.04-.06Zm-97.08,18.55a.834.834,0,0,0-.12-.08c.13.1.26.2.4.3C264.05,395.51,263.95,395.44,263.86,395.37Zm-21.55-20.89c.1.06.2.11.29.16v-.01A2.7,2.7,0,0,1,242.31,374.48Zm0,0c.1.06.2.11.29.16v-.01A2.7,2.7,0,0,1,242.31,374.48Zm21.55,20.89a.834.834,0,0,0-.12-.08c.13.1.26.2.4.3C264.05,395.51,263.95,395.44,263.86,395.37Zm97.08-18.55-.03.06c.01-.02.03-.04.04-.06Zm0,0-.03.06c.01-.02.03-.04.04-.06Zm-97.08,18.55a.834.834,0,0,0-.12-.08c.13.1.26.2.4.3C264.05,395.51,263.95,395.44,263.86,395.37Zm-21.55-20.89c.1.06.2.11.29.16v-.01A2.7,2.7,0,0,1,242.31,374.48Zm0,0c.1.06.2.11.29.16v-.01A2.7,2.7,0,0,1,242.31,374.48Zm21.55,20.89a.834.834,0,0,0-.12-.08c.13.1.26.2.4.3C264.05,395.51,263.95,395.44,263.86,395.37Zm97.08-18.55-.03.06c.01-.02.03-.04.04-.06Zm0,0-.03.06c.01-.02.03-.04.04-.06Zm-97.08,18.55a.834.834,0,0,0-.12-.08c.13.1.26.2.4.3C264.05,395.51,263.95,395.44,263.86,395.37Zm-21.55-20.89c.1.06.2.11.29.16v-.01A2.7,2.7,0,0,1,242.31,374.48Zm0,0c.1.06.2.11.29.16v-.01A2.7,2.7,0,0,1,242.31,374.48Zm21.55,20.89a.834.834,0,0,0-.12-.08c.13.1.26.2.4.3C264.05,395.51,263.95,395.44,263.86,395.37Zm97.08-18.55-.03.06c.01-.02.03-.04.04-.06Zm0,0-.03.06c.01-.02.03-.04.04-.06Zm-97.08,18.55a.834.834,0,0,0-.12-.08c.13.1.26.2.4.3C264.05,395.51,263.95,395.44,263.86,395.37Zm-21.55-20.89c.1.06.2.11.29.16v-.01A2.7,2.7,0,0,1,242.31,374.48Zm0,0c.1.06.2.11.29.16v-.01A2.7,2.7,0,0,1,242.31,374.48Zm21.55,20.89a.834.834,0,0,0-.12-.08c.13.1.26.2.4.3C264.05,395.51,263.95,395.44,263.86,395.37Zm97.08-18.55-.03.06c.01-.02.03-.04.04-.06Zm0,0-.03.06c.01-.02.03-.04.04-.06Zm-97.08,18.55a.834.834,0,0,0-.12-.08c.13.1.26.2.4.3C264.05,395.51,263.95,395.44,263.86,395.37Zm-21.55-20.89c.1.06.2.11.29.16v-.01A2.7,2.7,0,0,1,242.31,374.48Zm0,0c.1.06.2.11.29.16v-.01A2.7,2.7,0,0,1,242.31,374.48Zm21.55,20.89a.834.834,0,0,0-.12-.08c.13.1.26.2.4.3C264.05,395.51,263.95,395.44,263.86,395.37Zm97.08-18.55-.03.06c.01-.02.03-.04.04-.06Zm0,0-.03.06c.01-.02.03-.04.04-.06Zm-97.08,18.55a.834.834,0,0,0-.12-.08c.13.1.26.2.4.3C264.05,395.51,263.95,395.44,263.86,395.37Zm-21.55-20.89c.1.06.2.11.29.16v-.01A2.7,2.7,0,0,1,242.31,374.48Zm0,0c.1.06.2.11.29.16v-.01A2.7,2.7,0,0,1,242.31,374.48Zm21.55,20.89a.834.834,0,0,0-.12-.08c.13.1.26.2.4.3C264.05,395.51,263.95,395.44,263.86,395.37Zm97.08-18.55-.03.06c.01-.02.03-.04.04-.06Zm0,0-.03.06c.01-.02.03-.04.04-.06Zm-97.08,18.55a.834.834,0,0,0-.12-.08c.13.1.26.2.4.3C264.05,395.51,263.95,395.44,263.86,395.37Zm-21.55-20.89c.1.06.2.11.29.16v-.01A2.7,2.7,0,0,1,242.31,374.48Z"/><path fill="#dbbaa5" d="M386.01,356.14c-.02-.12-.07-.3-.07-.38v-.1a1.01,1.01,0,0,1-.05-.22c-1.66-10.56-3.51-20.88-5.28-31.64-.11-.66-.34-2.02-.52-3.12-2.09-12.22-3.84-24.72-5.34-37.15-.23-1.91-.44-3.95-.67-5.92-.02-.21-.05-.42-.07-.63-.1-.96-.21-1.92-.31-2.89-.23-2.08-.46-4.17-.68-6.23l-.34.03a59.314,59.314,0,0,1-13.24-.22h-.01c-.96-.1-1.98-.21-3.07-.33a17.81,17.81,0,0,0-4.52-.21,96.938,96.938,0,0,0-9.79,1.88c-1.94.36-2.76-1.06-1.84-1.95,1.89-1.86,3.87-1.48,8.14-3.63,3.12-1.55,4.1-2.62,6.9-4.77a32.24,32.24,0,0,1,3.03-2.08l.01-.01a27.288,27.288,0,0,1,10.17-4.02,24.178,24.178,0,0,1,2.53-.08c.11,0,.23,0,.34.01-.01-.12-.02-.22-.03-.32s-.03-.16-.03-.22a27.521,27.521,0,0,0-7.27,1.33,31.426,31.426,0,0,0-5.29,2.3v.02a34.92,34.92,0,0,0-4.45,2.86c.76-.62,1.54-1.26,2.3-1.89a18.468,18.468,0,0,0-1.34-6.06,5.944,5.944,0,0,1,2.37,2.98,5.76,5.76,0,0,1,.3,2.26c.35-.18.68-.38,1.03-.56.86-.47,1.72-.92,2.56-1.39a11.194,11.194,0,0,0,.72-2.58c.04-.36.08-.74.1-1.12a10.39,10.39,0,0,0-.2-2.46,5.716,5.716,0,0,1,1.49,2.61,4.9,4.9,0,0,1,.15,1.19,5.045,5.045,0,0,1-.4,1.95c.21-.07.43-.15.63-.2.92-.32,1.83-.63,2.75-.93a9.729,9.729,0,0,0,.72-3.38v-.16a9.919,9.919,0,0,0-.31-2.52,4.778,4.778,0,0,1,1.74,2.32,3.065,3.065,0,0,1,.11.36,4.7,4.7,0,0,1-.21,2.86l2.4-.42a6.346,6.346,0,0,0-.06-.65.417.417,0,0,1-.01-.15c-.03-.4-.07-.79-.11-1.18a4.429,4.429,0,0,0-.06-.51c-.01-.19-.04-.39-.07-.59-.07-.6-.15-1.19-.23-1.79a1.988,1.988,0,0,1-.02-.22c-.08-.64-.15-1.28-.21-1.93-.03-.17-.04-.34-.06-.51-.02-.19-.04-.36-.06-.53-.08-.65-.15-1.31-.23-1.97-.55-4.66-1.14-9.59-1.71-14.03-.2-1.61-.42-3.29-.65-4.94-4.3,1.46-6.93,2.45-12.7,4.1a33.71,33.71,0,0,1-10.24,1.15,1.412,1.412,0,0,1-1.35-1.51c.28-3.43.54-6.87.82-10.31a1.761,1.761,0,0,1,1.3-1.56,154.468,154.468,0,0,1,17.68-3.58q1.41-.195,2.76-.39c-.13-.83-.26-1.64-.4-2.46-.86-5.12-1.83-10.1-2.87-15.18a6.819,6.819,0,0,0-.17-.74.838.838,0,0,1-.02-.1c-.04-.02,0-.09-.03-.11a.977.977,0,0,1-.05-.26s-.04-.11-.02-.12v-.02c-.01,0-.02-.01-.02-.03s.01-.01,0-.03.01-.02,0-.03v-.01l-.01-.01c-.19-1-.36-1.91-.54-2.75a208.042,208.042,0,0,0-70.74-86.28,34.354,34.354,0,0,0-3.67.69c-21.18,5.18-35.94,13.84-46.75,25.03-.13-.04-.3-.07-.47-.12-.1-.03-.18-.06-.28-.09-.02.01-.03.03-.05.04v.01l-.01.04-.03.12c-.11.12-.22.23-.33.35-.47.48-.92.98-1.36,1.47l.24.21.29.27c-.68.75-1.34,1.51-1.97,2.29a.01.01,0,0,1-.01.01c0,.01-.01.01-.02.02q-2.4,2.88-4.51,5.96a.218.218,0,0,1-.05.08c-1.75,2.78-3.6,5.77-5.28,8.67v.01c-1.7,3.13-3.25,6.38-4.68,9.71-1.55,3.58-2.96,7.27-4.28,11.04-.39,1.05-.75,2.11-1.11,3.18-.05.17-.11.35-.16.52-.11.31-.23.63-.34.96-.08.25-.16.5-.24.76-.32.96-.69,2.03-1.07,3.19-.09.23-.17.46-.24.7-.17.49-.33.98-.49,1.49-.12.34-.24.69-.35,1.07-.32.94-.64,1.94-.98,2.96-.2.66-.42,1.33-.63,2.01-.16.51-.33,1.04-.48,1.57-.31.99-.63,1.99-.95,3.03-.36,1.21-.74,2.51-1.09,3.73-.18.61-.37,1.26-.53,1.87a.549.549,0,0,1-.05.17c-.37,1.36-.74,2.7-1.1,4.07-.19.71-.37,1.43-.56,2.14-.54,2.11-1.05,4.24-1.55,6.34-.06.24-.1.44-.15.67-.32,1.39-.61,2.68-.91,4.09s-.61,3.02-.88,4.44c-.11.56-.25,1.27-.31,1.69-.08.43-.11.65-.17.93-.03.16-.06.33-.09.49-.14.79-.27,1.6-.38,2.36a42.551,42.551,0,0,1,14.28-10.06c11.35-4.75,22.55-3.18,37.98-1.02A152.175,152.175,0,0,1,273,214.81a1.76,1.76,0,0,1,1.3,1.57c.28,3.43.56,6.87.82,10.31a1.4,1.4,0,0,1-1.34,1.51,34.321,34.321,0,0,1-10.24-1.15c-8.48-2.43-10.19-3.44-20.33-6.57-5.33-1.65-10.5-3.24-17.44-2.87a43.361,43.361,0,0,0-18.28,5.34,48.279,48.279,0,0,0-4.93,2.98c-.18.12-.35.24-.52.37-.04.26-.08.53-.11.79-.21,1.48-.39,2.94-.55,4.39-.03.29-.06.58-.08.85-.13,1.41-.24,2.78-.29,4.12a3.553,3.553,0,0,1-.03.46c-.01.29-.03.56-.04.83,0,.14-.01.26-.01.37-.08,2.96,1.05,14.56-2.36,28.83-.3,1.27-.59,2.38-.88,3.34a10.822,10.822,0,0,1-.32,1.13c-.01.07-.03.12-.04.2-.17.53-.34,1.03-.49,1.49-.2.55-.38,1.07-.54,1.54a2.44,2.44,0,0,0-.14.34c-.11.29-.22.56-.31.82a.185.185,0,0,1-.05.12c-.09.23-.18.46-.26.67-.18.43-.35.86-.5,1.29-.09.21-.15.43-.24.65-.11.29-.2.6-.31.9-.08.28-.16.55-.24.84a28.011,28.011,0,0,0-.69,2.99c-1.57,8.55-3.84,18.59-1.02,42.38.76,6.4,1.89,13.8,3.51,22.43.18.93.35,1.84.53,2.76.08.38.15.79.23,1.17.32,1.65.65,3.26.97,4.82.07.29.13.56.19.82.04.28.1.54.16.81a1.255,1.255,0,0,0,.07.26.334.334,0,0,0,.03.15c.18.87.36,1.74.56,2.58.17.75.34,1.5.5,2.23.18.81.37,1.6.55,2.39.28,1.17.56,2.32.85,3.46.08.37.18.75.28,1.12.18.75.37,1.49.55,2.2.09.31.15.61.24.9a1.062,1.062,0,0,0,.04.19c.1.35.19.71.29,1.06.13.49.25.95.37,1.43.14.54.29,1.06.44,1.58a.145.145,0,0,0,.02.07c.1.39.21.77.32,1.15.07.26.14.52.2.78a1.6,1.6,0,0,1,.11.33c.06.23.13.48.2.72.3,1.01.57,1.99.86,2.94.08.27.16.53.23.78.55,1.81,1.09,3.54,1.62,5.15.06.24.15.49.23.72.09.29.18.58.27.85.08.23.14.44.23.66.09.29.2.58.28.85.07.21.13.4.21.6.09.29.18.58.29.86a4.883,4.883,0,0,1,.18.54c.17.46.32.9.48,1.34.43,1.18.83,2.3,1.22,3.33.04.11.08.22.12.31V400c.1.23.18.44.27.65.17.45.33.86.49,1.26.08.23.16.45.25.66a.037.037,0,0,0,.01.03c.02.05.04.11.06.16a.509.509,0,0,1,.07.17c.29.71.57,1.37.83,1.98.1.24.21.48.31.7.57,1.31,1.62,3.52,2.22,4.79a1.335,1.335,0,0,0,.11.24.841.841,0,0,1,.1.22.212.212,0,0,1,.03.07c.08.14.14.29.22.43v.01l.01.02a3.31,3.31,0,0,0,.15.33c.05.11.1.2.16.32.76,1.54,2.07,4.23,2.82,5.8a2.9,2.9,0,0,0,.15.31c.04.1.09.19.14.3.04.09.1.17.14.27s.1.2.15.31c0,.01.01.01.01.03,6.68,13.06,12.92,21.71,18.96,28.4.92,1.05,1.85,2.03,2.78,2.99l.4.59a.919.919,0,0,1,.29.11l.02.02c4.46,4.5,8.84,8.18,13.24,12.03.1.09.22.19.31.27l.09.08a.037.037,0,0,1,.02.03.948.948,0,0,1,.24.41l-.18.18a2.977,2.977,0,0,0,.27.23c3.19,2.49,8.87,7.05,11.24,9.62,1.13,1.2,2.04,2.38,3,3.6.17.2.33.42.5.63.1.12.2.26.31.38,0,.01,0,.01.01.02.63.75,1.28,1.53,2.06,2.34.17.19.36.38.55.57.24.24.48.48.74.73a47.4,47.4,0,0,0,7.01,5.42c10.2,6.67,16.31,8.93,27.23,9.09h.71a4.52,4.52,0,0,0,.52-.02c10.62-.19,16.99-1.89,27.04-8.46a44.256,44.256,0,0,0,8.34-6.77c2.36-2.5,3.71-4.65,5.82-6.92,8.11-8.75,15.79-14.15,23.71-21.98a101.879,101.879,0,0,0,8.26-9.15c.76-.95,1.54-1.95,2.32-2.99,1.13-1.49,2.24-3.08,3.38-4.79l.78-1.17c.29-.46.58-.92.88-1.37.55-.87,1.11-1.77,1.66-2.69.04-2,.06-3.97.09-5.93q.18-13.005.28-24.98C390.02,386.59,387.41,364.94,386.01,356.14Zm-67-2.52a1.31,1.31,0,0,1,.13-.12c.21-.24.44-.47.67-.71l.04-.04a11.489,11.489,0,0,1,1.7-1.91,6.086,6.086,0,0,1-.32.57c.39-.37.69-.65.8-.73a2.571,2.571,0,0,1,.32-.22.629.629,0,0,0,.11-.08,1.429,1.429,0,0,1,.2-.14,15.948,15.948,0,0,1,4.16-1.89,2.315,2.315,0,0,1,.77-.09.473.473,0,0,1,.17.01,1.232,1.232,0,0,1,.44.07.571.571,0,0,1,.21.13.934.934,0,0,1,.16.18.666.666,0,0,1,.06.12c.02.04.04.09.06.14a1.093,1.093,0,0,1,.05.17,5.505,5.505,0,0,1,.14.8,1.492,1.492,0,0,1,.02.21,5.769,5.769,0,0,1,0,.93,1.231,1.231,0,0,1-.02.2.59.59,0,0,1-.02.14,1.18,1.18,0,0,1-.04.2,1.888,1.888,0,0,1-.06.18.322.322,0,0,1-.08.13c-.11.15-.26.16-.47-.03a2.17,2.17,0,0,0-.6-.4,3.346,3.346,0,0,0-1.78-.2,5.681,5.681,0,0,0-.88.17c-.19.04-.38.1-.57.16a15.339,15.339,0,0,0-1.72.68c-.37.17-.72.35-1.07.54-.17.09-.34.19-.51.28-.33.18-.65.37-.95.55-.6.35-.9.54-1.28.77-.05.03-.12.07-.2.11-.18.11-.39.24-.47.28a.219.219,0,0,0-.05.03.393.393,0,0,1-.06.02C317.82,354.92,318.3,354.35,319.01,353.62Zm-9.49-23.38c.07-.98.11-1.98.15-2.98.24-5.93.03-11.97.16-17.94.18-8.91.01-9.89.3-15.99.21-4.13.58-11.87,1.08-11.89.54,0,.9,9.1,1.54,25.43.06,1.35-.01,6.09-.15,15-.04,2.68-.1,5.74-.15,9.19-.03,1.92-.12,5.47-.93,6.56-.52.7-1.26.3-1.69-.83C309.18,335.08,309.41,331.9,309.52,330.24Zm-24.36,22.13a6.538,6.538,0,0,1-2.23-2.25A9.112,9.112,0,0,1,285.16,352.37Zm-8.88-2.22a4.332,4.332,0,0,1,.33-1.36c.25-.47.82-.48,1.31-.36a11.9,11.9,0,0,1,4.01,1.75c.35.32,4.06,3.33,3.37,2.95-.97-.54-6.57-3.67-8.59-1.38a.943.943,0,0,1-.1.1C276.21,352.16,276.16,351.13,276.28,350.15Zm-9.61-86.11c4.27,2.15,6.25,1.77,8.15,3.63.91.88.09,2.31-1.85,1.95-2.82-.51-5.44-1.43-9.79-1.88a17.81,17.81,0,0,0-4.52.21c-1.09.12-2.12.23-3.07.33a11.666,11.666,0,0,0,.82-1.52,12.418,12.418,0,0,1-.83,1.52,58.766,58.766,0,0,1-13.64.18,45.879,45.879,0,0,1-8.43-1.73c-1.27-.34-2.85-.74-4.82-1.25-3.72-.96-6.8-1.62-8.82-2.05a45.255,45.255,0,0,1,9.64-6.15c1.45-.7,2.98-1.43,4.65-2.09l.01-.01a26.776,26.776,0,0,1,12.38-2.02,27.314,27.314,0,0,1,10.18,4.02c.06.17.13.34.19.52-.06-.18-.12-.35-.18-.52a35.995,35.995,0,0,1,3.03,2.09C262.57,261.42,263.55,262.49,266.67,264.04Zm-59.43-4.71a7.076,7.076,0,0,0,7.2,5.33,9.373,9.373,0,0,1-3.09-2.16,9.473,9.473,0,0,1-.89-1.09,9.943,9.943,0,0,1-1.57-3.62,7.023,7.023,0,0,0,2.08,2.81c.32-.5.65-.98,1-1.44-.04-.05-.07-.1-.11-.15a9.71,9.71,0,0,1-1.84-5.13,10.02,10.02,0,0,0,2.86,4.12,28.534,28.534,0,0,1,2.09-2.27,11.456,11.456,0,0,1-1.98-6.16,9.891,9.891,0,0,0,3,5.2,35.263,35.263,0,0,1,6.83-4.76,9.823,9.823,0,0,1,.12-4.44,10.318,10.318,0,0,0,1.08,3.83.754.754,0,0,0,.06.13,9.386,9.386,0,0,0,1.23,1.79,9.553,9.553,0,0,0,3.59,2.56c1.12-.16,2.26-.34,3.38-.51a8.107,8.107,0,0,1-.71-2.87,8.344,8.344,0,0,1,.71-3.91,7.427,7.427,0,0,0,.62,3.5,7.165,7.165,0,0,0,1.96,2.56l1.52-.21.02-.01c1.19-.16,2.39-.32,3.58-.5a5.565,5.565,0,0,1-1.09-3.1,5.9,5.9,0,0,1,.58-2.61c.1.31.79,2.09,1.23,3.56v.01a3.462,3.462,0,0,0,1.45,1.83c1.35.24,2.73.49,4.1.72a4.549,4.549,0,0,1-.21-2.86,3.065,3.065,0,0,1,.11-.36,4.78,4.78,0,0,1,1.73-2.32,9.974,9.974,0,0,0-.3,2.52v.16a9.557,9.557,0,0,0,.72,3.38c.91.3,1.83.61,2.74.93.21.05.43.13.64.2a4.867,4.867,0,0,1-.4-1.95,4.456,4.456,0,0,1,.15-1.19,5.636,5.636,0,0,1,1.48-2.61,11.01,11.01,0,0,0-.19,2.46c.01.38.05.76.09,1.12a11.456,11.456,0,0,0,.72,2.57c.85.48,1.71.93,2.57,1.4.34.18.68.38,1.02.56a5.767,5.767,0,0,1,2.68-5.24,16.4,16.4,0,0,0-.83,2.56,19.787,19.787,0,0,0-.52,3.5c.77.63,1.54,1.27,2.3,1.89a34.741,34.741,0,0,0-4.44-2.86v-.02a31.19,31.19,0,0,0-5.3-2.3,26.992,26.992,0,0,0-9.49-1.33,26.642,26.642,0,0,0-6.23,1.04,40.842,40.842,0,0,0-6.29,2.45,41.737,41.737,0,0,0-13.75,10.37c-.51-.04-1.02-.07-1.54-.11a6.754,6.754,0,0,1-4.3-1.75A7,7,0,0,1,207.24,259.33Zm47.45,199.53-.02-.01h.02Zm112-85.02-.25.28q-.24.27-.45.48l-.21.21h-.01a39806572953.236,39806572953.236,0,0,1-.08.08c-1.16,1.42-4.2,3.63-5.47,4.98-3.73,3.89-6.57,8.62-9.92,13.67a93.256,93.256,0,0,1-7.58,10.19c-1.25,1.42-2.48,2.84-3.71,4.2-7.36,8.23-14.59,15.01-25.55,18.27a44.784,44.784,0,0,1-11.7,1.84c-.44-.12-7.01-.56-11.83-1.99a43.135,43.135,0,0,1-13.52-6.78c-5.79-4.24-10.67-9.71-15.92-15.7-.36-.41-.72-.83-1.07-1.23-1.48-1.73-2.85-3.42-4.13-5.07a191.668,191.668,0,0,1-11.84-17.72c-1.15-1.87-2.23-3.69-3.23-5.43-.31-.5-.58-1-.87-1.5-.03-.05-.07-.12-.1-.18.18.14.35.28.51.39a13.924,13.924,0,0,0,1.35.63c.17.07.35.14.53.2s.36.13.54.19h.03l5.21.81h.23a19.668,19.668,0,0,0,3.13-.18,62.622,62.622,0,0,1,7.11-.42,138.547,138.547,0,0,1,21.71,2c3.44.55,5.64,1.09,8.2,1.63.28.06.56.12.86.17,2.03.41,4.4.82,7.83,1.22,1.91.22,3.65.38,5.13.5.67.05,1.28.1,1.85.14a2.452,2.452,0,0,1,.27.02,2.348,2.348,0,0,1,.27.01h.01c.15,0,.34-.01.56-.02.57-.03,1.34-.07,2.2-.13a3.108,3.108,0,0,0,.43-.03,3.4,3.4,0,0,0,.45-.03c.48-.03.97-.07,1.46-.11a.528.528,0,0,0,.13-.01c.44-.04.88-.08,1.3-.12.26-.02.51-.05.76-.08,8.31-.99,10.36-1.98,16.78-3.02.2-.03.43-.07.67-.11s.52-.08.81-.13c.14-.02.29-.04.44-.07.31-.05.64-.1.98-.15.52-.08,1.07-.16,1.67-.24.39-.06.8-.11,1.22-.17.21-.02.43-.05.65-.08.44-.06.89-.11,1.35-.17q1.05-.12,2.16-.24c.49-.05,1-.1,1.51-.15s1.03-.09,1.57-.13q.78-.075,1.59-.12h.01c.52-.04,1.06-.07,1.61-.1.43-.02.88-.05,1.33-.06l.76-.03c.12-.01.25-.01.39-.01.28-.01.56-.02.85-.02.27-.01.54-.01.82-.01.39-.01.79-.01,1.19-.01h.01c.3,0,.6.01.89.01.24-.01.47,0,.7,0h.19l1.15.03c.19.01.38.01.57.02l1.24.06.44.03,1.18.09c.56.05,1.11.11,1.66.18.43.05,1.12.15,2.02.18h.18a15.3,15.3,0,0,0,2.68-.32c.27-.06.54-.13.81-.2h.02c3.47-.92,2.5.12,4.22-1.53C367.27,373.16,366.97,373.54,366.69,373.84Z"/><path fill="#543c2d" d="M360.26,376.78a4.371,4.371,0,0,1-.59.08.06.06,0,0,0-.04.01c-.01,0-.01,0-.02.01h-.06c-.11.01-.22.03-.33.03-.01.01-.02.01-.04.01h-.08a1.213,1.213,0,0,1-.18.01c-.02.02-.02,0-.02,0s-.02.02-.04.01c-.01.01-.02.01-.04.01h-.07c-.03,0-.05.01-.08.01-.11.01-.23.01-.35.01h-.66c-.47,0-1-.01-1.64-.01-.18,0-.36,0-.55.01-.15,0-.31,0-.47.01-.24,0-.5,0-.77.01-.45.01-.95.04-1.51.07,0,0-.1.01-.29.02a.448.448,0,0,0-.11.01.915.915,0,0,0-.16.01h-.08c-.1.01-.21.02-.34.03a.66.66,0,0,1-.14.01.41.41,0,0,1-.11.01h-.02l-.25.03c-.14.01-.29.02-.45.04l-.21.03a1.366,1.366,0,0,0-.19.02c-.04,0-.08.01-.12.01s-.09.01-.14.02a1.785,1.785,0,0,0-.23.02c-.04,0-.09.01-.13.01-.06.01-.11.01-.17.02l-.51.06a.127.127,0,0,1-.06.01H349c-.32.02-.64.07-1,.12-.05.03-.11.07-.18.11-.1.06-.2.12-.3.19a7.578,7.578,0,0,0-.92.75,1.92,1.92,0,0,0-.15.14,6.352,6.352,0,0,0-.54.61,5.026,5.026,0,0,0-.74,1.33,17.276,17.276,0,0,0-3.61,2.3c-.21.18-.4.35-.6.53-.37.34-.7.68-1.01,1.02a14.687,14.687,0,0,0-1.12,1.33,7.658,7.658,0,0,0-2.91-1.19c-.08-.01-.21-.03-.37-.05s-.36-.04-.59-.06a1.927,1.927,0,0,0-.24-.01,8.058,8.058,0,0,0-.96.03h-.01a5.828,5.828,0,0,0-.79.12,6.323,6.323,0,0,0-1.69.62q-.24.135-.48.3a6.589,6.589,0,0,0-.54.42,6.1,6.1,0,0,0-1.52,2.08c-.1.23-.18.44-.25.64l-.01.01a.762.762,0,0,0-.06.2c-.02.07-.04.13-.06.2-.01.04-.03.09-.04.13a1.766,1.766,0,0,0-.04.2.037.037,0,0,0-.01.03,1.766,1.766,0,0,0-.04.2.01.01,0,0,0-.01-.01,1.431,1.431,0,0,0-.11-.15,7.308,7.308,0,0,0-.53-.65,6.084,6.084,0,0,0-1.1-.92h-.02a3.72,3.72,0,0,0-1.64-.6,4.675,4.675,0,0,0-3.38,1.19q-.255.195-.51.42a2.622,2.622,0,0,0-.25.22c-.16.15-.32.29-.47.44-.08.08-.16.15-.24.23-.11.1-.22.21-.32.31a11.748,11.748,0,0,0-1.64,2.03c-.13.22-.26.43-.36.61a10.234,10.234,0,0,0-5.54-2.83c-.19-.03-.43-.07-.73-.1a3.028,3.028,0,0,0-.31-.02h-.07a1.148,1.148,0,0,0-.19-.01c-.22.01-.46.03-.69.05a11.323,11.323,0,0,0-4.12,1.12.442.442,0,0,0-.15.08.161.161,0,0,1-.07.04c-.03.02-.05.04-.07.05-.16.1-.31.21-.45.31a8.348,8.348,0,0,0-2.07,2.32,1.414,1.414,0,0,0-.18.37c.01.14.01.29.03.43-.05-.01-.08-.02-.13-.03h-.03a.037.037,0,0,1-.03-.01,3.087,3.087,0,0,0-.55-.06h-.01a.333.333,0,0,0-.1,0,.014.014,0,0,0-.02,0,.615.615,0,0,0-.13-.01.86.86,0,0,0-.16.01h-.04a.448.448,0,0,0-.12.01c-.01-.01-.03,0-.05,0a.22.22,0,0,0-.08.01h-.03a.09.09,0,0,0-.05.01.44.44,0,0,0-.16.02.277.277,0,0,0-.09.01l-.04.5c.01-.28.01-.54.03-.82a2.815,2.815,0,0,0-.07-.65c0-.03-.02-.04-.03-.07a.97.97,0,0,0-.1-.33,1.659,1.659,0,0,0-.18-.38,8.857,8.857,0,0,0-1.59-1.91l-.01-.01a3.876,3.876,0,0,0-.31-.26c-.09-.07-.19-.14-.28-.2-.04-.03-.07-.06-.11-.09a1.768,1.768,0,0,0-.22-.16c-.04-.03-.09-.05-.13-.08s-.08-.05-.12-.07a.06.06,0,0,0-.04-.01c-.2-.12-.39-.23-.59-.33a8.551,8.551,0,0,0-1.16-.47c-.16-.05-.32-.1-.48-.14-.08-.02-.16-.04-.23-.05-.19-.04-.38-.07-.56-.1a7.019,7.019,0,0,0-.76-.08c-.1-.01-.2-.01-.3-.01a6.933,6.933,0,0,0-.92.01h-.07a4.685,4.685,0,0,0-.59.06c-.17.03-.33.05-.45.07a6.17,6.17,0,0,0-.77.16.471.471,0,0,0-.17.04c-.24.06-.47.13-.69.2-.09.03-.17.06-.25.09a7.561,7.561,0,0,0-.71.3c-.15.07-.29.14-.43.22a3.183,3.183,0,0,0-.4.23c-.08.04-.16.08-.24.13a1.213,1.213,0,0,1-.14.1c-.03.01-.05.03-.08.04-.01,0-.04,0-.05.02a.02.02,0,0,0-.02.02,8.933,8.933,0,0,0-1.59,1.27c-.04-.07-.08-.14-.13-.22-.06-.12-.15-.25-.23-.39a11.177,11.177,0,0,0-1.08-1.43c-.15-.17-.31-.34-.48-.52q-.15-.165-.33-.33l-.06-.06c-1.15-1.09-2.48-2.34-4.12-2.51-.07,0-.12-.01-.19-.01h-.06a1.089,1.089,0,0,0-.19.01.22.22,0,0,0-.08.01,1.477,1.477,0,0,0-.21.01,3.832,3.832,0,0,0-1.65.59h-.02a5.269,5.269,0,0,0-.63.49h-.02s-.02,0-.02.01-.02.02-.03.02a7.921,7.921,0,0,0-.95,1.08,1.1,1.1,0,0,0-.09.14c-.03-.13-.06-.3-.11-.48a4.6,4.6,0,0,0-.16-.49,6.23,6.23,0,0,0-1.77-2.72,6.058,6.058,0,0,0-3.27-1.44,1.963,1.963,0,0,0-.41-.04,8.308,8.308,0,0,0-1.36.03,2.532,2.532,0,0,0-.32.04c-.05.01-.09.01-.13.02a.075.075,0,0,0-.05.01.277.277,0,0,0-.13.01,7.534,7.534,0,0,0-2.86,1.16v.02h-.03l-.02.01a12.185,12.185,0,0,0-1.12-1.33,3.008,3.008,0,0,0-.25-.26c-.23-.25-.48-.5-.76-.77-.19-.18-.39-.34-.59-.52a17.15,17.15,0,0,0-3.62-2.3,5.026,5.026,0,0,0-.74-1.33,5.492,5.492,0,0,0-.56-.63,5.968,5.968,0,0,0-.6-.54h-.01a.555.555,0,0,0-.08-.06h-.02c-.7-.08-1.27-.13-1.68-.16h-.01c-.05,0-.08-.01-.12-.01h-.01c-.34-.03-.54-.04-.54-.04-.62-.03-1.17-.06-1.66-.06h-.03c-.95-.04-1.73-.05-2.38-.05-.39,0-.75.01-1.07.01h-.7c-.14,0-.28,0-.42-.01h-.16c-.17,0-.34-.01-.5-.02-.06,0-.11-.01-.17-.01l-.32-.03a.34.34,0,0,1-.1-.01l-.24-.03a.448.448,0,0,1-.11-.01c-.03,0-.07-.01-.1-.01-.1-.02-.18-.03-.28-.05-.17-.03-.33-.07-.5-.11a76.148,76.148,0,0,0,14.12,15.66c.15.12.3.24.45.38.33.26.68.56,1.06.86.33.27.67.54,1.03.83.25.2.49.39.77.6.17.15.37.29.55.43a.834.834,0,0,1,.12.08c.09.07.19.14.28.22.14.1.28.2.42.31.2.15.39.29.59.43,1.6,1.16,3.45,2.41,5.51,3.64q2.52,1.5,5.49,2.93c.4.19.82.38,1.24.56.34.15.68.3,1.03.45.46.2.92.39,1.4.57q.78.315,1.59.6c.4.15.81.29,1.22.43.47.17.94.32,1.43.48.59.19,1.2.37,1.81.54.79.22,1.61.43,2.43.62.63.15,1.29.29,1.94.43a63.7,63.7,0,0,0,11.79,1.23v.14c.21,0,.43-.01.66-.01.31-.02.64-.03.97-.04.18-.02.38-.02.57-.03.21-.02.43-.03.65-.04h.02c.8-.05,1.64-.13,2.55-.23.22-.01.45-.04.67-.07.42-.04.84-.09,1.26-.16.37-.04.74-.1,1.11-.17.47-.08.96-.16,1.44-.25.03.02.06,0,.1-.01h.02c.15-.03.31-.06.47-.08.2-.05.41-.09.63-.13s.42-.09.62-.14h.02c.53-.11,1.04-.22,1.55-.34.68-.17,1.33-.34,1.98-.53.25-.06.5-.14.75-.21.33-.1.65-.19.97-.3.35-.1.71-.21,1.05-.33,1.05-.34,2.06-.71,3.03-1.09.36-.14.72-.28,1.07-.43.38-.15.76-.32,1.14-.48.01,0,.02,0,.02-.01s.01-.01.02-.02a.694.694,0,0,0,.13-.05c.01,0,.01,0,.02-.01a3.039,3.039,0,0,0,.45-.19.3.3,0,0,0,.08-.04c.48-.21.94-.42,1.39-.64.06-.03.13-.06.19-.09l.96-.48c.16-.08.32-.15.47-.24s.31-.16.46-.24c.47-.24.91-.48,1.35-.73.21-.12.43-.24.64-.36.11-.06.21-.12.32-.18.23-.14.46-.27.68-.4.33-.19.66-.39.97-.59.43-.26.86-.52,1.26-.8,1.39-.89,2.63-1.77,3.77-2.62a3.335,3.335,0,0,0,.32-.24c.41-.3.81-.61,1.2-.91,1.31-1.03,2.4-1.94,3.3-2.7.73-.63,1.5-1.25,2.26-1.89.14-.11.28-.23.43-.34.64-.54,1.27-1.07,1.91-1.6.4-.33.8-.65,1.19-.98,2.8-2.33,5.56-4.7,7.84-6.98.63-.61,1.21-1.22,1.74-1.82.26-.28.51-.57.74-.85s.45-.55.66-.82c.04-.05.06-.07.08-.1a.311.311,0,0,0,.04-.06c0-.01.01-.01.01-.02h.02v-.01h.01c.02-.04.04-.06.07-.11C360.3,376.76,360.29,376.78,360.26,376.78Zm-79.29,24.29a2.105,2.105,0,0,1,.25.02h.03a.164.164,0,0,0,.09.02A2.206,2.206,0,0,1,280.97,401.07Zm3.05-.07h-.05a1.742,1.742,0,0,0,.22-.05A1.093,1.093,0,0,1,284.02,401Zm11.14,4.37a.127.127,0,0,1-.06.01h-.01c-.04,0-.09.01-.14.01h-.24c.06,0,.12-.01.18-.01h.03c.06,0,.13-.01.19-.01h.01l.01-.01h.19A.419.419,0,0,1,295.16,405.37Zm1.42-.12c-.36.05-.73.08-1.12.1v-.01h.04c.02,0,.04-.01.06-.01.07,0,.14-.01.21-.01q.51-.045.99-.12C296.69,405.21,296.64,405.24,296.58,405.25Zm22.71-3.89h-.01c.02-.03.04-.05.06-.08A.351.351,0,0,0,319.29,401.36Zm12-3.01v-.01c.02,0,.02,0,.03.01Zm13.86-13.01-.01-.01v-.08a.2.2,0,0,0,.01.08Z"/><path fill="#815e3f" d="M275.12,226.69a1.4,1.4,0,0,1-1.34,1.51,34.321,34.321,0,0,1-10.24-1.15c-8.48-2.43-10.19-3.44-20.33-6.57-5.33-1.65-10.5-3.24-17.44-2.87a43.361,43.361,0,0,0-18.28,5.34,48.279,48.279,0,0,0-4.93,2.98c-.18.12-.35.24-.52.37-.38.26-.74.53-1.09.79.13-.96.28-1.93.43-2.91.4-.46.79-.91,1.19-1.33.16-.18.33-.36.49-.53a42.551,42.551,0,0,1,14.28-10.06c11.35-4.75,22.55-3.18,37.98-1.02A152.175,152.175,0,0,1,273,214.81a1.76,1.76,0,0,1,1.3,1.57C274.58,219.81,274.86,223.25,275.12,226.69Z"/><path fill="#815e3f" d="M370.81,221.27c-.37.12-.73.24-1.08.35v.01c-.73.24-1.4.46-2.04.68-4.3,1.46-6.93,2.45-12.7,4.1a33.71,33.71,0,0,1-10.24,1.15,1.412,1.412,0,0,1-1.35-1.51c.28-3.43.54-6.87.82-10.31a1.761,1.761,0,0,1,1.3-1.56,154.468,154.468,0,0,1,17.68-3.58q1.41-.195,2.76-.39c.64-.08,1.27-.17,1.9-.25.41-.06.81-.11,1.22-.17Q369.965,215.37,370.81,221.27Z"/><path fill="#bc9065" d="M286.7,247.237a73.251,73.251,0,0,1,2.741,12.69,78.779,78.779,0,0,1,.569,13,108.574,108.574,0,0,1-.871,12.979,28.319,28.319,0,0,1-1.692,6.326,42.791,42.791,0,0,1-3.079,5.733,62.424,62.424,0,0,0,2.555-5.932,28.493,28.493,0,0,0,1.342-6.248c.538-4.252.562-8.577.769-12.886A96.5,96.5,0,0,0,288.758,260,98.764,98.764,0,0,0,286.7,247.237Z"/><path fill="#bc9065" d="M321.829,250.035c-.962,4.1-1.9,8.2-2.535,12.343-.314,2.071-.546,4.153-.666,6.237a49.2,49.2,0,0,0-.04,6.25l.428,6.285a41.692,41.692,0,0,0,.781,6.187,54.609,54.609,0,0,0,4.29,11.755,40.018,40.018,0,0,1-5.17-11.558c-.978-4.18-1.049-8.426-1.268-12.619a53.246,53.246,0,0,1,1.006-12.646A104.513,104.513,0,0,1,321.829,250.035Z"/><path fill="url(#radial-gradient)" d="M234.16,255.19a1.983,1.983,0,0,0-.11.2c-.13.23-.26.46-.37.7a3.548,3.548,0,0,0-.21.44c-.08.17-.15.35-.22.53,0,.01-.01.01-.01.02a5.616,5.616,0,0,0-.19.53c-.01.04-.03.08-.04.12a4.419,4.419,0,0,0-.15.48c-.07.24-.13.49-.18.73-.01.06-.03.12-.04.18a3.209,3.209,0,0,0-.07.43c-.01.06-.02.11-.03.17a1.773,1.773,0,0,0-.05.32,4.4,4.4,0,0,0-.05.51.277.277,0,0,0-.01.09c-.01.08-.01.17-.02.25-.01.23-.02.46-.02.7a12.3,12.3,0,0,0,1.12,5.14c-1.27-.34-2.85-.74-4.82-1.25-3.72-.96-6.8-1.62-8.82-2.05a45.255,45.255,0,0,1,9.64-6.15C230.96,256.58,232.49,255.85,234.16,255.19Z"/><path fill="none" stroke="#29aae1" stroke-miterlimit="10" stroke-width=".346" d="M250.764,262.459a6.066,6.066,0,1,1-6.041-5.6A5.838,5.838,0,0,1,250.764,262.459Z"/><path fill="url(#linear-gradient)" d="M272.97,269.62c-2.82-.51-5.44-1.43-9.79-1.88a17.81,17.81,0,0,0-4.52.21c-1.09.12-2.12.23-3.07.33a11.666,11.666,0,0,0,.82-1.52c.1-.22.19-.44.29-.67.06-.18.13-.36.19-.55a6.36,6.36,0,0,0,.19-.62c.06-.22.12-.43.17-.65s.09-.44.12-.66.07-.44.09-.66a4.886,4.886,0,0,0,.05-.55.17.17,0,0,0,.01-.07c.01-.25.02-.49.02-.74a12.239,12.239,0,0,0-.21-2.28c-.07-.37-.15-.73-.25-1.08-.05-.18-.11-.36-.16-.53s-.12-.35-.18-.52a35.995,35.995,0,0,1,3.03,2.09c2.8,2.15,3.78,3.22,6.9,4.77,4.27,2.15,6.25,1.77,8.15,3.63C275.73,268.55,274.91,269.98,272.97,269.62Z"/><path fill="#c1976b" d="M206.217,270.816a13.006,13.006,0,0,1,6.829-1.595,13.92,13.92,0,0,1,6.62,2.411c1.007.621,1.981,1.286,2.988,1.893a30.671,30.671,0,0,0,9.82,3.744,45.319,45.319,0,0,0,14.041.509A41.178,41.178,0,0,0,260,273.793a38.443,38.443,0,0,1-13.456,4.214,45.574,45.574,0,0,1-14.135-.4,30.984,30.984,0,0,1-9.886-3.862c-1.009-.62-1.979-1.293-2.974-1.92a13.79,13.79,0,0,0-6.51-2.437A12.934,12.934,0,0,0,206.217,270.816Z"/><path fill="none" stroke="#c1976b" stroke-miterlimit="10" stroke-width=".346" d="M283.6,257.014a15.26,15.26,0,0,1,2.463,7.389,15.688,15.688,0,0,1-3.233,10.314"/><path fill="#c1976b" d="M275.23,261.27a42.97,42.97,0,0,0-10.628-9.944,39.572,39.572,0,0,0-13.4-5.565,42.752,42.752,0,0,0-14.525-.244,45.8,45.8,0,0,0-13.855,4.493,44.391,44.391,0,0,1,6.7-2.963,46.447,46.447,0,0,1,7.12-1.758,42.963,42.963,0,0,1,14.63.134A40.089,40.089,0,0,1,275.23,261.27Z"/><path fill="#c1976b" d="M215.99,254.77a1.5,1.5,0,0,1-.392.606,1.479,1.479,0,0,1-.628.354,1.507,1.507,0,0,1,1.02-.96Z"/><path fill="#c1976b" d="M212.88,258a1.662,1.662,0,0,1-.91,1.16,1.581,1.581,0,0,1,.319-.686A1.6,1.6,0,0,1,212.88,258Z"/><path fill="#c1976b" d="M210.97,260.6a1.344,1.344,0,0,1-.206.651,1.456,1.456,0,0,1-.494.479,1.221,1.221,0,0,1,.2-.656A1.354,1.354,0,0,1,210.97,260.6Z"/><path fill="none" stroke="#c1976b" stroke-miterlimit="10" stroke-width=".346" d="M330.605,261.4a15.274,15.274,0,0,0-2.463,7.389,15.7,15.7,0,0,0,3.233,10.315"/><path fill="#c88773" d="M362.15,376.31c-.23.07-.43.12-.64.18h-.01c-.42.11-.81.21-1.17.27-.03.05-.05.07-.07.11h-.01v.01h-.02c0,.01-.01.01-.01.02a.311.311,0,0,1-.04.06c-.02.03-.04.05-.08.1-.2.27-.42.55-.66.82s-.48.57-.74.85c-.53.6-1.11,1.21-1.74,1.82-2.28,2.28-5.04,4.65-7.84,6.98-.39.33-.79.65-1.19.98-.64.53-1.27,1.06-1.91,1.6-.15.11-.29.23-.43.34-.76.64-1.53,1.26-2.26,1.89-.9.76-1.99,1.67-3.3,2.7-.39.3-.79.61-1.2.91a3.335,3.335,0,0,1-.32.24c-1.14.85-2.38,1.73-3.77,2.62-.4.28-.83.54-1.26.8-.31.2-.64.4-.97.59-.12.08-.25.15-.37.23-.1.06-.2.11-.31.17s-.21.12-.32.18c-.21.12-.43.24-.64.36-.44.25-.88.49-1.35.73-.1.06-.21.11-.31.17a1.009,1.009,0,0,1-.15.07c-.15.09-.31.16-.47.24l-.96.48c-.06.03-.13.06-.19.09-.45.22-.91.43-1.39.64a.3.3,0,0,1-.08.04,3.039,3.039,0,0,1-.45.19c-.01.01-.01.01-.02.01a1.009,1.009,0,0,1-.15.07c0,.01-.01.01-.02.01-.38.16-.76.33-1.14.48-.35.15-.71.29-1.07.43-.97.38-1.98.75-3.03,1.09-.34.12-.7.23-1.05.33-.32.11-.64.2-.97.3-.25.07-.5.15-.75.21-.65.19-1.3.36-1.98.53-.51.12-1.02.23-1.55.34h-.02c-.2.06-.42.1-.62.14-.22.04-.43.08-.63.13-.16.02-.32.05-.47.08h-.02c-.04.01-.07.03-.1.01-.49.1-.97.18-1.44.25-.37.07-.74.13-1.11.17-.42.07-.84.12-1.26.16-.22.03-.45.06-.67.07-.91.1-1.75.18-2.55.23h-.02c-.22.01-.44.02-.65.04-.19.01-.39.01-.57.03-.33.01-.66.02-.97.04-.23,0-.45.01-.66.01v-.14a63.7,63.7,0,0,1-11.79-1.23c-.65-.14-1.31-.28-1.94-.43-.82-.19-1.64-.4-2.43-.62-.61-.17-1.22-.35-1.81-.54-.49-.16-.96-.31-1.43-.48-.41-.14-.82-.28-1.22-.43q-.81-.285-1.59-.6c-.48-.18-.94-.37-1.4-.57-.35-.15-.69-.3-1.03-.45-.42-.18-.84-.37-1.24-.56q-2.97-1.425-5.49-2.93c-2.06-1.23-3.91-2.48-5.51-3.64-.2-.14-.39-.28-.59-.43-.14-.11-.28-.21-.42-.31s-.27-.2-.4-.3c-.18-.14-.38-.28-.55-.43-.28-.21-.52-.4-.77-.6-.36-.29-.7-.56-1.03-.83-.38-.3-.73-.6-1.06-.86-.15-.14-.3-.26-.45-.38a76.148,76.148,0,0,1-14.12-15.66c-.03-.04-.05-.07-.07-.1-.18-.28-.36-.54-.54-.82l-.01-.01c-.34-.09-.7-.2-1.07-.33l-.15-.06c-.22-.08-.43-.17-.65-.26-.13-.06-.26-.12-.4-.19a.31.31,0,0,1-.13-.06c-.05-.02-.1-.04-.14-.06-.09-.05-.19-.1-.29-.16a.169.169,0,0,1-.05-.02c-.15-.08-.3-.16-.45-.25-.2-.11-.39-.23-.59-.36a7.5,7.5,0,0,1-.72-.48c-.24-.16-.49-.34-.74-.54-.16-.11-.33-.25-.51-.39.03.06.07.13.1.18.29.5.56,1,.87,1.5,1,1.74,2.08,3.56,3.23,5.43a191.668,191.668,0,0,0,11.84,17.72c1.28,1.65,2.65,3.34,4.13,5.07.35.4.71.82,1.07,1.23,5.25,5.99,10.13,11.46,15.92,15.7a43.135,43.135,0,0,0,13.52,6.78c4.82,1.43,11.39,1.87,11.83,1.99a44.784,44.784,0,0,0,11.7-1.84c10.96-3.26,18.19-10.04,25.55-18.27,1.23-1.36,2.46-2.78,3.71-4.2a93.256,93.256,0,0,0,7.58-10.19c3.35-5.05,6.19-9.78,9.92-13.67,1.27-1.35,4.31-3.56,5.47-4.98C364.32,376.21,364.06,375.7,362.15,376.31Zm-1.24.57.03-.06h.01C360.94,376.84,360.92,376.86,360.91,376.88Z"/><path fill="#8b6b45" d="M273.52,482.29c-.26-.25-.5-.49-.74-.73-.19-.19-.38-.38-.55-.57,1.27,4.53,2.5,9.27,3.66,14.21C275.07,490.95,274.2,486.71,273.52,482.29Z"/><path fill="#8b6b45" d="M285.07,558.13a360.032,360.032,0,0,0-9.18-62.93c-1.16-4.94-2.39-9.68-3.66-14.21-.78-.81-1.43-1.59-2.06-2.34-.01-.01-.01-.01-.01-.02-.11-.12-.21-.26-.31-.38-.17-.21-.33-.43-.5-.63-.96-1.22-1.87-2.4-3-3.6-2.37-2.57-11.45-10.32-11.57-10.44a.037.037,0,0,0-.02-.03l-.09-.08c-.09-.08-.21-.18-.31-.27-4.4-3.85-8.78-7.53-13.24-12.03l-.02-.02a.919.919,0,0,0-.29-.11l-.4-.59c-.93-.96-1.86-1.94-2.78-2.99-6.04-6.69-12.28-15.34-18.96-28.4,0-.02-.01-.02-.01-.03-.05-.11-.1-.2-.15-.31s-.1-.18-.14-.27c-.05-.11-.1-.2-.14-.3a2.9,2.9,0,0,1-.15-.31c-.75-1.57-2.06-4.26-2.82-5.8-.06-.12-.11-.21-.16-.32a3.31,3.31,0,0,1-.15-.33l-.01-.02v-.01c-.08-.14-.14-.29-.22-.43a.212.212,0,0,0-.03-.07.841.841,0,0,0-.1-.22,1.335,1.335,0,0,1-.11-.24c-.6-1.27-1.65-3.48-2.22-4.79-.1-.22-.21-.46-.31-.7-.26-.61-.54-1.27-.83-1.98a.509.509,0,0,0-.07-.17c-.02-.05-.04-.11-.06-.16a.037.037,0,0,1-.01-.03c-.09-.21-.17-.43-.25-.66-.16-.4-.32-.81-.49-1.26-.09-.21-.17-.42-.27-.65v-.02c-.04-.09-.08-.2-.12-.31-.39-1.03-.79-2.15-1.22-3.33-.16-.44-.31-.88-.48-1.34a4.883,4.883,0,0,0-.18-.54c-.11-.28-.2-.57-.29-.86-.08-.2-.14-.39-.21-.6-.08-.27-.19-.56-.28-.85-.09-.22-.15-.43-.23-.66-.09-.27-.18-.56-.27-.85-.08-.23-.17-.48-.23-.72-.53-1.61-1.07-3.34-1.62-5.15-.07-.25-.15-.51-.23-.78-.29-.95-.56-1.93-.86-2.94-.07-.24-.14-.49-.2-.72a1.6,1.6,0,0,0-.11-.33c-.06-.26-.13-.52-.2-.78-.11-.38-.22-.76-.32-1.15a.145.145,0,0,1-.02-.07c-.15-.52-.3-1.04-.44-1.58-.12-.48-.24-.94-.37-1.43-.1-.35-.19-.71-.29-1.06a1.062,1.062,0,0,1-.04-.19c-.09-.29-.15-.59-.24-.9-.18-.71-.37-1.45-.55-2.2-.1-.37-.2-.75-.28-1.12-.29-1.14-.57-2.29-.85-3.46-.18-.79-.37-1.58-.55-2.39-.16-.73-.33-1.48-.5-2.23-.2-.84-.38-1.71-.56-2.58a.334.334,0,0,1-.03-.15,1.255,1.255,0,0,1-.07-.26c-.06-.27-.12-.53-.16-.81-.06-.26-.12-.53-.19-.82-.32-1.56-.65-3.17-.97-4.82-.08-.38-.15-.79-.23-1.17-.18-.92-.35-1.83-.53-2.76-1.62-8.63-2.75-16.03-3.51-22.43-2.82-23.79-.55-33.83,1.02-42.38a28.011,28.011,0,0,1,.69-2.99c.08-.29.16-.56.24-.84.11-.3.2-.61.31-.9.09-.22.15-.44.24-.65.15-.43.32-.86.5-1.29.08-.21.17-.44.26-.67a.185.185,0,0,0,.05-.12c.09-.26.2-.53.31-.82a2.44,2.44,0,0,1,.14-.34c.16-.47.34-.99.54-1.54.15-.46.32-.96.49-1.49.01-.08.03-.13.04-.2a10.822,10.822,0,0,0,.32-1.13c.29-.96.58-2.07.88-3.34,3.41-14.27,2.28-25.87,2.36-28.83,0-.11.01-.23.01-.37.01-.27.03-.54.04-.83a3.553,3.553,0,0,0,.03-.46c.05-1.34.16-2.71.29-4.12.02-.27.05-.56.08-.85.16-1.45.34-2.91.55-4.39.03-.26.07-.53.11-.79.17-.13.34-.25.52-.37.01-.11.03-.21.04-.32.08-.64.16-1.24.25-1.88v-.01c.05-.33.1-.67.15-1.01l.06-.39c.11-.76.24-1.57.38-2.36.03-.16.06-.33.09-.49.06-.28.09-.5.17-.93.06-.42.2-1.13.31-1.69.27-1.42.58-3.02.88-4.44s.59-2.7.91-4.09c.05-.23.09-.43.15-.67.5-2.1,1.01-4.23,1.55-6.34.19-.71.37-1.43.56-2.14.36-1.37.73-2.71,1.1-4.07a.549.549,0,0,0,.05-.17c.16-.61.35-1.26.53-1.87.35-1.22.73-2.52,1.09-3.73.04-.14.08-.27.12-.41.39-1.33.75-2.49,1.15-3.8.16-.55.28-.95.47-1.57s.38-1.22.63-2.01.65-2.02.93-2.91c.11-.33.24-.69.36-1.06s.34-1.1.45-1.43.17-.51.24-.72c.36-1.09.7-2.12,1.04-3.18.1-.28.16-.49.25-.76s.23-.69.32-.93c.07-.22.11-.36.16-.53.35-1.06.71-2.14,1.08-3.17,1.32-3.68,2.64-7.4,4.2-10.96a93.435,93.435,0,0,1,4.6-8.75v-.01c1.68-2.9,3.53-5.89,5.28-8.67a.218.218,0,0,0,.05-.08c1.66-2.62,3.24-5.03,4.51-6.96.01-.01.02-.01.02-.02a.01.01,0,0,0,.01-.01c.65-.98,1.22-1.84,1.68-2.53.33-.48.6-.89.81-1.19.13-.2.23-.35.31-.47s.12-.19.14-.22.02-.08.03-.12c-.14-.04-.27-.07-.41-.11-.01,0-.02-.01-.03-.01a63.737,63.737,0,0,1-7.4-2.63c-1.06-.44-2.05-.91-3.07-1.39-.48-.24-.95-.47-1.42-.72s-.93-.51-1.39-.75c-.46-.27-.92-.53-1.37-.79s-.88-.56-1.32-.85a62.912,62.912,0,0,1-5.71-4.09,1.268,1.268,0,0,0-.49-.25,1.143,1.143,0,0,0-.86.03.037.037,0,0,1-.03.01c-.31.18-.29.05-.44.24-15.93,19.84-26.72,35.01-35.36,60.76-9.38,27.98-5.72,66.04-2.92,94.78,1.93,19.87,5.17,57.22,6.44,68.2,3.82,33,4.79,44.84,8.37,73.23,1.13,8.88,2.22,17.32,2.84,28.28,1.36,23.88-2.07,49.34-6.69,71.83-3.47,16.92-3.98,19.56-6.55,38.47-.55,4.05-.92,6.43-1.62,10.09,32.41,15.85,67.98,27,105.82,29.96C286.22,578.53,285.6,567.61,285.07,558.13ZM205.22,428.54c-.05-.26-.26-.59-.19-.8s.38-.29.56-.45A1.54,1.54,0,0,0,205.22,428.54Z"/><g id="eyeLeft"><path id="irisLeft" fill="#385883" d="M257.33,259.31c-.07-.37-.15-.73-.25-1.08-.05-.18-.11-.36-.16-.53s-.13-.35-.19-.52a27.314,27.314,0,0,0-10.18-4.02,26.776,26.776,0,0,0-12.38,2.02l-.01.01a1.983,1.983,0,0,0-.11.2c-.13.23-.25.46-.37.7a3.548,3.548,0,0,0-.21.44c-.08.17-.15.35-.22.53,0,.01-.01.01-.01.02-.07.17-.13.35-.19.53-.01.04-.03.08-.04.12a4.419,4.419,0,0,0-.15.48c-.07.24-.13.49-.18.73-.01.06-.03.12-.04.18a3.209,3.209,0,0,0-.07.43c-.01.06-.02.11-.03.17-.02.11-.03.21-.05.32a4.4,4.4,0,0,0-.05.51.277.277,0,0,0-.01.09c-.01.08-.01.17-.02.25-.01.23-.02.46-.02.7a12.3,12.3,0,0,0,1.12,5.14,45.879,45.879,0,0,0,8.43,1.73,58.766,58.766,0,0,0,13.64-.18,12.418,12.418,0,0,0,.83-1.52c.1-.22.19-.44.29-.67.06-.18.13-.36.19-.55s.13-.41.19-.62.12-.43.17-.65.09-.44.12-.66.07-.44.09-.66a3.408,3.408,0,0,0,.05-.55.17.17,0,0,0,.01-.07c.01-.25.02-.49.02-.74A12.239,12.239,0,0,0,257.33,259.31Zm-12.61,8.73a5.607,5.607,0,1,1,0-11.18,6.424,6.424,0,0,1,1.83.26l.1.03a.488.488,0,0,1,.07.03.358.358,0,0,1,.11.04,2.082,2.082,0,0,1,.32.12c.16.07.32.15.48.23a.37.37,0,0,1,.11.05,1.334,1.334,0,0,1,.28.16.218.218,0,0,1,.08.05c.03.02.06.03.09.05a1.941,1.941,0,0,1,.29.21,2.254,2.254,0,0,1,.3.24,3.824,3.824,0,0,1,.51.48c.08.08.15.17.22.25a2.34,2.34,0,0,1,.24.31,3.837,3.837,0,0,1,.32.5.746.746,0,0,1,.07.12v.02a1.739,1.739,0,0,1,.14.27c.04.1.08.19.12.28a.035.035,0,0,1,.01.02.01.01,0,0,1-.01.01.424.424,0,0,1,.06.14c.02.05.03.1.05.15a1.591,1.591,0,0,1,.09.33c.03.12.06.25.08.38a1.737,1.737,0,0,1,.05.39,3.866,3.866,0,0,1,.03.48A5.835,5.835,0,0,1,244.72,268.04Z"/><path id="pupilLeft" fill="#454342" d="M250.764,262.459a6.066,6.066,0,1,1-6.041-5.6A5.838,5.838,0,0,1,250.764,262.459Z"/><circle cx="250.847" cy="258.591" r="1.578" fill="#e5e6e6"/></g><path fill="#754e2a" d="M256.31,256.2v-.02a31.19,31.19,0,0,0-5.3-2.3,26.992,26.992,0,0,0-9.49-1.33,26.642,26.642,0,0,0-6.23,1.04,40.842,40.842,0,0,0-6.29,2.45,41.737,41.737,0,0,0-13.75,10.37c-.51-.04-1.02-.07-1.54-.11a6.754,6.754,0,0,1-4.3-1.75,7,7,0,0,1-2.17-5.22,7.076,7.076,0,0,0,7.2,5.33,9.373,9.373,0,0,1-3.09-2.16,9.473,9.473,0,0,1-.89-1.09,9.943,9.943,0,0,1-1.57-3.62,7.023,7.023,0,0,0,2.08,2.81,5.912,5.912,0,0,0,.79.57,7.1,7.1,0,0,0,4.1,1.03,9.734,9.734,0,0,1-3.75-2.89,1.92,1.92,0,0,1-.14-.15c-.04-.05-.07-.1-.11-.15a9.71,9.71,0,0,1-1.84-5.13,10.02,10.02,0,0,0,2.86,4.12l.21.18c.14.11.28.21.42.32a10.09,10.09,0,0,0,4.51,1.85c.41-.3.82-.62,1.24-.93a11.022,11.022,0,0,1-4.09-3.42,1.826,1.826,0,0,0-.13-.16.673.673,0,0,1-.07-.11,11.456,11.456,0,0,1-1.98-6.16,9.891,9.891,0,0,0,3,5.2c.08.08.17.15.26.23a1.538,1.538,0,0,0,.13.12,9.893,9.893,0,0,0,5.44,2.16q2.1-1.08,4.21-2.16a8.911,8.911,0,0,1-2.46-2.98,8.038,8.038,0,0,1-.71-1.94,1.286,1.286,0,0,1-.04-.19,9.823,9.823,0,0,1,.12-4.44,10.318,10.318,0,0,0,1.08,3.83.754.754,0,0,0,.06.13,9.386,9.386,0,0,0,1.23,1.79,9.553,9.553,0,0,0,3.59,2.56c1.12-.16,2.26-.34,3.38-.51a8.107,8.107,0,0,1-.71-2.87,8.344,8.344,0,0,1,.71-3.91,7.427,7.427,0,0,0,.62,3.5,7.165,7.165,0,0,0,1.96,2.56l1.52-.21.02-.01c1.19-.16,2.39-.32,3.58-.5a5.565,5.565,0,0,1-1.09-3.1,5.9,5.9,0,0,1,.58-2.61c.1.31.79,2.09,1.23,3.56v.01a3.462,3.462,0,0,0,1.45,1.83c1.35.24,2.73.49,4.1.72a4.549,4.549,0,0,1-.21-2.86,3.065,3.065,0,0,1,.11-.36,4.78,4.78,0,0,1,1.73-2.32,9.974,9.974,0,0,0-.3,2.52v.16a9.557,9.557,0,0,0,.72,3.38c.91.3,1.83.61,2.74.93.21.05.43.13.64.2a4.867,4.867,0,0,1-.4-1.95,4.456,4.456,0,0,1,.15-1.19,5.636,5.636,0,0,1,1.48-2.61,11.01,11.01,0,0,0-.19,2.46c.01.38.05.76.09,1.12a11.456,11.456,0,0,0,.72,2.57c.85.48,1.71.93,2.57,1.4.34.18.68.38,1.02.56a5.767,5.767,0,0,1,2.68-5.24,16.4,16.4,0,0,0-.83,2.56,19.787,19.787,0,0,0-.52,3.5c.77.63,1.54,1.27,2.3,1.89A34.741,34.741,0,0,0,256.31,256.2Z"/><path fill="#765a37" d="M332.01,104.56v-.01c-.35-.09-.71-.17-1.07-.25-.03,0-.05-.01-.08-.01-.01,0-.01,0-.02-.01s-.02,0-.02-.01c-.32-.08-.65-.15-.97-.22-.34-.08-.68-.15-1.03-.22-.61-.13-1.22-.26-1.84-.38-.14-.03-.28-.05-.42-.08,0,0-.52-.06-1.48-.2-.08,0-.18-.02-.28-.03-.45-.06-.99-.13-1.59-.2-.47-.05-.97-.11-1.52-.16-.4-.06-.83-.1-1.28-.14-.44-.06-.9-.1-1.37-.15-.83-.07-1.69-.15-2.6-.24a1.477,1.477,0,0,0-.21-.01c-4.41-.4-9.76-.74-14.97-.76h-.4c-.48,0-.96,0-1.44.01-.37,0-.75,0-1.11.01-.83.02-1.65.05-2.45.09-.29.01-.58.02-.87.04h-.13c-1.17.07-2.32.16-3.42.29-.17.01-.33.04-.5.05a40,40,0,0,0-4.49.79c-21.05,5.16-35.75,13.74-46.53,24.83-.02.01-.03.03-.05.04v.01c-.06.05-.11.11-.16.16-.14-.04-.31-.07-.48-.12-.01,0-.03-.01-.04-.01a1.675,1.675,0,0,0-.27-.06,1.15,1.15,0,0,0-.17-.06,58.48,58.48,0,0,1-7.68-2.7c-1.05-.46-2.06-.93-3.06-1.44-.47-.24-.94-.49-1.41-.74s-.93-.51-1.39-.77-.91-.54-1.35-.8c-.45-.28-.89-.57-1.32-.85a53.763,53.763,0,0,1-6.11-4.7c-.09-.08-.18-.16-.26-.24-7.09-6.37-11.91-14.4-13.51-23.12-4.74-25.82,20.68-47.51,41.05-53.37,12.01-3.45,24.37-2.03,35.77,2.3,1.93.73,3.84,1.54,5.71,2.43a88.756,88.756,0,0,1,21.85,14.93l.17.17a.924.924,0,0,1,.14.14c7.66,7.15,13.59,15.2,16.82,22.73,1.65,3.8,5.29,13.76,8.57,23.12a1.173,1.173,0,0,1,.05.11C332.53,104.68,332.27,104.62,332.01,104.56Z"/><path fill="#c1976b" d="M260.045,327.932a81.736,81.736,0,0,1-7.522,9.957,110.035,110.035,0,0,1-8.672,8.993c-1.557,1.389-3.152,2.722-4.766,4.041a46.114,46.114,0,0,1-5.068,3.663c-1.792,1.077-3.682,1.958-5.545,2.881q-2.81,1.353-5.579,2.794,2.73-1.512,5.5-2.945c1.853-.946,3.734-1.841,5.5-2.926a45.986,45.986,0,0,0,5.006-3.69c1.595-1.329,3.181-2.679,4.716-4.075a109.943,109.943,0,0,0,8.73-8.887q2.064-2.337,4-4.787C257.64,331.326,258.89,329.663,260.045,327.932Z"/><path fill="#c1976b" d="M347.077,327.521c1.155,1.731,2.405,3.395,3.7,5.019s2.619,3.229,4,4.787a109.955,109.955,0,0,0,8.73,8.888c1.535,1.4,3.12,2.746,4.716,4.075a45.977,45.977,0,0,0,5.006,3.689c1.766,1.086,3.647,1.981,5.5,2.926s3.684,1.937,5.5,2.945q-2.77-1.437-5.58-2.794c-1.862-.922-3.752-1.8-5.544-2.88a46.379,46.379,0,0,1-5.068-3.663c-1.614-1.319-3.209-2.653-4.766-4.042a110.183,110.183,0,0,1-8.672-8.992A81.644,81.644,0,0,1,347.077,327.521Z"/><path fill="#ae9483" d="M368.6,203.64c-.26-.06-.53-.13-.79-.2-.72-2.05-1.53-4.25-2.44-6.58v-.01q-1-2.565-2.17-5.33a.04.04,0,0,0-.02-.04q-.645-1.53-1.35-3.12a208.042,208.042,0,0,0-70.74-86.28,1.431,1.431,0,0,0-.15-.11c.17-.01.33-.04.5-.05,1.1-.13,2.25-.22,3.42-.29h.13c.29-.02.58-.03.87-.04.8-.04,1.62-.07,2.45-.09.36-.01.74-.01,1.11-.01.48-.01.96-.01,1.44-.01h.4c5.21.02,10.56.36,14.97.76a1.477,1.477,0,0,1,.21.01c.91.09,1.77.17,2.6.24.47.05.93.09,1.37.15.45.04.88.08,1.28.14.55.05,1.05.11,1.52.16.6.07,1.14.14,1.59.2.1.01.2.03.28.03.96.14,1.48.2,1.48.2.14.03.28.05.42.08.62.12,1.23.25,1.84.38.35.07.69.14,1.03.22s.66.15.99.23c.01.01.01.01.02.01.03,0,.05.01.08.01.36.08.72.16,1.07.25v.01c.26.06.52.12.78.19a1.173,1.173,0,0,0-.05-.11c.28.05.56.12.83.19.91,2.55,1.78,5.04,2.57,7.36,2.87,8.36,4.68,14.09,8.53,24.42.63,1.69,3.04,8.15,6.6,16.98,5.11,12.67,9.23,21.89,9.82,23.26C364.06,183.6,366.48,192.82,368.6,203.64Z"/><path fill="#d6d7d7" d="M359.44,267.67h-.01c-.96-.1-1.98-.21-3.07-.33a17.81,17.81,0,0,0-4.52-.21,96.938,96.938,0,0,0-9.79,1.88c-1.94.36-2.76-1.06-1.84-1.95,1.89-1.86,3.87-1.48,8.14-3.63,3.12-1.55,4.1-2.62,6.9-4.77a32.24,32.24,0,0,1,3.03-2.08c-.08.24-.17.48-.24.73a4.775,4.775,0,0,0-.15.54,5.027,5.027,0,0,0-.16.67,4.048,4.048,0,0,0-.09.48,2.336,2.336,0,0,0-.04.26c-.04.28-.07.55-.09.84v.02c-.02.28-.03.57-.03.86q0,.4.03.81a4.886,4.886,0,0,0,.05.55q.03.33.09.66a8.767,8.767,0,0,0,.25,1.13,11,11,0,0,0,.71,2.02A12.418,12.418,0,0,0,359.44,267.67Z"/><g id="eyeRight"><path id="irisRight" fill="#385883" d="M374.67,265.7a6.063,6.063,0,0,1-1.55,1.08c-.07.04-.14.07-.21.11a.487.487,0,0,0-.11.04c-.06.02-.12.05-.19.07a.142.142,0,0,1-.06.02,1.985,1.985,0,0,1-.41.14,3.27,3.27,0,0,1-.54.13,4.491,4.491,0,0,1-.64.1,4.922,4.922,0,0,1-.67.04,6.357,6.357,0,0,1-2.87-.68,3.53,3.53,0,0,1-.5-.28,5.062,5.062,0,0,1-.8-.6c-.06-.05-.13-.11-.19-.17-.08-.08-.16-.16-.23-.24a1.68,1.68,0,0,1-.18-.21,2.923,2.923,0,0,1-.32-.42,4.987,4.987,0,0,1-.79-1.72l-.06-.27a.037.037,0,0,1-.01-.03,2.868,2.868,0,0,1-.05-.31c0-.05-.01-.11-.01-.16a4.028,4.028,0,0,1-.03-.49,5.844,5.844,0,0,1,6.04-5.6,6.494,6.494,0,0,1,.77.05c.12.01.24.03.35.05l.31.06c.02,0,.03.01.05.01.17.04.34.09.5.14.12.04.24.08.36.13a5.748,5.748,0,0,1,.93.46c-.19-1.52-.39-3.04-.58-4.57a14.918,14.918,0,0,0-1.65-.1c-.11-.01-.23-.01-.34-.01a24.178,24.178,0,0,0-2.53.08,27.288,27.288,0,0,0-10.17,4.02l-.01.01c-.08.24-.17.48-.24.73a5.437,5.437,0,0,0-.15.54,5.027,5.027,0,0,0-.16.67c-.03.16-.06.31-.09.48a2.336,2.336,0,0,0-.04.26q-.06.42-.09.84v.02c-.02.28-.03.57-.03.86q0,.4.03.81a3.408,3.408,0,0,0,.05.55q.03.33.09.66a8.767,8.767,0,0,0,.25,1.13,11,11,0,0,0,.71,2.02,11.666,11.666,0,0,0,.82,1.52h.01a59.314,59.314,0,0,0,13.24.22l.34-.03c.02,0,.04-.01.06-.01.73-.08,1.3-.15,1.84-.22C374.84,266.99,374.75,266.35,374.67,265.7Z"/><path id="pupilRight" fill="#454342" d="M374.671,265.687v.014a6.3,6.3,0,0,1-4.378,1.732,5.608,5.608,0,1,1,0-11.182,6.323,6.323,0,0,1,3.27.9C373.937,259.979,374.3,262.833,374.671,265.687Z"/></g><path fill="#c1976b" d="M355.024,273.183a51.513,51.513,0,0,0,5.084,2.03,40.625,40.625,0,0,0,5.272,1.413,41.626,41.626,0,0,0,5.413.724c1.818.151,3.642.245,5.471.239a42.078,42.078,0,0,1-5.49.027,37.654,37.654,0,0,1-5.462-.65,36.995,36.995,0,0,1-5.292-1.5A36.6,36.6,0,0,1,355.024,273.183Z"/><path fill="#c1976b" d="M371.9,244.267a44.36,44.36,0,0,0-4.668.292,28.592,28.592,0,0,0-4.591.816,38.118,38.118,0,0,0-8.7,3.325,40.929,40.929,0,0,0-7.729,5.2,39.85,39.85,0,0,0-3.387,3.214,39.3,39.3,0,0,0-3.045,3.548,37.58,37.58,0,0,1,6.282-6.937,41.094,41.094,0,0,1,7.719-5.326,38.365,38.365,0,0,1,8.8-3.242A34.489,34.489,0,0,1,371.9,244.267Z"/><path fill="#754e2a" d="M372.88,251.93c-.55-.01-1.08-.01-1.61.01a27.521,27.521,0,0,0-7.27,1.33,31.426,31.426,0,0,0-5.29,2.3v.02a34.92,34.92,0,0,0-4.45,2.86c.76-.62,1.54-1.26,2.3-1.89a18.468,18.468,0,0,0-1.34-6.06,5.944,5.944,0,0,1,2.37,2.98,5.76,5.76,0,0,1,.3,2.26c.35-.18.68-.38,1.03-.56.86-.47,1.72-.92,2.56-1.39a11.194,11.194,0,0,0,.72-2.58c.04-.36.08-.74.1-1.12a10.39,10.39,0,0,0-.2-2.46,5.716,5.716,0,0,1,1.49,2.61,4.9,4.9,0,0,1,.15,1.19,5.045,5.045,0,0,1-.4,1.95c.21-.07.43-.15.63-.2.92-.32,1.83-.63,2.75-.93a9.729,9.729,0,0,0,.72-3.38v-.16a9.919,9.919,0,0,0-.31-2.52,4.778,4.778,0,0,1,1.74,2.32,3.065,3.065,0,0,1,.11.36,4.7,4.7,0,0,1-.21,2.86l2.4-.42c.54-.09,1.07-.19,1.6-.28C372.81,251.33,372.86,251.62,372.88,251.93Z"/><path fill="#d6d7d7" d="M255.154,376.154v.14a.17.17,0,0,0,.01.07c.01.73.11,1.74.2,2.61.06.66.1,1.2.18,1.68.04.18.07.36.12.53a4.826,4.826,0,0,0,.16.5c.05.12.1.23.15.34.09.18.18.35.28.51a2.128,2.128,0,0,0,.16.25c.12.15.23.31.35.45a6.023,6.023,0,0,0,.55.57c.07.06.13.11.19.16a2.729,2.729,0,0,0,.86.52.542.542,0,0,0,.47,0c.01-.01.01-.01.02-.01s.01-.01.02-.02l.03-.03a.558.558,0,0,0,.05-.08c0-.01.01-.02.01-.03a.35.35,0,0,0,.03-.12.09.09,0,0,0,.01-.05.41.41,0,0,0,.01-.11.019.019,0,0,0,0-.03v-.01a.2.2,0,0,0,.01-.08v-.02a.708.708,0,0,0-.01-.14v-.01a.97.97,0,0,0-.01-.17v-.01a4.23,4.23,0,0,0-.07-.43c.17.65.42,1.51.76,2.49.07.21.14.4.21.58.14.37.26.71.38,1.01.08.19.15.37.23.54.07.15.13.29.21.43a6.758,6.758,0,0,0,.61.99c.8,1.08,2.74,3.06,4.01,2.44a1.273,1.273,0,0,0,.39-.3,1.491,1.491,0,0,0,.15-.2,2.69,2.69,0,0,0,.24-.48c.03-.08.06-.17.09-.26.05-.18.09-.36.13-.54a7.232,7.232,0,0,0,1.07,3.74c.1.16.22.33.34.5a.423.423,0,0,0,.05.07c.12.15.24.3.36.44l.39.42a8.418,8.418,0,0,0,.89.78,4.345,4.345,0,0,0,.57.38,5.5,5.5,0,0,0,1.24.56c.11.03.21.06.32.08.01.02.01.02.02.02h.01a2.085,2.085,0,0,0,.92.23c.03,0,.06-.01.09-.01h.04a.887.887,0,0,0,.14-.03h.05c.01-.01.01-.01.03-.01v.01a1.312,1.312,0,0,0,.66-.01,3.032,3.032,0,0,0,1.31-1.06.649.649,0,0,0,.05.22.776.776,0,0,0,.05.18.749.749,0,0,0,.05.16,4.525,4.525,0,0,0,.15.44,5.954,5.954,0,0,0,.31.62,1.181,1.181,0,0,0,.15.25.7.7,0,0,0,.14.21,6.14,6.14,0,0,0,3.99,2.26c.25.04.5.07.74.1.28.02.57.04.88.04a.5.5,0,0,0,.16-.02c.01.01.02,0,.03,0a.127.127,0,0,0,.06.01c.03,0,.07-.01.11-.01h.03c.08,0,.16-.01.25-.01a2.632,2.632,0,0,0,.47-.04,4.649,4.649,0,0,0,.61-.08,1.089,1.089,0,0,0,.26-.05,1.373,1.373,0,0,0,.28-.05c.19-.04.38-.08.58-.14a4.235,4.235,0,0,0,.58-.17h.67v.01a2.1,2.1,0,0,0,.22.33,9.029,9.029,0,0,0,.86,1.15q.18.21.39.42a11.275,11.275,0,0,0,1.41,1.18c.15.1.29.2.44.29a10.039,10.039,0,0,0,3.26,1.24,3.474,3.474,0,0,0,.55.08,15.125,15.125,0,0,0,6.9-.83,3.6,3.6,0,0,0,.9-.79,3.5,3.5,0,0,0,.8-2.18c.06-2.28.12-4.55.18-6.83a2.075,2.075,0,0,0-.03-.43.772.772,0,0,0-.02-.15.17.17,0,0,0-.01-.07c0-.02-.02-.04-.03-.07v-.01a1.7,1.7,0,0,0-.1-.32,1.414,1.414,0,0,0-.18-.37,8.348,8.348,0,0,0-2.07-2.32c-.14-.1-.29-.21-.45-.31-.02-.01-.04-.03-.07-.05a.161.161,0,0,1-.07-.04.442.442,0,0,0-.15-.08,11.323,11.323,0,0,0-4.12-1.12c-.23-.02-.47-.04-.69-.05a1.148,1.148,0,0,0-.19.01h-.07a3.028,3.028,0,0,0-.31.02c-.3.03-.54.07-.73.1a10.234,10.234,0,0,0-5.54,2.83c-.1-.18-.23-.39-.36-.61a11.748,11.748,0,0,0-1.64-2.03c-.1-.1-.21-.21-.32-.31-.08-.08-.16-.15-.24-.23-.15-.15-.31-.29-.47-.44a2.622,2.622,0,0,0-.25-.22q-.255-.225-.51-.42a4.675,4.675,0,0,0-3.38-1.19,3.72,3.72,0,0,0-1.64.6h-.02a6.084,6.084,0,0,0-1.1.92,7.308,7.308,0,0,0-.53.65,1.431,1.431,0,0,0-.11.15.01.01,0,0,0-.01.01,1.766,1.766,0,0,0-.04-.2c-.01-.04-.02-.09-.03-.14a.292.292,0,0,0-.02-.09.487.487,0,0,0-.04-.11.762.762,0,0,0-.06-.2c-.02-.07-.05-.15-.07-.23-.07-.2-.15-.41-.25-.64a6.1,6.1,0,0,0-1.52-2.08,6.589,6.589,0,0,0-.54-.42q-.24-.165-.48-.3a6.323,6.323,0,0,0-1.69-.62,5.828,5.828,0,0,0-.79-.12h-.01a8.058,8.058,0,0,0-.96-.03,1.927,1.927,0,0,0-.24.01c-.23.02-.43.04-.59.06s-.29.04-.37.05a7.658,7.658,0,0,0-2.91,1.19,14.687,14.687,0,0,0-1.12-1.33c-.31-.34-.64-.68-1.01-1.02-.2-.18-.39-.35-.6-.53a17.276,17.276,0,0,0-3.61-2.3,5.026,5.026,0,0,0-.74-1.33,6.352,6.352,0,0,0-.54-.61,1.92,1.92,0,0,0-.15-.14,7.578,7.578,0,0,0-.92-.75c-.01-.01-.03-.02-.04-.03-.09-.06-.17-.11-.26-.16-.21-.03-.42-.06-.61-.08S255.344,376.174,255.154,376.154Z"/><path fill="#d6d7d7" d="M349.009,376.32c0,.74-.11,1.86-.21,2.82-.06.66-.1,1.2-.18,1.68-.04.18-.07.36-.12.53a4.826,4.826,0,0,1-.16.5c-.05.12-.1.23-.15.34-.09.18-.18.35-.28.51a2.128,2.128,0,0,1-.16.25c-.12.15-.23.31-.35.45a6.023,6.023,0,0,1-.55.57c-.07.06-.13.11-.19.16a2.729,2.729,0,0,1-.86.52.542.542,0,0,1-.47,0c-.01-.01-.01-.01-.02-.01s-.01-.01-.02-.02l-.03-.03a.558.558,0,0,1-.05-.08c0-.01-.01-.02-.01-.03a.35.35,0,0,1-.03-.12.09.09,0,0,1-.01-.05.41.41,0,0,1-.01-.11.019.019,0,0,1,0-.03v-.01a.2.2,0,0,1-.01-.08v-.02a.708.708,0,0,1,.01-.14v-.01a.97.97,0,0,1,.01-.17v-.01a4.23,4.23,0,0,1,.07-.43c-.17.65-.42,1.51-.76,2.49-.07.21-.14.4-.21.58-.14.37-.26.71-.38,1.01-.08.19-.15.37-.23.54-.07.15-.13.29-.21.43a6.758,6.758,0,0,1-.61.99c-.8,1.08-2.74,3.06-4.01,2.44a1.273,1.273,0,0,1-.39-.3,1.491,1.491,0,0,1-.15-.2,2.69,2.69,0,0,1-.24-.48c-.03-.08-.06-.17-.09-.26-.05-.18-.09-.36-.13-.54a7.232,7.232,0,0,1-1.07,3.74c-.1.16-.22.33-.34.5a.423.423,0,0,1-.05.07c-.12.15-.24.3-.36.44l-.39.42a8.418,8.418,0,0,1-.89.78,4.345,4.345,0,0,1-.57.38,5.5,5.5,0,0,1-1.24.56c-.11.03-.21.06-.32.08-.01.02-.01.02-.02.02h-.01a2.085,2.085,0,0,1-.92.23c-.03,0-.06-.01-.09-.01h-.04a.887.887,0,0,1-.14-.03h-.05c-.01-.01-.01-.01-.03-.01v.01a1.312,1.312,0,0,1-.66-.01,3.032,3.032,0,0,1-1.31-1.06.649.649,0,0,1-.05.22.776.776,0,0,1-.05.18.749.749,0,0,1-.05.16,4.525,4.525,0,0,1-.15.44,5.954,5.954,0,0,1-.31.62,1.181,1.181,0,0,1-.15.25.7.7,0,0,1-.14.21,6.14,6.14,0,0,1-3.99,2.26c-.25.04-.5.07-.74.1-.28.02-.57.04-.88.04a.5.5,0,0,1-.16-.02c-.01.01-.02,0-.03,0a.127.127,0,0,1-.06.01c-.03,0-.07-.01-.11-.01h-.03c-.08,0-.16-.01-.25-.01a2.632,2.632,0,0,1-.47-.04,4.649,4.649,0,0,1-.61-.08,1.089,1.089,0,0,1-.26-.05,1.373,1.373,0,0,1-.28-.05c-.19-.04-.38-.08-.58-.14a4.235,4.235,0,0,1-.58-.17.351.351,0,0,1-.05.08c-.02.03-.04.05-.06.08-.18-.05-.37-.1-.56-.16v.01a2.1,2.1,0,0,1-.22.33,9.029,9.029,0,0,1-.86,1.15q-.18.21-.39.42a11.275,11.275,0,0,1-1.41,1.18c-.15.1-.29.2-.44.29a10.039,10.039,0,0,1-3.26,1.24,3.474,3.474,0,0,1-.55.08,15.125,15.125,0,0,1-6.9-.83,3.6,3.6,0,0,1-.9-.79,3.5,3.5,0,0,1-.8-2.18c-.06-2.28-.12-4.55-.18-6.83a2.81,2.81,0,0,1,.06-.65c0-.02.02-.04.03-.07a1.8,1.8,0,0,1,.1-.33,1.414,1.414,0,0,1,.18-.37,8.348,8.348,0,0,1,2.07-2.32c.14-.1.29-.21.45-.31.02-.01.04-.03.07-.05a.161.161,0,0,0,.07-.04.442.442,0,0,1,.15-.08,11.323,11.323,0,0,1,4.12-1.12c.23-.02.47-.04.69-.05a1.148,1.148,0,0,1,.19.01h.07a3.028,3.028,0,0,1,.31.02c.3.03.54.07.73.1a10.234,10.234,0,0,1,5.54,2.83c.1-.18.23-.39.36-.61a11.748,11.748,0,0,1,1.64-2.03c.1-.1.21-.21.32-.31.08-.08.16-.15.24-.23.15-.15.31-.29.47-.44a2.622,2.622,0,0,1,.25-.22q.255-.225.51-.42a4.675,4.675,0,0,1,3.38-1.19,3.72,3.72,0,0,1,1.64.6h.02a6.084,6.084,0,0,1,1.1.92,7.308,7.308,0,0,1,.53.65,1.431,1.431,0,0,1,.11.15.01.01,0,0,1,.01.01,1.766,1.766,0,0,1,.04-.2c.01-.07.03-.15.05-.23.05-.16.1-.34.17-.54s.15-.41.25-.64a6.1,6.1,0,0,1,1.52-2.08,6.589,6.589,0,0,1,.54-.42q.24-.165.48-.3a6.323,6.323,0,0,1,1.69-.62,5.828,5.828,0,0,1,.79-.12h.01a8.058,8.058,0,0,1,.96-.03,1.927,1.927,0,0,1,.24.01c.23.02.43.04.59.06s.29.04.37.05a7.658,7.658,0,0,1,2.91,1.19,14.687,14.687,0,0,1,1.12-1.33c.31-.34.64-.68,1.01-1.02.2-.18.39-.35.6-.53a17.276,17.276,0,0,1,3.61-2.3,5.026,5.026,0,0,1,.74-1.33,6.352,6.352,0,0,1,.54-.61,1.92,1.92,0,0,1,.15-.14,7.578,7.578,0,0,1,.92-.75c.1-.07.2-.13.3-.19.21-.03.42-.06.61-.08S348.819,376.34,349.009,376.32Z"/><path fill="#d6d7d7" d="M334.719,384.541a8.058,8.058,0,0,0-.96.03A6.387,6.387,0,0,1,334.719,384.541Z"/><path fill="#d6d7d7" d="M312.6,321.87c-.04,2.68-.1,5.74-.15,9.19-.03,1.92-.12,5.47-.93,6.56-.52.7-1.26.3-1.69-.83-.65-1.71-.42-4.89-.31-6.55.07-.98.11-1.98.15-2.98.24-5.93.03-11.97.16-17.94.18-8.91.01-9.89.3-15.99.21-4.13.58-11.87,1.08-11.89.54,0,.9,9.1,1.54,25.43C312.81,308.22,312.74,312.96,312.6,321.87Z"/><path fill="#caa57f" d="M285.791,352.9c-.4.305-.616.463-.776.565s-.239.13-.293.123a.251.251,0,0,1-.025-.08,1.221,1.221,0,0,1,.05-.192c.052-.161.148-.393.339-.819l-.062-.116.067-.01h.138l0,.01-.033-.06.388.187.3.294Z"/><path fill="#caa57f" d="M281.849,341.808a4.189,4.189,0,0,1,.406,1.175c.065.394.091.805.146,1.042.136.451.312,1.132.447,1.812.036.338.1.711.127,1.036,0,.333.056.652.046.994a20.078,20.078,0,0,1-.031,2.218l-.12.07a8.949,8.949,0,0,1-.891-1.974,17.944,17.944,0,0,1-.494-2.1,8.644,8.644,0,0,1-.17-2.169c.128-.728.315-1.4.4-2.115Z"/><path fill="#caa57f" d="M322.657,342.549a8.981,8.981,0,0,1,.725.942,3.939,3.939,0,0,1,.544,1.054,5.663,5.663,0,0,1,.056,2.442c-.083.361-.155.7-.261,1.068a6.464,6.464,0,0,1-.454,1.067,4.114,4.114,0,0,1-1.657,1.753l-.123-.065a13.283,13.283,0,0,0,1.131-4.061,8.243,8.243,0,0,0,.227-2.08c-.1-.681-.268-1.4-.326-2.1Z"/><path fill="#bc9065" d="M334.06,322.647l.041,0h0a24.5,24.5,0,0,1,4.308,5.305,24.12,24.12,0,0,1,2.621,6.376,28.5,28.5,0,0,1,.857,6.865,16.239,16.239,0,0,1-1.474,6.847,12.705,12.705,0,0,1-8.028,6.579,7.354,7.354,0,0,1-1.818.241,2.464,2.464,0,0,1-1.9-.769,1.889,1.889,0,0,1-.361-1.05,4.633,4.633,0,0,1,.085-.941c.109-.589.271-1.133.38-1.668a2.545,2.545,0,0,0,0-1.459,1.175,1.175,0,0,0-1.125-.606,7.843,7.843,0,0,0-3.175.779,12.49,12.49,0,0,0-2.916,1.7,10.878,10.878,0,0,1,2.782-1.984,8.208,8.208,0,0,1,3.319-1.077,2.236,2.236,0,0,1,.956.176,1.514,1.514,0,0,1,.762.719,3.156,3.156,0,0,1,.143,1.885c-.091.582-.226,1.136-.3,1.667a1.676,1.676,0,0,0,.163,1.283,1.594,1.594,0,0,0,1.2.347,6.58,6.58,0,0,0,1.54-.251,12.02,12.02,0,0,0,7.225-6.089,15.339,15.339,0,0,0,1.42-6.348,31.274,31.274,0,0,0-.623-6.642,23.614,23.614,0,0,0-2.239-6.294,27.247,27.247,0,0,0-3.8-5.586h0Z"/><path fill="#be9164" d="M328,351.39c-1.98-1.82-6.83,1.32-8.59,2.36-.16.09-.3.16-.4.22-.02,0-.03.01-.05.02-.29.15.01-.23.55-.78.01-.01.02-.03.03-.04l.22-.22a.346.346,0,0,1,.11-.1c.2-.22.42-.44.63-.65.43-.43.87-.84,1.23-1.17a.01.01,0,0,1,.01-.01c.26-.25.48-.44.61-.56a.629.629,0,0,0,.11-.08,1.429,1.429,0,0,1,.2-.14,15.948,15.948,0,0,1,4.16-1.89,2.315,2.315,0,0,1,.77-.09.473.473,0,0,1,.17.01.776.776,0,0,1,.56.33C328.74,349.27,328.82,352.16,328,351.39Z"/><path fill="none" stroke="#bc9065" stroke-miterlimit="10" stroke-width=".831" d="M328,351.39c-1.98-1.82-6.83,1.32-8.59,2.36-.16.09-.3.16-.4.22-.02,0-.03.01-.05.02-.29.15.01-.23.55-.78.01-.01.02-.03.03-.04l.22-.22a.346.346,0,0,1,.11-.1c.2-.22.42-.44.63-.65.43-.43.87-.84,1.23-1.17a.01.01,0,0,1,.01-.01c.26-.25.48-.44.61-.56a.629.629,0,0,0,.11-.08,1.429,1.429,0,0,1,.2-.14,15.948,15.948,0,0,1,4.16-1.89,2.315,2.315,0,0,1,.77-.09.473.473,0,0,1,.17.01.776.776,0,0,1,.56.33C328.74,349.27,328.82,352.16,328,351.39Z"/><path fill="#be9164" d="M285.3,353.13c-.97-.54-6.57-3.67-8.59-1.38a.943.943,0,0,1-.1.1c-.4.31-.45-.72-.33-1.7a4.332,4.332,0,0,1,.33-1.36c.25-.47.82-.48,1.31-.36a11.9,11.9,0,0,1,4.01,1.75C282.28,350.5,285.99,353.51,285.3,353.13Z"/><path fill="none" stroke="#bc9065" stroke-miterlimit="10" stroke-width=".798" d="M285.3,353.13c-.97-.54-6.57-3.67-8.59-1.38a.943.943,0,0,1-.1.1c-.4.31-.45-.72-.33-1.7a4.332,4.332,0,0,1,.33-1.36c.25-.47.82-.48,1.31-.36a11.9,11.9,0,0,1,4.01,1.75C282.28,350.5,285.99,353.51,285.3,353.13Z"/><path fill="url(#linear-gradient-2)" d="M359.44,267.67h-.01c-.96-.1-1.98-.21-3.07-.33a17.81,17.81,0,0,0-4.52-.21,96.938,96.938,0,0,0-9.79,1.88c-1.94.36-2.76-1.06-1.84-1.95,1.89-1.86,3.87-1.48,8.14-3.63,3.12-1.55,4.1-2.62,6.9-4.77a32.24,32.24,0,0,1,3.03-2.08c-.08.24-.17.48-.24.73a4.775,4.775,0,0,0-.15.54,5.027,5.027,0,0,0-.16.67,4.048,4.048,0,0,0-.09.48,2.336,2.336,0,0,0-.04.26c-.04.28-.07.55-.09.84v.02c-.02.28-.03.57-.03.86q0,.4.03.81a4.886,4.886,0,0,0,.05.55q.03.33.09.66a8.767,8.767,0,0,0,.25,1.13,11,11,0,0,0,.71,2.02A12.418,12.418,0,0,0,359.44,267.67Z"/><path fill="#8b6b45" d="M331.6,51.83h-.01C331.61,51.85,331.62,51.86,331.6,51.83Z"/><path fill="#8b6b45" d="M506.91,431.66c-.17-2.56-.36-5.19-.61-7.87-1.7-19.31-5.32-38.36-7.65-58.21-.07-.53-.11-.91-.26-1.79a1.167,1.167,0,0,0,.11.28c0-.01-.01-.02-.01-.04-3.95-29.9-3.61-33.75-12.83-72.41-2.68-11.17-17.99-70.26-28.09-89.54-.79-1.53-4.18-12.61-4.84-13.79-.16-.28-.64-1.69-.79-1.93a14.7,14.7,0,0,1-.64-1.66c-4.6-12.85-13.02-33.29-17.85-44.39-9.63-22.16-23.87-43.12-40.4-56.76-20.81-17.17-36.82-25.34-61.53-31.83,0,.01.04.05.06.09-.03-.02-.02,0-.02,0a21.781,21.781,0,0,0-2.84-.86,308.885,308.885,0,0,0-49.11-9.87.125.125,0,0,0-.13.04.174.174,0,0,0,.01.3,112,112,0,0,1,24.43,17.79,20.652,20.652,0,0,1,1.54,1.58,79.627,79.627,0,0,1,12.79,18.93c1.12,2.26,2.2,5.58,3.48,9.03s3.45,9.54,4.78,13.56a.944.944,0,0,0,.03.09c0,.01.01.03.01.04h.01c.09.26.21.56.34.84.03.06.05.11.08.17a6.675,6.675,0,0,0,.3.6c1.04,1.77,3.3,4.75,3.85,6.27,3.46,9.45,6.67,15.03,10.55,25.32.63,1.69,4.58,12.24,5.9,15.59,1.89,4.8,7.66,18.58,8.78,21.22a99.668,99.668,0,0,1,4.32,11.18c0,.01.01.02.01.03.41,1.44.77,2.93,1.14,4.7.18.84.35,1.75.54,2.75l.01.01v.01c.01.01,0,.01,0,.03s0,.02,0,.03.01.03.02.03v.02c-.02.01.02.12.02.12v-.08s.04.06.02.08c0,.01-.02,0-.02,0a.977.977,0,0,0,.05.26c.03.02-.01.09.03.11a.838.838,0,0,0,.02.1,6.819,6.819,0,0,1,.17.74c1.04,5.08,2.01,10.06,2.87,15.18.14.82.27,1.63.4,2.46q.45,2.82.86,5.74c.16,1.18.34,2.46.52,3.78.12.84.24,1.71.35,2.58.23,1.65.45,3.33.65,4.94.57,4.44,1.16,9.37,1.71,14.03.08.66.15,1.32.23,1.97.02.17.04.34.06.53.02.17.03.34.06.51.06.65.13,1.29.21,1.93a1.988,1.988,0,0,0,.02.22c.08.6.16,1.19.23,1.79.03.2.06.4.07.59a4.429,4.429,0,0,1,.06.51c.04.39.08.78.11,1.18a.417.417,0,0,0,.01.15,6.346,6.346,0,0,1,.06.65c.01.04.01.07.02.11a5.058,5.058,0,0,0,.08.52c0,.06.02.13.03.22s.02.2.03.32c.03.2.05.42.08.67.03.29.06.6.09.91.08.64.18,1.57.27,2.36.01.07.01.13.02.19.31,2.3.63,4.7.82,7.03.03.3.05.59.07.88.01.09.01.17.02.26,0,.11.01.09.01.18a1.09,1.09,0,0,0,.01.17c.04.56.12,1.16.18,1.75l.01.01c0,.04.01.08.01.12.03.28.06.56.1.85.22,2.06.45,4.15.68,6.23.1.97.21,1.93.31,2.89.02.21.05.42.07.63.23,1.97.44,4.01.67,5.92,1.5,12.43,3.25,24.93,5.34,37.15.18,1.1.41,2.46.52,3.12,1.77,10.76,3.62,21.08,5.28,31.64a1.01,1.01,0,0,0,.05.22v.1c0,.08.05.26.07.38,1.4,8.8,4.01,30.45,5.54,43.44q-.09,11.955-.28,24.98c-.03,1.96-.05,3.93-.09,5.93-.26,17.57-.65,36.47-1.2,56.52-1.35,48.8-3.21,73.5-2.39,93.92,49.37-13.54,93.9-40.84,129.04-75.63C513.1,469.12,512.01,448.15,506.91,431.66ZM331.6,51.83c.02.03.01.02-.01,0Zm76.14,455.15c-.01.03.01.07-.02.07s0-.04,0-.05.02-.01,0-.03.01-.24.06-.22C407.81,506.76,407.75,506.95,407.74,506.98Zm.75,38.83c-.06.02-.14-.29-.09-.32a.01.01,0,0,1,.01-.01l.01.01C408.47,545.52,408.55,545.77,408.49,545.81Z"/><path fill="#c88773" d="M363.41,374.28h-.02c-.27.07-.54.14-.81.2a15.3,15.3,0,0,1-2.68.32h-.18c-.9-.03-1.59-.13-2.02-.18-.55-.07-1.1-.13-1.66-.18l-1.18-.09-.44-.03-1.24-.06c-.19-.01-.38-.01-.57-.02l-1.15-.03h-.19c-.23,0-.46-.01-.7,0-.29,0-.59-.01-.89-.01h-.01a140.047,140.047,0,0,0-20.61,2c-6.42,1.04-8.47,2.03-16.78,3.02-3.2.37-7.74.56-7.74.56-.13-.01-.26-.01-.39-.02-.02-.01-.03,0-.04,0h-.1a2.645,2.645,0,0,1-.27-.02,2.452,2.452,0,0,0-.27-.02c-.57-.04-1.18-.09-1.85-.14-1.48-.12-3.22-.28-5.13-.5-3.43-.4-5.8-.81-7.83-1.22-.3-.05-.58-.11-.86-.17-2.56-.54-4.76-1.08-8.2-1.63a138.547,138.547,0,0,0-21.71-2,62.622,62.622,0,0,0-7.11.42,19.668,19.668,0,0,1-3.13.18h-.23l-5.21-.81.02.02c-.01,0-.02-.01-.03-.01h-.01l-.01-.01a9.042,9.042,0,0,1-1.07-.39,13.924,13.924,0,0,1-1.35-.63c.25.19.49.37.74.54s.48.33.72.48c.2.13.39.25.59.36.15.09.3.17.45.25a.169.169,0,0,0,.05.02,2.7,2.7,0,0,0,.29.15.914.914,0,0,0,.14.07.31.31,0,0,0,.13.06c.14.07.27.13.4.19.22.09.43.18.65.26l.15.06c.37.13.73.24,1.07.33l.01.01c.18.28.36.54.54.82.02.03.04.06.07.1.17.04.33.08.5.11a.59.59,0,0,1,.14.02.59.59,0,0,0,.14.02c.3.04.6.07.87.1.06,0,.11.01.17.01.17,0,.34.01.5.01h.08a.892.892,0,0,1-.22-.03,1.526,1.526,0,0,0,.3.03h-.08a.22.22,0,0,0,.08.01c.14.01.28.01.42.01h.7c.32,0,.68-.01,1.07-.01.65,0,1.43.01,2.38.05h.03c.49,0,1.04.03,1.66.06,0,0,.2.01.54.04h.01c.04,0,.07.01.12.01h.01c.41.03.98.08,1.68.16a1.059,1.059,0,0,0-.12-.1.938.938,0,0,1,.12.09v.01h.02c.13.01.25.03.39.04h.01c.65.07,1.41.15,2.25.25.61.08,1.27.17,1.96.27.12.03.26.04.4.07.1.02.21.03.3.04h.01c.01.02.01.04.02.06a.169.169,0,0,0,.02.05c.54.1,1.1.18,1.69.3.68.12,1.34.25,1.97.39q.48.105.93.21c.3.06.6.14.89.21s.58.14.86.22c1.11.28,2.14.59,3.11.9.31.1.62.2.92.3.35.12.7.24,1.04.36,2.23.78,4.25,1.6,6.38,2.37.24.09.48.18.71.26,1.06.39,2.15.76,3.32,1.11.4.13.82.25,1.25.37.03.01.07.02.11.03,1.33.36,2.77.71,4.36,1.01.11.03.24.04.37.07a1.517,1.517,0,0,1,.21.03l.25.04c.31.04.67.08,1.04.14.13,0,.26.03.4.04.38.04.76.07,1.18.11a.564.564,0,0,0,.07.01c.21.02.43.05.65.06.33.03.69.06,1.05.08a2.466,2.466,0,0,0,.39.03c.22.03.44.04.68.06.35.02.71.05,1.07.08.23.01.47.03.7.05.47.05.93.07,1.36.1.22.02.43.03.64.04s.43.03.64.04.43.03.62.05c.14,0,.26.01.39.02.26.02.48.03.69.05.31.01.54.02.71.04s.26.01.26.01a62.042,62.042,0,0,0,6.78-.1c.54-.04,1.06-.08,1.57-.13q.42-.045.81-.09c.04,0,.1-.01.14-.01,1.77-.18,3.28-.43,4.56-.67,9.76-1.88,13.88-5.26,23.87-7.37h.01c.6-.14,1.19-.26,1.83-.37,1.78-.32,3.42-.58,4.83-.76.02,0,.05-.01.07-.01.13-.02.26-.03.38-.05.36-.06.69-.1,1.01-.13v.01a.127.127,0,0,0,.06-.01l.51-.06c.06-.01.11-.01.17-.02.04,0,.09-.01.13-.01.11-.01.22-.03.32-.04h.05c.04,0,.08-.01.12-.01a1.919,1.919,0,0,1,.22-.03,1.1,1.1,0,0,1,.18-.02c.16-.02.31-.03.45-.04l.25-.03h.02a.41.41,0,0,0,.11-.01.66.66,0,0,0,.14-.01c.13-.01.24-.02.34-.03h.08a.915.915,0,0,1,.16-.01.448.448,0,0,1,.11-.01c.19-.01.29-.02.29-.02.56-.03,1.06-.06,1.51-.07.27-.01.53-.01.77-.01.16-.01.32-.01.47-.01.19-.01.37-.01.55-.01.64,0,1.17.01,1.64.01h.5c.02,0,.04-.01.06-.01h.21a.808.808,0,0,0,.15-.01,1.927,1.927,0,0,0,.24-.01v-.01h.1a1.213,1.213,0,0,0,.18-.01h.08c.02,0,.03,0,.04-.01s.03,0,.04-.01a2.642,2.642,0,0,0,.29-.02c.03,0,.05-.01.08-.01a.06.06,0,0,1,.04-.01,4.371,4.371,0,0,0,.59-.08c.03,0,.04-.02.07-.02.36-.06.75-.16,1.17-.27h.01c.21-.06.41-.11.64-.18,1.91-.61,2.17-.1,3.54-1.42a39806572953.236,39806572953.236,0,0,0,.08-.08h.01l.21-.21q.195-.21.45-.48l.25-.28c.28-.3.58-.68.94-1.09C365.91,374.4,366.88,373.36,363.41,374.28Zm-106.87,2.6a.022.022,0,0,1-.02-.02c.01.01.01.01.02.01a.176.176,0,0,0,.05.04A.085.085,0,0,1,256.54,376.88Z"/><path fill="#bc9065" d="M319.84,352.75l-.028.042h0l-.244.4,0,0-.027.043,0-.006c-.251.454-.511.906-.782,1.342l-.017.02-.018.032.016-.02a10.179,10.179,0,0,1-3.239,3.656,24.763,24.763,0,0,1-4.421,2.1,31.647,31.647,0,0,1-9.569,1.985,23.081,23.081,0,0,1-9.452-2.523,15.172,15.172,0,0,1-4-2.857,19.224,19.224,0,0,1-2.612-4.083l-.006-.009-.285-.489h0v0h0l.354.45-.006-.009a21.816,21.816,0,0,0,2.979,3.711A14.4,14.4,0,0,0,292.453,359a25.4,25.4,0,0,0,9.074,2.161,25.01,25.01,0,0,0,4.638-.569,44.757,44.757,0,0,0,4.595-1.185,23.953,23.953,0,0,0,4.382-1.743,10.937,10.937,0,0,0,3.376-3.206l.016-.02.022-.028-.017.02.938-1.237,0,0,0,0,.033-.037,0,0,.3-.36h0Z"/><path fill="#bc9065" d="M282.93,350.12c0-.006-.01-.009-.01-.009h0a13,13,0,0,0-1.967-.993,10.606,10.606,0,0,0-2.076-.66,2.473,2.473,0,0,0-1.92.211c-.46.333-.42,1.081-.283,1.749l0,.022v.07l0-.055.311,1.326-.013-.052.022.1.013.049a4.242,4.242,0,0,1,.119,1.473,1.667,1.667,0,0,1-.352.816c-.107.106-.224.2-.342.3a3.09,3.09,0,0,1-.378.2,5.044,5.044,0,0,1-2.929,0A12.821,12.821,0,0,1,268.2,352.1a12.323,12.323,0,0,1-3.351-4.45,16.409,16.409,0,0,1-1.228-5.391,27.362,27.362,0,0,1,1.717-10.7,23.763,23.763,0,0,1,6.038-8.858,27.174,27.174,0,0,0-5.3,9.126,26.727,26.727,0,0,0-1.115,5.135,25.863,25.863,0,0,0-.2,5.225,15.418,15.418,0,0,0,1.171,4.991,11.141,11.141,0,0,0,3,4.051,11.957,11.957,0,0,0,4.441,2.452,4.412,4.412,0,0,0,2.341.145.751.751,0,0,0,.578-.617,3.538,3.538,0,0,0-.052-1.185l.013.049-.018-.1-.013-.053-.249-1.353,0-.027v-.058l0,.062a4.192,4.192,0,0,1-.034-1.2,1.588,1.588,0,0,1,.656-1.138,2.911,2.911,0,0,1,2.359-.137,10.976,10.976,0,0,1,2.079.848,11.323,11.323,0,0,1,1.873,1.2h0A.01.01,0,0,1,282.93,350.12Z"/></svg>