<svg xmlns="http://www.w3.org/2000/svg" id="lines" width="2560" height="1800" viewBox="0 0 720 504"><defs><style>#lowerLine,#upperLine{stroke-dasharray:5;animation:dash 150s linear}</style></defs><path id="upperLine" fill="none" stroke="#f8f8f8" stroke-miterlimit="10" stroke-width="1" d="M340-40a522.42,522.42,0,0,0,70,85c25.5,25,50.19,49.76,84,67,15.1,7.7,101.78,53.2,168,16,9.6-5.39,38-21.33,40.5-49.5,2.41-26.9-19.5-56.59-46-60-32.72-4.21-66.5,18.5-64,63,3.21,57.14,83.72,97.35,92,101,78.09,34.44,156.39,4.2,180-6"/><path id="lowerLine" fill="none" stroke="#fff" stroke-miterlimit="10" stroke-width="1" d="M-31,433c131.55,24,273.57-97.06,391-143,266.94-90,291,228.91,604,127"/></svg>