<?xml version="1.0" ?><svg id="Icons" style="enable-background:new 0 0 32 32;" version="1.1" viewBox="0 0 32 32"
	xml:space="preserve" xmlns="http://www.w3.org/2000/svg" xmlns:xlink="http://www.w3.org/1999/xlink">
	<style type="text/css">
		.st0 {
			fill: white;
			stroke: #4B4A4D;
			stroke-width: 1.5;
			stroke-linecap: round;
			stroke-linejoin: round;
			stroke-miterlimit: 10;
		}

		.st1 {
			fill: white;
			stroke: #4B4A4D;
			stroke-width: 1.5;
		}

		.st2 {
			fill: white;
			stroke: #4B4A4D;
			stroke-width: 2;
			stroke-miterlimit: 10;
		}
	</style>
	<path class="st0" d="M23,31H9c-4.4,0-8-3.6-8-8V9c0-4.4,3.6-8,8-8h14c4.4,0,8,3.6,8,8v14C31,27.4,27.4,31,23,31z" />
	<rect class="st0" height="12" width="4" x="7" y="13" />
	<path class="st0"
		d="M20.5,13c-0.9,0-1.8,0.3-2.5,0.8V13h-4v12h2h2v-6.5c0-0.8,0.7-1.5,1.5-1.5s1.5,0.7,1.5,1.5V25h4v-7.5  C25,15,23,13,20.5,13z" />
	<circle class="st0" cx="9" cy="8" r="2" />
</svg>